AnekGujarati-CondensedThin.ufo
<glyph name="seven" format="2">
  <advance width="466"/>
  <unicode hex="0037"/>
  <outline>
    <contour>
      <point x="123" y="0" type="line"/>
      <point x="163" y="0" type="line"/>
      <point x="430" y="1246" type="line"/>
      <point x="430" y="1278" type="line"/>
      <point x="38" y="1278" type="line"/>
      <point x="38" y="1244" type="line"/>
      <point x="392" y="1244" type="line"/>
    </contour>
  </outline>
</glyph>
<glyph name="twosuperior" format="2">
  <advance width="304"/>
  <unicode hex="00B2"/>
  <outline>
    <contour>
      <point x="29" y="700" type="line"/>
      <point x="267" y="700" type="line"/>
      <point x="267" y="730" type="line"/>
      <point x="46" y="730" type="line"/>
      <point x="61" y="718" type="line"/>
      <point x="61" y="734" type="line"/>
      <point x="150" y="902" type="line" smooth="yes"/>
      <point x="237" y="1066"/>
      <point x="262" y="1130"/>
      <point x="262" y="1218" type="curve" smooth="yes"/>
      <point x="262" y="1241" type="line" smooth="yes"/>
      <point x="262" y="1337"/>
      <point x="226" y="1391"/>
      <point x="142" y="1391" type="curve" smooth="yes"/>
      <point x="99" y="1391"/>
      <point x="65" y="1371"/>
      <point x="45" y="1355" type="curve"/>
      <point x="41" y="1320" type="line"/>
      <point x="72" y="1341"/>
      <point x="101" y="1360"/>
      <point x="143" y="1360" type="curve" smooth="yes"/>
      <point x="202" y="1360"/>
      <point x="228" y="1317"/>
      <point x="228" y="1239" type="curve" smooth="yes"/>
      <point x="228" y="1216" type="line" smooth="yes"/>
      <point x="228" y="1132"/>
      <point x="199" y="1063"/>
      <point x="124" y="918" type="curve" smooth="yes"/>
      <point x="29" y="735" type="line"/>
    </contour>
  </outline>
</glyph>
<glyph name="Doubledanda.gj" format="2">
  <advance width="626"/>
  <unicode hex="0965"/>
  <anchor x="462" y="-66" name="Bottom"/>
  <anchor x="451" y="1273" name="Top"/>
  <anchor x="469" y="1273" name="Top2"/>
  <outline>
    <contour>
      <point x="138" y="539" type="line"/>
      <point x="175" y="539" type="line"/>
      <point x="175" y="1196" type="line"/>
      <point x="138" y="1196" type="line"/>
    </contour>
    <contour>
      <point x="138" y="0" type="line"/>
      <point x="175" y="0" type="line"/>
      <point x="175" y="747" type="line"/>
      <point x="138" y="747" type="line"/>
    </contour>
    <contour>
      <point x="451" y="539" type="line"/>
      <point x="488" y="539" type="line"/>
      <point x="488" y="1196" type="line"/>
      <point x="451" y="1196" type="line"/>
    </contour>
    <contour>
      <point x="451" y="0" type="line"/>
      <point x="488" y="0" type="line"/>
      <point x="488" y="747" type="line"/>
      <point x="451" y="747" type="line"/>
    </contour>
  </outline>
</glyph>
<glyph name="Chandrabindu.gj" format="2">
  <unicode hex="0A81"/>
  <guideline x="-86" y="4460" angle="90"/>
  <guideline x="251" y="1312" angle="90"/>
  <guideline x="316" y="1273" angle="0"/>
  <guideline x="269" y="1312" angle="90"/>
  <guideline x="137" y="1554" angle="90"/>
  <guideline x="269" y="1468" angle="90"/>
  <guideline x="288" y="1312" angle="90"/>
  <anchor x="269" y="1273" name="_Top2"/>
  <outline>
    <contour>
      <point x="269" y="1295" type="curve" smooth="yes"/>
      <point x="381" y="1295"/>
      <point x="438" y="1359"/>
      <point x="438" y="1531" type="curve" smooth="yes"/>
      <point x="438" y="1543"/>
      <point x="438" y="1555"/>
      <point x="438" y="1573" type="curve"/>
      <point x="405" y="1573" type="line"/>
      <point x="405" y="1536" type="line" smooth="yes"/>
      <point x="405" y="1380"/>
      <point x="358" y="1327"/>
      <point x="269" y="1327" type="curve" smooth="yes"/>
      <point x="178" y="1327"/>
      <point x="133" y="1380"/>
      <point x="133" y="1536" type="curve" smooth="yes"/>
      <point x="133" y="1573" type="line"/>
      <point x="100" y="1573" type="line"/>
      <point x="100" y="1555"/>
      <point x="100" y="1543"/>
      <point x="100" y="1531" type="curve" smooth="yes"/>
      <point x="100" y="1359"/>
      <point x="156" y="1295"/>
    </contour>
    <contour>
      <point x="269" y="1512" type="curve" smooth="yes"/>
      <point x="289" y="1512"/>
      <point x="297" y="1528"/>
      <point x="297" y="1562" type="curve" smooth="yes"/>
      <point x="297" y="1606" type="line" smooth="yes"/>
      <point x="297" y="1641"/>
      <point x="289" y="1656"/>
      <point x="269" y="1656" type="curve" smooth="yes"/>
      <point x="249" y="1656"/>
      <point x="242" y="1641"/>
      <point x="242" y="1606" type="curve" smooth="yes"/>
      <point x="242" y="1562" type="line" smooth="yes"/>
      <point x="242" y="1528"/>
      <point x="249" y="1512"/>
    </contour>
  </outline>
</glyph>
<glyph name="Bindu.gj" format="2">
  <unicode hex="0A82"/>
  <anchor x="133" y="1273" name="_Top2"/>
  <outline>
    <contour>
      <point x="133" y="1374" type="curve" smooth="yes"/>
      <point x="158" y="1374"/>
      <point x="166" y="1391"/>
      <point x="166" y="1431" type="curve" smooth="yes"/>
      <point x="166" y="1459" type="line" smooth="yes"/>
      <point x="166" y="1500"/>
      <point x="158" y="1518"/>
      <point x="133" y="1518" type="curve" smooth="yes"/>
      <point x="108" y="1518"/>
      <point x="100" y="1500"/>
      <point x="100" y="1459" type="curve" smooth="yes"/>
      <point x="100" y="1431" type="line" smooth="yes"/>
      <point x="100" y="1391"/>
      <point x="108" y="1374"/>
    </contour>
  </outline>
</glyph>
<glyph name="Visarga.gj" format="2">
  <advance width="306"/>
  <unicode hex="0A83"/>
  <anchor x="153" y="158" name="_Top2"/>
  <outline>
    <contour>
      <point x="153" y="259" type="curve" smooth="yes"/>
      <point x="178" y="259"/>
      <point x="186" y="276"/>
      <point x="186" y="316" type="curve" smooth="yes"/>
      <point x="186" y="344" type="line" smooth="yes"/>
      <point x="186" y="385"/>
      <point x="178" y="403"/>
      <point x="153" y="403" type="curve" smooth="yes"/>
      <point x="128" y="403"/>
      <point x="120" y="385"/>
      <point x="120" y="344" type="curve" smooth="yes"/>
      <point x="120" y="316" type="line" smooth="yes"/>
      <point x="120" y="276"/>
      <point x="128" y="259"/>
    </contour>
    <contour>
      <point x="153" y="831" type="curve" smooth="yes"/>
      <point x="178" y="831"/>
      <point x="186" y="848"/>
      <point x="186" y="888" type="curve" smooth="yes"/>
      <point x="186" y="916" type="line" smooth="yes"/>
      <point x="186" y="957"/>
      <point x="178" y="975"/>
      <point x="153" y="975" type="curve" smooth="yes"/>
      <point x="128" y="975"/>
      <point x="120" y="957"/>
      <point x="120" y="916" type="curve" smooth="yes"/>
      <point x="120" y="888" type="line" smooth="yes"/>
      <point x="120" y="848"/>
      <point x="128" y="831"/>
    </contour>
  </outline>
</glyph>
<glyph name="VowelIi.gj" format="2">
  <advance width="695"/>
  <unicode hex="0A88"/>
  <guideline x="2232" y="2712" angle="90"/>
  <guideline x="1261" y="4785" angle="0"/>
  <guideline x="571" y="908" angle="90"/>
  <guideline x="709" y="908" angle="90"/>
  <guideline x="414" y="1549" angle="0"/>
  <anchor x="299" y="1273" name="Top2"/>
  <outline>
    <contour>
      <point x="534" y="473" type="line"/>
      <point x="571" y="473" type="line"/>
      <point x="571" y="1362" type="line" smooth="yes"/>
      <point x="571" y="1470"/>
      <point x="605" y="1516"/>
      <point x="671" y="1516" type="curve" smooth="yes"/>
      <point x="686" y="1516"/>
      <point x="699" y="1513"/>
      <point x="711" y="1509" type="curve"/>
      <point x="707" y="1542" type="line"/>
      <point x="698" y="1546"/>
      <point x="682" y="1549"/>
      <point x="671" y="1549" type="curve" smooth="yes"/>
      <point x="580" y="1549"/>
      <point x="534" y="1490"/>
      <point x="534" y="1364" type="curve" smooth="yes"/>
    </contour>
    <contour>
      <point x="339" y="-12" type="curve" smooth="yes"/>
      <point x="497" y="-12"/>
      <point x="571" y="82"/>
      <point x="571" y="271" type="curve" smooth="yes"/>
      <point x="571" y="537" type="line"/>
      <point x="534" y="537" type="line"/>
      <point x="534" y="271" type="line" smooth="yes"/>
      <point x="534" y="104"/>
      <point x="474" y="23"/>
      <point x="339" y="23" type="curve" smooth="yes"/>
      <point x="206" y="23"/>
      <point x="141" y="104"/>
      <point x="141" y="271" type="curve" smooth="yes"/>
      <point x="141" y="399" type="line" smooth="yes"/>
      <point x="141" y="555"/>
      <point x="199" y="617"/>
      <point x="318" y="620" type="curve" smooth="yes"/>
      <point x="359" y="621" type="line"/>
      <point x="359" y="653" type="line"/>
      <point x="318" y="655" type="line" smooth="yes"/>
      <point x="208" y="660"/>
      <point x="154" y="713"/>
      <point x="154" y="861" type="curve" smooth="yes"/>
      <point x="154" y="967" type="line" smooth="yes"/>
      <point x="154" y="1114"/>
      <point x="199" y="1175"/>
      <point x="302" y="1175" type="curve" smooth="yes"/>
      <point x="336" y="1175"/>
      <point x="370" y="1165"/>
      <point x="396" y="1149" type="curve"/>
      <point x="391" y="1186" type="line"/>
      <point x="367" y="1202"/>
      <point x="334" y="1210"/>
      <point x="302" y="1210" type="curve" smooth="yes"/>
      <point x="174" y="1210"/>
      <point x="117" y="1138"/>
      <point x="117" y="970" type="curve" smooth="yes"/>
      <point x="117" y="861" type="line" smooth="yes"/>
      <point x="117" y="723"/>
      <point x="163" y="655"/>
      <point x="253" y="638" type="curve"/>
      <point x="253" y="636" type="line"/>
      <point x="153" y="620"/>
      <point x="104" y="546"/>
      <point x="104" y="399" type="curve" smooth="yes"/>
      <point x="104" y="271" type="line" smooth="yes"/>
      <point x="104" y="82"/>
      <point x="181" y="-12"/>
    </contour>
  </outline>
</glyph>
<glyph name="VowelU.gj" format="2">
  <advance width="696"/>
  <unicode hex="0A89"/>
  <guideline x="885" y="2109" angle="0"/>
  <guideline x="424" y="1549" angle="0"/>
  <guideline x="431" y="1609" angle="0"/>
  <anchor x="407" y="1609" name="Top2"/>
  <outline>
    <contour>
      <point x="124" y="694" type="line"/>
      <point x="161" y="694" type="line"/>
      <point x="161" y="1193" type="line" smooth="yes"/>
      <point x="161" y="1399"/>
      <point x="267" y="1514"/>
      <point x="430" y="1514" type="curve" smooth="yes"/>
      <point x="444" y="1514"/>
      <point x="457" y="1513"/>
      <point x="473" y="1510" type="curve"/>
      <point x="472" y="1544" type="line"/>
      <point x="457" y="1547"/>
      <point x="443" y="1549"/>
      <point x="430" y="1549" type="curve" smooth="yes"/>
      <point x="243" y="1549"/>
      <point x="124" y="1422"/>
      <point x="124" y="1193" type="curve" smooth="yes"/>
    </contour>
    <contour>
      <point x="356" y="-12" type="curve" smooth="yes"/>
      <point x="515" y="-12"/>
      <point x="592" y="84"/>
      <point x="592" y="271" type="curve" smooth="yes"/>
      <point x="592" y="399" type="line" smooth="yes"/>
      <point x="592" y="546"/>
      <point x="543" y="620"/>
      <point x="442" y="636" type="curve"/>
      <point x="442" y="638" type="line"/>
      <point x="533" y="655"/>
      <point x="579" y="723"/>
      <point x="579" y="861" type="curve" smooth="yes"/>
      <point x="579" y="1009" type="line" smooth="yes"/>
      <point x="579" y="1145"/>
      <point x="523" y="1210"/>
      <point x="426" y="1210" type="curve" smooth="yes"/>
      <point x="374" y="1210"/>
      <point x="336" y="1196"/>
      <point x="310" y="1178" type="curve"/>
      <point x="306" y="1137" type="line"/>
      <point x="339" y="1159"/>
      <point x="374" y="1175"/>
      <point x="424" y="1175" type="curve" smooth="yes"/>
      <point x="499" y="1175"/>
      <point x="542" y="1125"/>
      <point x="542" y="1007" type="curve" smooth="yes"/>
      <point x="542" y="861" type="line" smooth="yes"/>
      <point x="542" y="713"/>
      <point x="488" y="660"/>
      <point x="380" y="655" type="curve" smooth="yes"/>
      <point x="339" y="653" type="line"/>
      <point x="339" y="621" type="line"/>
      <point x="380" y="619" type="line" smooth="yes"/>
      <point x="497" y="613"/>
      <point x="555" y="555"/>
      <point x="555" y="399" type="curve" smooth="yes"/>
      <point x="555" y="271" type="line" smooth="yes"/>
      <point x="555" y="106"/>
      <point x="490" y="23"/>
      <point x="356" y="23" type="curve" smooth="yes"/>
      <point x="223" y="23"/>
      <point x="161" y="106"/>
      <point x="161" y="271" type="curve" smooth="yes"/>
      <point x="161" y="723" type="line"/>
      <point x="124" y="723" type="line"/>
      <point x="124" y="271" type="line" smooth="yes"/>
      <point x="124" y="84"/>
      <point x="200" y="-12"/>
    </contour>
  </outline>
</glyph>
<glyph name="VowelUu.gj" format="2">
  <advance width="982"/>
  <unicode hex="0A8A"/>
  <anchor x="480" y="1609" name="Top2"/>
  <outline>
    <contour>
      <point x="807" y="0" type="line"/>
      <point x="844" y="0" type="line"/>
      <point x="844" y="1125" type="line" smooth="yes"/>
      <point x="844" y="1404"/>
      <point x="728" y="1549"/>
      <point x="483" y="1549" type="curve" smooth="yes"/>
      <point x="239" y="1549"/>
      <point x="124" y="1404"/>
      <point x="124" y="1125" type="curve" smooth="yes"/>
      <point x="124" y="692" type="line"/>
      <point x="161" y="692" type="line"/>
      <point x="161" y="1125" type="line" smooth="yes"/>
      <point x="161" y="1380"/>
      <point x="264" y="1514"/>
      <point x="483" y="1514" type="curve" smooth="yes"/>
      <point x="702" y="1514"/>
      <point x="807" y="1380"/>
      <point x="807" y="1125" type="curve" smooth="yes"/>
    </contour>
    <contour>
      <point x="356" y="-12" type="curve" smooth="yes"/>
      <point x="515" y="-12"/>
      <point x="592" y="84"/>
      <point x="592" y="271" type="curve" smooth="yes"/>
      <point x="592" y="399" type="line" smooth="yes"/>
      <point x="592" y="546"/>
      <point x="543" y="620"/>
      <point x="442" y="636" type="curve"/>
      <point x="442" y="638" type="line"/>
      <point x="533" y="655"/>
      <point x="579" y="723"/>
      <point x="579" y="861" type="curve" smooth="yes"/>
      <point x="579" y="1009" type="line" smooth="yes"/>
      <point x="579" y="1145"/>
      <point x="523" y="1210"/>
      <point x="426" y="1210" type="curve" smooth="yes"/>
      <point x="374" y="1210"/>
      <point x="336" y="1196"/>
      <point x="310" y="1178" type="curve"/>
      <point x="306" y="1137" type="line"/>
      <point x="339" y="1159"/>
      <point x="374" y="1175"/>
      <point x="424" y="1175" type="curve" smooth="yes"/>
      <point x="499" y="1175"/>
      <point x="542" y="1125"/>
      <point x="542" y="1007" type="curve" smooth="yes"/>
      <point x="542" y="861" type="line" smooth="yes"/>
      <point x="542" y="713"/>
      <point x="488" y="660"/>
      <point x="380" y="655" type="curve" smooth="yes"/>
      <point x="339" y="653" type="line"/>
      <point x="339" y="621" type="line"/>
      <point x="380" y="619" type="line" smooth="yes"/>
      <point x="497" y="613"/>
      <point x="555" y="555"/>
      <point x="555" y="399" type="curve" smooth="yes"/>
      <point x="555" y="271" type="line" smooth="yes"/>
      <point x="555" y="106"/>
      <point x="490" y="23"/>
      <point x="356" y="23" type="curve" smooth="yes"/>
      <point x="223" y="23"/>
      <point x="161" y="106"/>
      <point x="161" y="271" type="curve" smooth="yes"/>
      <point x="161" y="723" type="line"/>
      <point x="124" y="723" type="line"/>
      <point x="124" y="271" type="line" smooth="yes"/>
      <point x="124" y="84"/>
      <point x="200" y="-12"/>
    </contour>
  </outline>
</glyph>
<glyph name="VowelRu.gj" format="2">
  <advance width="963"/>
  <unicode hex="0A8B"/>
  <anchor x="490" y="-66" name="Bottom"/>
  <anchor x="479" y="1273" name="Top"/>
  <anchor x="497" y="1273" name="Top2"/>
  <outline>
    <contour>
      <point x="742" y="125" type="curve" smooth="yes"/>
      <point x="825" y="125"/>
      <point x="869" y="180"/>
      <point x="869" y="294" type="curve" smooth="yes"/>
      <point x="869" y="438" type="line" smooth="yes"/>
      <point x="869" y="578"/>
      <point x="845" y="640"/>
      <point x="784" y="701" type="curve"/>
      <point x="755" y="690" type="line"/>
      <point x="804" y="635"/>
      <point x="832" y="592"/>
      <point x="832" y="436" type="curve" smooth="yes"/>
      <point x="832" y="296" type="line" smooth="yes"/>
      <point x="832" y="201"/>
      <point x="801" y="160"/>
      <point x="740" y="160" type="curve" smooth="yes"/>
      <point x="714" y="160"/>
      <point x="688" y="167"/>
      <point x="666" y="180" type="curve"/>
      <point x="670" y="144" type="line"/>
      <point x="685" y="134"/>
      <point x="707" y="125"/>
    </contour>
    <contour>
      <point x="173" y="277" type="curve"/>
      <point x="214" y="277" type="line"/>
      <point x="214" y="298" type="line"/>
      <point x="273" y="359"/>
      <point x="291" y="432"/>
      <point x="291" y="607" type="curve" smooth="yes"/>
      <point x="291" y="850" type="line" smooth="yes"/>
      <point x="291" y="983"/>
      <point x="241" y="1045"/>
      <point x="146" y="1045" type="curve" smooth="yes"/>
      <point x="97" y="1045"/>
      <point x="57" y="1026"/>
      <point x="37" y="1011" type="curve"/>
      <point x="32" y="970" type="line"/>
      <point x="65" y="995"/>
      <point x="105" y="1010"/>
      <point x="144" y="1010" type="curve" smooth="yes"/>
      <point x="217" y="1010"/>
      <point x="254" y="963"/>
      <point x="254" y="849" type="curve" smooth="yes"/>
      <point x="254" y="609" type="line" smooth="yes"/>
      <point x="254" y="447"/>
      <point x="241" y="367"/>
    </contour>
    <contour>
      <point x="44" y="140" type="line"/>
      <point x="493" y="467" type="line"/>
      <point x="486" y="504" type="line"/>
      <point x="416" y="453" type="line" smooth="yes"/>
      <point x="348" y="401"/>
      <point x="287" y="357"/>
      <point x="223" y="311" type="curve"/>
      <point x="199" y="296" type="line"/>
      <point x="44" y="184" type="line"/>
    </contour>
    <contour>
      <point x="499" y="473" type="line"/>
      <point x="777" y="672" type="line"/>
      <point x="764" y="703" type="line"/>
      <point x="492" y="508" type="line"/>
    </contour>
    <contour>
      <point x="753" y="683" type="line"/>
      <point x="793" y="690" type="line"/>
      <point x="826" y="738" type="line"/>
      <point x="812" y="841"/>
      <point x="801" y="933"/>
      <point x="790" y="1041" type="curve"/>
      <point x="753" y="1041" type="line"/>
    </contour>
    <contour>
      <point x="479" y="539" type="line"/>
      <point x="516" y="539" type="line"/>
      <point x="516" y="1196" type="line"/>
      <point x="479" y="1196" type="line"/>
    </contour>
    <contour>
      <point x="479" y="0" type="line"/>
      <point x="516" y="0" type="line"/>
      <point x="516" y="747" type="line"/>
      <point x="479" y="747" type="line"/>
    </contour>
  </outline>
</glyph>
<glyph name="VowelChadraE.gj" format="2">
  <advance width="1004"/>
  <unicode hex="0A8D"/>
  <anchor x="840" y="-66" name="Bottom"/>
  <anchor x="829" y="1273" name="Top"/>
  <anchor x="847" y="1273" name="Top2"/>
  <outline>
    <contour>
      <point x="393" y="149" type="curve" smooth="yes"/>
      <point x="522" y="149"/>
      <point x="583" y="228"/>
      <point x="583" y="405" type="curve" smooth="yes"/>
      <point x="583" y="992" type="line"/>
      <point x="546" y="992" type="line"/>
      <point x="546" y="407" type="line" smooth="yes"/>
      <point x="546" y="254"/>
      <point x="498" y="184"/>
      <point x="393" y="184" type="curve" smooth="yes"/>
      <point x="292" y="184"/>
      <point x="233" y="256"/>
      <point x="211" y="418" type="curve" smooth="yes"/>
      <point x="187" y="594" type="line"/>
      <point x="150" y="587" type="line"/>
      <point x="174" y="410" type="line" smooth="yes"/>
      <point x="198" y="230"/>
      <point x="270" y="149"/>
    </contour>
    <contour>
      <point x="161" y="566" type="line"/>
      <point x="165" y="574" type="line"/>
      <point x="167" y="574" type="line"/>
      <point x="269" y="574"/>
      <point x="328" y="646"/>
      <point x="328" y="778" type="curve" smooth="yes"/>
      <point x="328" y="1025" type="line" smooth="yes"/>
      <point x="328" y="1150"/>
      <point x="279" y="1210"/>
      <point x="189" y="1210" type="curve" smooth="yes"/>
      <point x="141" y="1210"/>
      <point x="104" y="1193"/>
      <point x="78" y="1171" type="curve"/>
      <point x="73" y="1130" type="line"/>
      <point x="106" y="1156"/>
      <point x="139" y="1175"/>
      <point x="189" y="1175" type="curve" smooth="yes"/>
      <point x="255" y="1175"/>
      <point x="291" y="1130"/>
      <point x="291" y="1023" type="curve" smooth="yes"/>
      <point x="291" y="783" type="line" smooth="yes"/>
      <point x="291" y="663"/>
      <point x="244" y="607"/>
      <point x="141" y="607" type="curve" smooth="yes"/>
      <point x="56" y="607" type="line"/>
      <point x="56" y="577" type="line"/>
    </contour>
    <contour>
      <point x="829" y="539" type="line"/>
      <point x="866" y="539" type="line"/>
      <point x="866" y="1196" type="line"/>
      <point x="829" y="1196" type="line"/>
    </contour>
    <contour>
      <point x="829" y="0" type="line"/>
      <point x="866" y="0" type="line"/>
      <point x="866" y="747" type="line"/>
      <point x="829" y="747" type="line"/>
    </contour>
    <contour>
      <point x="563" y="626" type="line"/>
      <point x="851" y="626" type="line"/>
      <point x="844" y="659" type="line"/>
      <point x="563" y="659" type="line"/>
    </contour>
    <contour>
      <point x="858" y="1273" type="curve" smooth="yes"/>
      <point x="875" y="1273"/>
      <point x="894" y="1277"/>
      <point x="904" y="1284" type="curve"/>
      <point x="904" y="1315" type="line"/>
      <point x="895" y="1309"/>
      <point x="880" y="1304"/>
      <point x="860" y="1304" type="curve" smooth="yes"/>
      <point x="812" y="1304"/>
      <point x="781" y="1326"/>
      <point x="714" y="1409" type="curve" smooth="yes"/>
      <point x="491" y="1682" type="line"/>
      <point x="464" y="1660" type="line"/>
      <point x="689" y="1390" type="line" smooth="yes"/>
      <point x="762" y="1303"/>
      <point x="801" y="1273"/>
    </contour>
  </outline>
</glyph>
<glyph name="VowelAu.gj" format="2">
  <advance width="1317"/>
  <unicode hex="0A94"/>
  <anchor x="1153" y="-66" name="Bottom"/>
  <anchor x="1142" y="1273" name="Top"/>
  <anchor x="1160" y="1273" name="Top2"/>
  <anchor x="1179" y="1351" name="Top3"/>
  <outline>
    <contour>
      <point x="393" y="149" type="curve" smooth="yes"/>
      <point x="522" y="149"/>
      <point x="583" y="228"/>
      <point x="583" y="405" type="curve" smooth="yes"/>
      <point x="583" y="992" type="line"/>
      <point x="546" y="992" type="line"/>
      <point x="546" y="407" type="line" smooth="yes"/>
      <point x="546" y="254"/>
      <point x="498" y="184"/>
      <point x="393" y="184" type="curve" smooth="yes"/>
      <point x="292" y="184"/>
      <point x="233" y="256"/>
      <point x="211" y="418" type="curve" smooth="yes"/>
      <point x="187" y="594" type="line"/>
      <point x="150" y="587" type="line"/>
      <point x="174" y="410" type="line" smooth="yes"/>
      <point x="198" y="230"/>
      <point x="270" y="149"/>
    </contour>
    <contour>
      <point x="161" y="566" type="line"/>
      <point x="165" y="574" type="line"/>
      <point x="167" y="574" type="line"/>
      <point x="269" y="574"/>
      <point x="328" y="646"/>
      <point x="328" y="778" type="curve" smooth="yes"/>
      <point x="328" y="1025" type="line" smooth="yes"/>
      <point x="328" y="1150"/>
      <point x="279" y="1210"/>
      <point x="189" y="1210" type="curve" smooth="yes"/>
      <point x="141" y="1210"/>
      <point x="104" y="1193"/>
      <point x="78" y="1171" type="curve"/>
      <point x="73" y="1130" type="line"/>
      <point x="106" y="1156"/>
      <point x="139" y="1175"/>
      <point x="189" y="1175" type="curve" smooth="yes"/>
      <point x="255" y="1175"/>
      <point x="291" y="1130"/>
      <point x="291" y="1023" type="curve" smooth="yes"/>
      <point x="291" y="783" type="line" smooth="yes"/>
      <point x="291" y="663"/>
      <point x="244" y="607"/>
      <point x="141" y="607" type="curve" smooth="yes"/>
      <point x="56" y="607" type="line"/>
      <point x="56" y="577" type="line"/>
    </contour>
    <contour>
      <point x="829" y="539" type="line"/>
      <point x="866" y="539" type="line"/>
      <point x="866" y="1196" type="line"/>
      <point x="829" y="1196" type="line"/>
    </contour>
    <contour>
      <point x="829" y="0" type="line"/>
      <point x="866" y="0" type="line"/>
      <point x="866" y="747" type="line"/>
      <point x="829" y="747" type="line"/>
    </contour>
    <contour>
      <point x="563" y="626" type="line"/>
      <point x="851" y="626" type="line"/>
      <point x="844" y="659" type="line"/>
      <point x="563" y="659" type="line"/>
    </contour>
    <contour>
      <point x="1142" y="539" type="line"/>
      <point x="1179" y="539" type="line"/>
      <point x="1179" y="1196" type="line"/>
      <point x="1142" y="1196" type="line"/>
    </contour>
    <contour>
      <point x="1142" y="0" type="line"/>
      <point x="1179" y="0" type="line"/>
      <point x="1179" y="747" type="line"/>
      <point x="1142" y="747" type="line"/>
    </contour>
    <contour>
      <point x="1142" y="1273" type="line"/>
      <point x="1162" y="1292" type="line"/>
      <point x="936" y="1766" type="line"/>
      <point x="906" y="1751" type="line"/>
      <point x="1120" y="1320" type="line"/>
      <point x="1119" y="1319" type="line"/>
      <point x="743" y="1590" type="line"/>
      <point x="722" y="1563" type="line"/>
    </contour>
  </outline>
</glyph>
<glyph name="Ka.gj" format="2">
  <advance width="602"/>
  <unicode hex="0A95"/>
  <guideline x="1216" y="4719" angle="0"/>
  <guideline x="1524" y="3809" angle="275.7106"/>
  <guideline x="296" y="1328" angle="90"/>
  <guideline x="581" y="328" angle="90"/>
  <guideline x="110" y="929" angle="270"/>
  <guideline x="11" y="929" angle="270"/>
  <guideline x="702" y="1328" angle="90"/>
  <guideline x="482" y="1328" angle="90"/>
  <guideline x="274" y="1328" angle="90"/>
  <guideline x="117" y="1196" angle="0"/>
  <guideline x="117" y="1210" angle="0"/>
  <anchor x="296" y="-66" name="Bottom"/>
  <anchor x="379" y="1273" name="Top"/>
  <anchor x="300" y="1273" name="Top2"/>
  <outline>
    <contour>
      <point x="276" y="626" type="curve"/>
      <point x="321" y="643" type="line"/>
      <point x="212" y="671"/>
      <point x="147" y="731"/>
      <point x="147" y="877" type="curve" smooth="yes"/>
      <point x="147" y="967" type="line" smooth="yes"/>
      <point x="147" y="1114"/>
      <point x="201" y="1175"/>
      <point x="300" y="1175" type="curve" smooth="yes"/>
      <point x="361" y="1175"/>
      <point x="405" y="1153"/>
      <point x="445" y="1119" type="curve"/>
      <point x="440" y="1160" type="line"/>
      <point x="408" y="1187"/>
      <point x="359" y="1210"/>
      <point x="300" y="1210" type="curve" smooth="yes"/>
      <point x="177" y="1210"/>
      <point x="110" y="1132"/>
      <point x="110" y="969" type="curve" smooth="yes"/>
      <point x="110" y="875" type="line" smooth="yes"/>
      <point x="110" y="708"/>
      <point x="186" y="656"/>
    </contour>
    <contour>
      <point x="276" y="-12" type="curve" smooth="yes"/>
      <point x="414" y="-12"/>
      <point x="482" y="73"/>
      <point x="482" y="258" type="curve" smooth="yes"/>
      <point x="482" y="397" type="line" smooth="yes"/>
      <point x="482" y="547"/>
      <point x="408" y="619"/>
      <point x="318" y="644" type="curve"/>
      <point x="270" y="627" type="line"/>
      <point x="394" y="596"/>
      <point x="445" y="526"/>
      <point x="445" y="392" type="curve" smooth="yes"/>
      <point x="445" y="260" type="line" smooth="yes"/>
      <point x="445" y="91"/>
      <point x="386" y="23"/>
      <point x="274" y="23" type="curve" smooth="yes"/>
      <point x="208" y="23"/>
      <point x="142" y="49"/>
      <point x="90" y="106" type="curve"/>
      <point x="97" y="54" type="line"/>
      <point x="134" y="19"/>
      <point x="191" y="-12"/>
    </contour>
    <contour>
      <point x="72" y="507" type="line"/>
      <point x="334" y="638" type="line"/>
      <point x="285" y="649" type="line"/>
      <point x="72" y="545" type="line"/>
    </contour>
    <contour>
      <point x="276" y="645" type="line"/>
      <point x="312" y="627" type="line"/>
      <point x="540" y="740" type="line"/>
      <point x="540" y="777" type="line"/>
    </contour>
  </outline>
</glyph>
<glyph name="Kha.gj" format="2">
  <advance width="931"/>
  <unicode hex="0A96"/>
  <guideline x="-134" y="2869" angle="270"/>
  <guideline x="2422" y="3188" angle="90"/>
  <guideline x="755" y="747" angle="90"/>
  <guideline x="124" y="580" angle="270"/>
  <guideline x="-1" y="580" angle="270"/>
  <anchor x="767" y="-65" name="Bottom"/>
  <anchor x="756" y="1274" name="Top"/>
  <anchor x="774" y="1274" name="Top2"/>
  <outline>
    <contour>
      <point x="136" y="728" type="line"/>
      <point x="173" y="728" type="line"/>
      <point x="173" y="1094" type="line" smooth="yes"/>
      <point x="173" y="1164"/>
      <point x="147" y="1201"/>
      <point x="96" y="1201" type="curve" smooth="yes"/>
      <point x="85" y="1201"/>
      <point x="74" y="1199"/>
      <point x="66" y="1197" type="curve"/>
      <point x="63" y="1162" type="line"/>
      <point x="68" y="1164"/>
      <point x="79" y="1166"/>
      <point x="86" y="1166" type="curve" smooth="yes"/>
      <point x="121" y="1166"/>
      <point x="136" y="1145"/>
      <point x="136" y="1092" type="curve" smooth="yes"/>
    </contour>
    <contour>
      <point x="320" y="181" type="curve" smooth="yes"/>
      <point x="446" y="181"/>
      <point x="504" y="258"/>
      <point x="504" y="419" type="curve" smooth="yes"/>
      <point x="504" y="993" type="line"/>
      <point x="467" y="993" type="line"/>
      <point x="467" y="419" type="line" smooth="yes"/>
      <point x="467" y="282"/>
      <point x="420" y="216"/>
      <point x="320" y="216" type="curve" smooth="yes"/>
      <point x="219" y="216"/>
      <point x="173" y="282"/>
      <point x="173" y="419" type="curve" smooth="yes"/>
      <point x="173" y="744" type="line"/>
      <point x="136" y="744" type="line"/>
      <point x="136" y="419" type="line" smooth="yes"/>
      <point x="136" y="258"/>
      <point x="194" y="181"/>
    </contour>
    <contour>
      <point x="487" y="645" type="line"/>
      <point x="787" y="645" type="line"/>
      <point x="781" y="678" type="line"/>
      <point x="487" y="678" type="line"/>
    </contour>
    <contour>
      <point x="756" y="540" type="line"/>
      <point x="793" y="540" type="line"/>
      <point x="793" y="1197" type="line"/>
      <point x="756" y="1197" type="line"/>
    </contour>
    <contour>
      <point x="756" y="1" type="line"/>
      <point x="793" y="1" type="line"/>
      <point x="793" y="748" type="line"/>
      <point x="756" y="748" type="line"/>
    </contour>
  </outline>
</glyph>
<glyph name="Gha.gj" format="2">
  <advance width="693"/>
  <unicode hex="0A98"/>
  <guideline x="518" y="-85" angle="90"/>
  <guideline x="555" y="-85" angle="90"/>
  <guideline x="529" y="-85" angle="90"/>
  <anchor x="529" y="-66" name="Bottom"/>
  <anchor x="518" y="1273" name="Top"/>
  <anchor x="536" y="1273" name="Top2"/>
  <outline>
    <contour>
      <point x="322" y="136" type="curve" smooth="yes"/>
      <point x="433" y="136"/>
      <point x="503" y="195"/>
      <point x="523" y="281" type="curve"/>
      <point x="526" y="281" type="line"/>
      <point x="521" y="348" type="line"/>
      <point x="498" y="221"/>
      <point x="422" y="171"/>
      <point x="324" y="171" type="curve" smooth="yes"/>
      <point x="200" y="171"/>
      <point x="133" y="248"/>
      <point x="133" y="408" type="curve" smooth="yes"/>
      <point x="133" y="449" type="line" smooth="yes"/>
      <point x="133" y="604"/>
      <point x="192" y="663"/>
      <point x="312" y="668" type="curve" smooth="yes"/>
      <point x="363" y="670" type="line"/>
      <point x="363" y="702" type="line"/>
      <point x="312" y="703" type="line" smooth="yes"/>
      <point x="201" y="705"/>
      <point x="146" y="762"/>
      <point x="146" y="908" type="curve" smooth="yes"/>
      <point x="146" y="972" type="line" smooth="yes"/>
      <point x="146" y="1114"/>
      <point x="190" y="1175"/>
      <point x="290" y="1175" type="curve" smooth="yes"/>
      <point x="323" y="1175"/>
      <point x="358" y="1165"/>
      <point x="384" y="1149" type="curve"/>
      <point x="378" y="1186" type="line"/>
      <point x="354" y="1202"/>
      <point x="321" y="1210"/>
      <point x="290" y="1210" type="curve" smooth="yes"/>
      <point x="166" y="1210"/>
      <point x="109" y="1138"/>
      <point x="109" y="976" type="curve" smooth="yes"/>
      <point x="109" y="908" type="line" smooth="yes"/>
      <point x="109" y="771"/>
      <point x="155" y="703"/>
      <point x="244" y="687" type="curve"/>
      <point x="244" y="685" type="line"/>
      <point x="146" y="668"/>
      <point x="96" y="595"/>
      <point x="96" y="449" type="curve" smooth="yes"/>
      <point x="96" y="408" type="line" smooth="yes"/>
      <point x="96" y="226"/>
      <point x="176" y="136"/>
    </contour>
    <contour>
      <point x="518" y="539" type="line"/>
      <point x="555" y="539" type="line"/>
      <point x="555" y="1196" type="line"/>
      <point x="518" y="1196" type="line"/>
    </contour>
    <contour>
      <point x="518" y="0" type="line"/>
      <point x="555" y="0" type="line"/>
      <point x="555" y="747" type="line"/>
      <point x="518" y="747" type="line"/>
    </contour>
  </outline>
</glyph>
<glyph name="Ca.gj" format="2">
  <advance width="751"/>
  <unicode hex="0A9A"/>
  <guideline x="576" y="-85" angle="90"/>
  <guideline x="613" y="1315" angle="90"/>
  <guideline x="587" y="-85" angle="90"/>
  <guideline x="48" y="1315" angle="90"/>
  <guideline x="264" y="180" angle="0"/>
  <anchor x="587" y="-66" name="Bottom"/>
  <anchor x="576" y="1273" name="Top"/>
  <anchor x="594" y="1273" name="Top2"/>
  <outline>
    <contour>
      <point x="394" y="215" type="curve" smooth="yes"/>
      <point x="288" y="215"/>
      <point x="229" y="280"/>
      <point x="207" y="434" type="curve" smooth="yes"/>
      <point x="183" y="602" type="line"/>
      <point x="146" y="594" type="line"/>
      <point x="170" y="427" type="line" smooth="yes"/>
      <point x="195" y="256"/>
      <point x="264" y="180"/>
      <point x="394" y="180" type="curve" smooth="yes"/>
      <point x="505" y="180"/>
      <point x="563" y="241"/>
      <point x="582" y="334" type="curve"/>
      <point x="586" y="334" type="line"/>
      <point x="580" y="401" type="line"/>
      <point x="556" y="274"/>
      <point x="497" y="215"/>
    </contour>
    <contour>
      <point x="576" y="539" type="line"/>
      <point x="613" y="539" type="line"/>
      <point x="613" y="1196" type="line"/>
      <point x="576" y="1196" type="line"/>
    </contour>
    <contour>
      <point x="576" y="0" type="line"/>
      <point x="613" y="0" type="line"/>
      <point x="613" y="747" type="line"/>
      <point x="576" y="747" type="line"/>
    </contour>
    <contour>
      <point x="153" y="583" type="line"/>
      <point x="157" y="591" type="line"/>
      <point x="159" y="591" type="line"/>
      <point x="277" y="591"/>
      <point x="343" y="670"/>
      <point x="343" y="815" type="curve" smooth="yes"/>
      <point x="343" y="1015" type="line" smooth="yes"/>
      <point x="343" y="1147"/>
      <point x="289" y="1210"/>
      <point x="190" y="1210" type="curve" smooth="yes"/>
      <point x="140" y="1210"/>
      <point x="102" y="1193"/>
      <point x="76" y="1171" type="curve"/>
      <point x="70" y="1130" type="line"/>
      <point x="105" y="1156"/>
      <point x="139" y="1175"/>
      <point x="190" y="1175" type="curve" smooth="yes"/>
      <point x="266" y="1175"/>
      <point x="306" y="1127"/>
      <point x="306" y="1013" type="curve" smooth="yes"/>
      <point x="306" y="821" type="line" smooth="yes"/>
      <point x="306" y="686"/>
      <point x="253" y="624"/>
      <point x="133" y="624" type="curve" smooth="yes"/>
      <point x="48" y="624" type="line"/>
      <point x="48" y="594" type="line"/>
    </contour>
  </outline>
</glyph>
<glyph name="Cha.gj" format="2">
  <advance width="845"/>
  <unicode hex="0A9B"/>
  <anchor x="410" y="-66" name="Bottom"/>
  <anchor x="604" y="1273" name="Top"/>
  <anchor x="584" y="1273" name="Top2"/>
  <outline>
    <contour>
      <point x="410" y="-12" type="curve" smooth="yes"/>
      <point x="620" y="-12"/>
      <point x="721" y="111"/>
      <point x="721" y="365" type="curve" smooth="yes"/>
      <point x="721" y="574" type="line"/>
      <point x="684" y="574" type="line"/>
      <point x="684" y="365" type="line" smooth="yes"/>
      <point x="684" y="133"/>
      <point x="596" y="23"/>
      <point x="410" y="23" type="curve" smooth="yes"/>
      <point x="234" y="23"/>
      <point x="147" y="123"/>
      <point x="147" y="329" type="curve" smooth="yes"/>
      <point x="147" y="394" type="line" smooth="yes"/>
      <point x="147" y="548"/>
      <point x="201" y="607"/>
      <point x="310" y="613" type="curve" smooth="yes"/>
      <point x="346" y="615" type="line"/>
      <point x="346" y="646" type="line"/>
      <point x="310" y="648" type="line" smooth="yes"/>
      <point x="210" y="654"/>
      <point x="160" y="707"/>
      <point x="160" y="852" type="curve" smooth="yes"/>
      <point x="160" y="978" type="line" smooth="yes"/>
      <point x="160" y="1116"/>
      <point x="200" y="1175"/>
      <point x="288" y="1175" type="curve" smooth="yes"/>
      <point x="317" y="1175"/>
      <point x="350" y="1165"/>
      <point x="373" y="1149" type="curve"/>
      <point x="368" y="1186" type="line"/>
      <point x="346" y="1202"/>
      <point x="315" y="1210"/>
      <point x="288" y="1210" type="curve" smooth="yes"/>
      <point x="175" y="1210"/>
      <point x="123" y="1140"/>
      <point x="123" y="982" type="curve" smooth="yes"/>
      <point x="123" y="852" type="line" smooth="yes"/>
      <point x="123" y="716"/>
      <point x="168" y="648"/>
      <point x="255" y="631" type="curve"/>
      <point x="255" y="629" type="line"/>
      <point x="158" y="613"/>
      <point x="110" y="539"/>
      <point x="110" y="394" type="curve" smooth="yes"/>
      <point x="110" y="329" type="line" smooth="yes"/>
      <point x="110" y="101"/>
      <point x="209" y="-12"/>
    </contour>
    <contour>
      <point x="578" y="445" type="curve" smooth="yes"/>
      <point x="640" y="445"/>
      <point x="674" y="485"/>
      <point x="688" y="542" type="curve"/>
      <point x="692" y="542" type="line"/>
      <point x="686" y="597" type="line"/>
      <point x="668" y="520"/>
      <point x="636" y="480"/>
      <point x="578" y="480" type="curve" smooth="yes"/>
      <point x="516" y="480"/>
      <point x="484" y="526"/>
      <point x="484" y="623" type="curve" smooth="yes"/>
      <point x="484" y="1013" type="line" smooth="yes"/>
      <point x="484" y="1129"/>
      <point x="516" y="1175"/>
      <point x="584" y="1175" type="curve" smooth="yes"/>
      <point x="652" y="1175"/>
      <point x="684" y="1129"/>
      <point x="684" y="1013" type="curve" smooth="yes"/>
      <point x="684" y="567" type="line"/>
      <point x="721" y="567" type="line"/>
      <point x="721" y="1015" type="line" smooth="yes"/>
      <point x="721" y="1143"/>
      <point x="680" y="1210"/>
      <point x="584" y="1210" type="curve" smooth="yes"/>
      <point x="488" y="1210"/>
      <point x="447" y="1143"/>
      <point x="447" y="1015" type="curve" smooth="yes"/>
      <point x="447" y="623" type="line" smooth="yes"/>
      <point x="447" y="502"/>
      <point x="491" y="445"/>
    </contour>
  </outline>
</glyph>
<glyph name="Ja.gj" format="2">
  <advance width="789"/>
  <unicode hex="0A9C"/>
  <anchor x="504" y="-66" name="Bottom"/>
  <anchor x="722" y="1273" name="Top"/>
  <anchor x="742" y="1273" name="Top2"/>
  <outline>
    <contour>
      <point x="518" y="738" type="line"/>
      <point x="762" y="1192" type="line"/>
      <point x="762" y="1196" type="line"/>
      <point x="722" y="1196" type="line"/>
      <point x="498" y="776" type="line"/>
    </contour>
    <contour>
      <point x="162" y="464" type="line"/>
      <point x="162" y="1062" type="line" smooth="yes"/>
      <point x="162" y="1140"/>
      <point x="185" y="1175"/>
      <point x="233" y="1175" type="curve" smooth="yes"/>
      <point x="281" y="1175"/>
      <point x="303" y="1150"/>
      <point x="349" y="1053" type="curve" smooth="yes"/>
      <point x="504" y="723" type="line"/>
      <point x="533" y="747" type="line"/>
      <point x="384" y="1066" type="line" smooth="yes"/>
      <point x="336" y="1168"/>
      <point x="301" y="1210"/>
      <point x="233" y="1210" type="curve" smooth="yes"/>
      <point x="160" y="1210"/>
      <point x="125" y="1160"/>
      <point x="125" y="1062" type="curve" smooth="yes"/>
      <point x="125" y="482" type="line"/>
    </contour>
    <contour>
      <point x="504" y="-12" type="curve" smooth="yes"/>
      <point x="622" y="-12"/>
      <point x="681" y="62"/>
      <point x="681" y="216" type="curve" smooth="yes"/>
      <point x="681" y="304" type="line" smooth="yes"/>
      <point x="681" y="420"/>
      <point x="653" y="501"/>
      <point x="599" y="615" type="curve" smooth="yes"/>
      <point x="526" y="769" type="line"/>
      <point x="500" y="734" type="line"/>
      <point x="570" y="589" type="line" smooth="yes"/>
      <point x="621" y="484"/>
      <point x="644" y="421"/>
      <point x="644" y="304" type="curve" smooth="yes"/>
      <point x="644" y="216" type="line" smooth="yes"/>
      <point x="644" y="84"/>
      <point x="599" y="23"/>
      <point x="504" y="23" type="curve" smooth="yes"/>
      <point x="408" y="23"/>
      <point x="364" y="84"/>
      <point x="364" y="216" type="curve" smooth="yes"/>
      <point x="364" y="304" type="line" smooth="yes"/>
      <point x="364" y="418"/>
      <point x="385" y="480"/>
      <point x="437" y="581" type="curve" smooth="yes"/>
      <point x="517" y="736" type="line"/>
      <point x="496" y="775" type="line"/>
      <point x="410" y="607" type="line" smooth="yes"/>
      <point x="353" y="495"/>
      <point x="327" y="420"/>
      <point x="327" y="304" type="curve" smooth="yes"/>
      <point x="327" y="216" type="line" smooth="yes"/>
      <point x="327" y="62"/>
      <point x="386" y="-12"/>
    </contour>
  </outline>
</glyph>
<glyph name="Jha.gj" format="2">
  <advance width="799"/>
  <unicode hex="0A9D"/>
  <anchor x="533" y="-66" name="Bottom"/>
  <anchor x="665" y="1273" name="Top"/>
  <anchor x="684" y="1273" name="Top2"/>
  <outline>
    <contour>
      <point x="213" y="173" type="curve" smooth="yes"/>
      <point x="331" y="173"/>
      <point x="397" y="247"/>
      <point x="397" y="407" type="curve" smooth="yes"/>
      <point x="397" y="987" type="line" smooth="yes"/>
      <point x="397" y="1138"/>
      <point x="338" y="1210"/>
      <point x="227" y="1210" type="curve" smooth="yes"/>
      <point x="165" y="1210"/>
      <point x="121" y="1191"/>
      <point x="88" y="1164" type="curve"/>
      <point x="82" y="1123" type="line"/>
      <point x="122" y="1154"/>
      <point x="165" y="1175"/>
      <point x="227" y="1175" type="curve" smooth="yes"/>
      <point x="314" y="1175"/>
      <point x="360" y="1119"/>
      <point x="360" y="985" type="curve" smooth="yes"/>
      <point x="360" y="408" type="line" smooth="yes"/>
      <point x="360" y="265"/>
      <point x="309" y="208"/>
      <point x="213" y="208" type="curve" smooth="yes"/>
      <point x="151" y="208"/>
      <point x="102" y="233"/>
      <point x="58" y="270" type="curve"/>
      <point x="64" y="225" type="line"/>
      <point x="99" y="195"/>
      <point x="151" y="173"/>
    </contour>
    <contour>
      <point x="535" y="-12" type="curve" smooth="yes"/>
      <point x="638" y="-12"/>
      <point x="693" y="54"/>
      <point x="693" y="194" type="curve" smooth="yes"/>
      <point x="693" y="439" type="line" smooth="yes"/>
      <point x="693" y="607"/>
      <point x="623" y="684"/>
      <point x="470" y="684" type="curve"/>
      <point x="457" y="684" type="line"/>
      <point x="375" y="684" type="line"/>
      <point x="375" y="651" type="line"/>
      <point x="468" y="651" type="line" smooth="yes"/>
      <point x="597" y="651"/>
      <point x="656" y="585"/>
      <point x="656" y="432" type="curve" smooth="yes"/>
      <point x="656" y="196" type="line" smooth="yes"/>
      <point x="656" y="74"/>
      <point x="614" y="23"/>
      <point x="533" y="23" type="curve" smooth="yes"/>
      <point x="490" y="23"/>
      <point x="450" y="36"/>
      <point x="415" y="54" type="curve"/>
      <point x="421" y="18" type="line"/>
      <point x="444" y="5"/>
      <point x="479" y="-12"/>
    </contour>
    <contour>
      <point x="470" y="662" type="line"/>
      <point x="499" y="719"/>
      <point x="532" y="787"/>
      <point x="557" y="846" type="curve" smooth="yes"/>
      <point x="704" y="1192" type="line"/>
      <point x="704" y="1196" type="line"/>
      <point x="665" y="1196" type="line"/>
      <point x="442" y="668" type="line"/>
    </contour>
  </outline>
</glyph>
<glyph name="Nya.gj" format="2">
  <advance width="771"/>
  <unicode hex="0A9E"/>
  <anchor x="607" y="-65" name="Bottom"/>
  <anchor x="596" y="1274" name="Top"/>
  <anchor x="614" y="1274" name="Top2"/>
  <outline>
    <contour>
      <point x="193" y="239" type="curve" smooth="yes"/>
      <point x="308" y="239"/>
      <point x="368" y="309"/>
      <point x="368" y="463" type="curve" smooth="yes"/>
      <point x="368" y="955" type="line" smooth="yes"/>
      <point x="368" y="1100"/>
      <point x="311" y="1169"/>
      <point x="203" y="1169" type="curve" smooth="yes"/>
      <point x="147" y="1169"/>
      <point x="107" y="1152"/>
      <point x="78" y="1130" type="curve"/>
      <point x="72" y="1089" type="line"/>
      <point x="109" y="1115"/>
      <point x="146" y="1134"/>
      <point x="203" y="1134" type="curve" smooth="yes"/>
      <point x="287" y="1134"/>
      <point x="331" y="1080"/>
      <point x="331" y="953" type="curve" smooth="yes"/>
      <point x="331" y="465" type="line" smooth="yes"/>
      <point x="331" y="329"/>
      <point x="284" y="274"/>
      <point x="193" y="274" type="curve" smooth="yes"/>
      <point x="135" y="274"/>
      <point x="89" y="296"/>
      <point x="48" y="331" type="curve"/>
      <point x="54" y="290" type="line"/>
      <point x="85" y="261"/>
      <point x="135" y="239"/>
    </contour>
    <contour>
      <point x="343" y="685" type="line"/>
      <point x="624" y="685" type="line"/>
      <point x="618" y="718" type="line"/>
      <point x="343" y="718" type="line"/>
    </contour>
    <contour>
      <point x="596" y="540" type="line"/>
      <point x="633" y="540" type="line"/>
      <point x="633" y="1197" type="line"/>
      <point x="596" y="1197" type="line"/>
    </contour>
    <contour>
      <point x="596" y="1" type="line"/>
      <point x="633" y="1" type="line"/>
      <point x="633" y="748" type="line"/>
      <point x="596" y="748" type="line"/>
    </contour>
  </outline>
</glyph>
<glyph name="Tta.gj" format="2">
  <advance width="554"/>
  <unicode hex="0A9F"/>
  <anchor x="310" y="-66" name="Bottom"/>
  <anchor x="370" y="1273" name="Top"/>
  <anchor x="288" y="1273" name="Top2"/>
  <outline>
    <contour>
      <point x="309" y="-12" type="curve" smooth="yes"/>
      <point x="389" y="-12"/>
      <point x="446" y="23"/>
      <point x="477" y="58" type="curve"/>
      <point x="482" y="109" type="line"/>
      <point x="435" y="51"/>
      <point x="375" y="23"/>
      <point x="310" y="23" type="curve" smooth="yes"/>
      <point x="190" y="23"/>
      <point x="125" y="91"/>
      <point x="125" y="260" type="curve" smooth="yes"/>
      <point x="125" y="377" type="line" smooth="yes"/>
      <point x="125" y="517"/>
      <point x="167" y="577"/>
      <point x="280" y="666" type="curve" smooth="yes"/>
      <point x="304" y="685" type="line" smooth="yes"/>
      <point x="418" y="775"/>
      <point x="447" y="839"/>
      <point x="447" y="949" type="curve" smooth="yes"/>
      <point x="447" y="992" type="line" smooth="yes"/>
      <point x="447" y="1140"/>
      <point x="383" y="1210"/>
      <point x="262" y="1210" type="curve" smooth="yes"/>
      <point x="200" y="1210"/>
      <point x="155" y="1188"/>
      <point x="124" y="1161" type="curve"/>
      <point x="120" y="1120" type="line"/>
      <point x="159" y="1151"/>
      <point x="201" y="1175"/>
      <point x="260" y="1175" type="curve" smooth="yes"/>
      <point x="359" y="1175"/>
      <point x="410" y="1119"/>
      <point x="410" y="991" type="curve" smooth="yes"/>
      <point x="410" y="953" type="line" smooth="yes"/>
      <point x="410" y="850"/>
      <point x="389" y="796"/>
      <point x="279" y="713" type="curve" smooth="yes"/>
      <point x="254" y="694" type="line" smooth="yes"/>
      <point x="134" y="603"/>
      <point x="88" y="534"/>
      <point x="88" y="377" type="curve" smooth="yes"/>
      <point x="88" y="258" type="line" smooth="yes"/>
      <point x="88" y="73"/>
      <point x="162" y="-12"/>
    </contour>
  </outline>
</glyph>
<glyph name="Ttha.gj" format="2">
  <advance width="636"/>
  <unicode hex="0AA0"/>
  <anchor x="323" y="-66" name="Bottom"/>
  <anchor x="412" y="1273" name="Top"/>
  <anchor x="331" y="1273" name="Top2"/>
  <outline>
    <contour>
      <point x="323" y="-12" type="curve" smooth="yes"/>
      <point x="470" y="-12"/>
      <point x="544" y="73"/>
      <point x="544" y="257" type="curve" smooth="yes"/>
      <point x="544" y="466" type="line" smooth="yes"/>
      <point x="544" y="622"/>
      <point x="506" y="686"/>
      <point x="374" y="759" type="curve" smooth="yes"/>
      <point x="338" y="779" type="line" smooth="yes"/>
      <point x="223" y="843"/>
      <point x="190" y="895"/>
      <point x="190" y="987" type="curve" smooth="yes"/>
      <point x="190" y="1005" type="line" smooth="yes"/>
      <point x="190" y="1128"/>
      <point x="246" y="1175"/>
      <point x="347" y="1175" type="curve" smooth="yes"/>
      <point x="407" y="1175"/>
      <point x="452" y="1153"/>
      <point x="492" y="1119" type="curve"/>
      <point x="487" y="1162" type="line"/>
      <point x="455" y="1188"/>
      <point x="406" y="1210"/>
      <point x="347" y="1210" type="curve" smooth="yes"/>
      <point x="221" y="1210"/>
      <point x="153" y="1147"/>
      <point x="153" y="1007" type="curve" smooth="yes"/>
      <point x="153" y="987" type="line" smooth="yes"/>
      <point x="153" y="882"/>
      <point x="193" y="828"/>
      <point x="283" y="773" type="curve"/>
      <point x="291" y="765" type="line"/>
      <point x="300" y="760"/>
      <point x="313" y="753"/>
      <point x="320" y="749" type="curve" smooth="yes"/>
      <point x="356" y="729" type="line" smooth="yes"/>
      <point x="475" y="663"/>
      <point x="507" y="605"/>
      <point x="507" y="463" type="curve" smooth="yes"/>
      <point x="507" y="258" type="line" smooth="yes"/>
      <point x="507" y="91"/>
      <point x="442" y="23"/>
      <point x="323" y="23" type="curve" smooth="yes"/>
      <point x="203" y="23"/>
      <point x="139" y="91"/>
      <point x="139" y="258" type="curve" smooth="yes"/>
      <point x="139" y="343" type="line"/>
      <point x="102" y="343" type="line"/>
      <point x="102" y="257" type="line" smooth="yes"/>
      <point x="102" y="73"/>
      <point x="176" y="-12"/>
    </contour>
    <contour>
      <point x="102" y="312" type="line"/>
      <point x="139" y="312" type="line"/>
      <point x="139" y="453" type="line" smooth="yes"/>
      <point x="139" y="636"/>
      <point x="186" y="688"/>
      <point x="311" y="767" type="curve"/>
      <point x="285" y="787" type="line"/>
      <point x="158" y="709"/>
      <point x="102" y="647"/>
      <point x="102" y="457" type="curve" smooth="yes"/>
    </contour>
  </outline>
</glyph>
<glyph name="Dda.gj" format="2">
  <advance width="550"/>
  <unicode hex="0AA1"/>
  <anchor x="280" y="-66" name="Bottom"/>
  <anchor x="350" y="1273" name="Top"/>
  <anchor x="284" y="1273" name="Top2"/>
  <outline>
    <contour>
      <point x="256" y="-12" type="curve" smooth="yes"/>
      <point x="394" y="-12"/>
      <point x="462" y="73"/>
      <point x="462" y="258" type="curve" smooth="yes"/>
      <point x="462" y="356" type="line" smooth="yes"/>
      <point x="462" y="511"/>
      <point x="427" y="568"/>
      <point x="306" y="646" type="curve" smooth="yes"/>
      <point x="278" y="664" type="line" smooth="yes"/>
      <point x="148" y="747"/>
      <point x="128" y="801"/>
      <point x="128" y="914" type="curve" smooth="yes"/>
      <point x="128" y="967" type="line" smooth="yes"/>
      <point x="128" y="1114"/>
      <point x="183" y="1175"/>
      <point x="290" y="1175" type="curve" smooth="yes"/>
      <point x="354" y="1175"/>
      <point x="401" y="1153"/>
      <point x="445" y="1119" type="curve"/>
      <point x="439" y="1160" type="line"/>
      <point x="406" y="1187"/>
      <point x="352" y="1210"/>
      <point x="290" y="1210" type="curve" smooth="yes"/>
      <point x="160" y="1210"/>
      <point x="91" y="1132"/>
      <point x="91" y="969" type="curve" smooth="yes"/>
      <point x="91" y="911" type="line" smooth="yes"/>
      <point x="91" y="790"/>
      <point x="121" y="720"/>
      <point x="257" y="634" type="curve" smooth="yes"/>
      <point x="284" y="617" type="line" smooth="yes"/>
      <point x="398" y="545"/>
      <point x="425" y="493"/>
      <point x="425" y="352" type="curve" smooth="yes"/>
      <point x="425" y="260" type="line" smooth="yes"/>
      <point x="425" y="91"/>
      <point x="366" y="23"/>
      <point x="254" y="23" type="curve" smooth="yes"/>
      <point x="186" y="23"/>
      <point x="121" y="51"/>
      <point x="68" y="109" type="curve"/>
      <point x="75" y="58" type="line"/>
      <point x="112" y="21"/>
      <point x="169" y="-12"/>
    </contour>
  </outline>
</glyph>
<glyph name="Ddha.gj" format="2">
  <advance width="680"/>
  <unicode hex="0AA2"/>
  <anchor x="353" y="-66" name="Bottom"/>
  <anchor x="438" y="1273" name="Top"/>
  <anchor x="340" y="1273" name="Top2"/>
  <outline>
    <contour>
      <point x="345" y="-12" type="curve" smooth="yes"/>
      <point x="507" y="-12"/>
      <point x="588" y="76"/>
      <point x="588" y="266" type="curve" smooth="yes"/>
      <point x="588" y="454" type="line" smooth="yes"/>
      <point x="588" y="562"/>
      <point x="545" y="616"/>
      <point x="459" y="616" type="curve" smooth="yes"/>
      <point x="372" y="616"/>
      <point x="330" y="562"/>
      <point x="330" y="454" type="curve" smooth="yes"/>
      <point x="330" y="258" type="line" smooth="yes"/>
      <point x="330" y="113"/>
      <point x="374" y="65"/>
      <point x="441" y="25" type="curve"/>
      <point x="442" y="21" type="line"/>
      <point x="472" y="32" type="line"/>
      <point x="400" y="80"/>
      <point x="367" y="120"/>
      <point x="367" y="262" type="curve" smooth="yes"/>
      <point x="367" y="454" type="line" smooth="yes"/>
      <point x="367" y="542"/>
      <point x="396" y="581"/>
      <point x="459" y="581" type="curve" smooth="yes"/>
      <point x="521" y="581"/>
      <point x="551" y="542"/>
      <point x="551" y="454" type="curve" smooth="yes"/>
      <point x="551" y="268" type="line" smooth="yes"/>
      <point x="551" y="148"/>
      <point x="518" y="73"/>
      <point x="446" y="39" type="curve"/>
      <point x="437" y="38" type="line"/>
      <point x="411" y="27"/>
      <point x="380" y="23"/>
      <point x="345" y="23" type="curve" smooth="yes"/>
      <point x="209" y="23"/>
      <point x="139" y="98"/>
      <point x="139" y="268" type="curve" smooth="yes"/>
      <point x="139" y="475" type="line" smooth="yes"/>
      <point x="139" y="657"/>
      <point x="195" y="721"/>
      <point x="321" y="794" type="curve" smooth="yes"/>
      <point x="352" y="812" type="line" smooth="yes"/>
      <point x="487" y="890"/>
      <point x="515" y="938"/>
      <point x="515" y="1024" type="curve" smooth="yes"/>
      <point x="515" y="1032" type="line" smooth="yes"/>
      <point x="515" y="1153"/>
      <point x="450" y="1210"/>
      <point x="326" y="1210" type="curve" smooth="yes"/>
      <point x="257" y="1210"/>
      <point x="206" y="1188"/>
      <point x="172" y="1161" type="curve"/>
      <point x="168" y="1120" type="line"/>
      <point x="212" y="1151"/>
      <point x="258" y="1175"/>
      <point x="324" y="1175" type="curve" smooth="yes"/>
      <point x="426" y="1175"/>
      <point x="478" y="1131"/>
      <point x="478" y="1031" type="curve" smooth="yes"/>
      <point x="478" y="1026" type="line" smooth="yes"/>
      <point x="478" y="949"/>
      <point x="458" y="917"/>
      <point x="331" y="843" type="curve" smooth="yes"/>
      <point x="300" y="825" type="line" smooth="yes"/>
      <point x="168" y="748"/>
      <point x="102" y="677"/>
      <point x="102" y="477" type="curve" smooth="yes"/>
      <point x="102" y="266" type="line" smooth="yes"/>
      <point x="102" y="80"/>
      <point x="181" y="-12"/>
    </contour>
  </outline>
</glyph>
<glyph name="Nna.gj" format="2">
  <advance width="976"/>
  <unicode hex="0AA3"/>
  <anchor x="812" y="-66" name="Bottom"/>
  <anchor x="801" y="1273" name="Top"/>
  <anchor x="819" y="1273" name="Top2"/>
  <outline>
    <contour>
      <point x="801" y="539" type="line"/>
      <point x="838" y="539" type="line"/>
      <point x="838" y="1196" type="line"/>
      <point x="801" y="1196" type="line"/>
    </contour>
    <contour>
      <point x="801" y="0" type="line"/>
      <point x="838" y="0" type="line"/>
      <point x="838" y="747" type="line"/>
      <point x="801" y="747" type="line"/>
    </contour>
    <contour>
      <point x="402" y="366" type="curve" smooth="yes"/>
      <point x="515" y="366"/>
      <point x="575" y="436"/>
      <point x="575" y="591" type="curve" smooth="yes"/>
      <point x="575" y="996" type="line" smooth="yes"/>
      <point x="575" y="1141"/>
      <point x="518" y="1210"/>
      <point x="410" y="1210" type="curve" smooth="yes"/>
      <point x="373" y="1210"/>
      <point x="344" y="1198"/>
      <point x="321" y="1182" type="curve"/>
      <point x="315" y="1141" type="line"/>
      <point x="342" y="1161"/>
      <point x="369" y="1175"/>
      <point x="410" y="1175" type="curve" smooth="yes"/>
      <point x="494" y="1175"/>
      <point x="538" y="1121"/>
      <point x="538" y="994" type="curve" smooth="yes"/>
      <point x="538" y="592" type="line" smooth="yes"/>
      <point x="538" y="456"/>
      <point x="491" y="401"/>
      <point x="400" y="401" type="curve" smooth="yes"/>
      <point x="364" y="401"/>
      <point x="326" y="416"/>
      <point x="297" y="442" type="curve"/>
      <point x="303" y="397" type="line"/>
      <point x="326" y="379"/>
      <point x="360" y="366"/>
    </contour>
    <contour>
      <point x="398" y="-12" type="curve" smooth="yes"/>
      <point x="455" y="-12"/>
      <point x="514" y="-1"/>
      <point x="569" y="27" type="curve"/>
      <point x="574" y="65" type="line"/>
      <point x="516" y="36"/>
      <point x="457" y="23"/>
      <point x="398" y="23" type="curve" smooth="yes"/>
      <point x="235" y="23"/>
      <point x="161" y="120"/>
      <point x="161" y="343" type="curve" smooth="yes"/>
      <point x="161" y="1196" type="line"/>
      <point x="124" y="1196" type="line"/>
      <point x="124" y="345" type="line" smooth="yes"/>
      <point x="124" y="98"/>
      <point x="208" y="-12"/>
    </contour>
  </outline>
</glyph>
<glyph name="Ta.gj" format="2">
  <advance width="666"/>
  <unicode hex="0AA4"/>
  <anchor x="502" y="-66" name="Bottom"/>
  <anchor x="491" y="1273" name="Top"/>
  <anchor x="509" y="1273" name="Top2"/>
  <outline>
    <contour>
      <point x="491" y="539" type="line"/>
      <point x="528" y="539" type="line"/>
      <point x="528" y="1196" type="line"/>
      <point x="491" y="1196" type="line"/>
    </contour>
    <contour>
      <point x="491" y="0" type="line"/>
      <point x="528" y="0" type="line"/>
      <point x="528" y="747" type="line"/>
      <point x="491" y="747" type="line"/>
    </contour>
    <contour>
      <point x="188" y="0" type="curve"/>
      <point x="226" y="0" type="line"/>
      <point x="177" y="191"/>
      <point x="134" y="460"/>
      <point x="134" y="615" type="curve" smooth="yes"/>
      <point x="134" y="793"/>
      <point x="199" y="857"/>
      <point x="331" y="857" type="curve" smooth="yes"/>
      <point x="511" y="857" type="line"/>
      <point x="511" y="890" type="line"/>
      <point x="326" y="890" type="line" smooth="yes"/>
      <point x="173" y="890"/>
      <point x="96" y="810"/>
      <point x="96" y="615" type="curve" smooth="yes"/>
      <point x="96" y="460"/>
      <point x="140" y="190"/>
    </contour>
  </outline>
</glyph>
<glyph name="Tha.gj" format="2">
  <advance width="775"/>
  <unicode hex="0AA5"/>
  <guideline x="458" y="3224" angle="90"/>
  <guideline x="637" y="-85" angle="90"/>
  <guideline x="611" y="-85" angle="90"/>
  <guideline x="600" y="-85" angle="90"/>
  <guideline x="637" y="1468" angle="90"/>
  <guideline x="600" y="1468" angle="90"/>
  <guideline x="618" y="1468" angle="90"/>
  <guideline x="264" y="160" angle="0"/>
  <guideline x="264" y="180" angle="0"/>
  <anchor x="611" y="-66" name="Bottom"/>
  <anchor x="600" y="1273" name="Top"/>
  <anchor x="618" y="1273" name="Top2"/>
  <outline>
    <contour>
      <point x="368" y="160" type="curve" smooth="yes"/>
      <point x="506" y="160"/>
      <point x="582" y="232"/>
      <point x="606" y="338" type="curve"/>
      <point x="610" y="338" type="line"/>
      <point x="604" y="405" type="line"/>
      <point x="573" y="261"/>
      <point x="499" y="195"/>
      <point x="368" y="195" type="curve" smooth="yes"/>
      <point x="210" y="195"/>
      <point x="129" y="287"/>
      <point x="129" y="484" type="curve" smooth="yes"/>
      <point x="129" y="519"/>
      <point x="129" y="556"/>
      <point x="129" y="591" type="curve"/>
      <point x="104" y="571" type="line"/>
      <point x="179" y="571" type="line" smooth="yes"/>
      <point x="332" y="571"/>
      <point x="407" y="654"/>
      <point x="407" y="822" type="curve" smooth="yes"/>
      <point x="407" y="1003" type="line" smooth="yes"/>
      <point x="407" y="1143"/>
      <point x="359" y="1210"/>
      <point x="253" y="1210" type="curve" smooth="yes"/>
      <point x="146" y="1210"/>
      <point x="98" y="1143"/>
      <point x="98" y="1003" type="curve" smooth="yes"/>
      <point x="98" y="928"/>
      <point x="98" y="848"/>
      <point x="102" y="762" type="curve"/>
      <point x="135" y="762" type="line"/>
      <point x="135" y="843"/>
      <point x="135" y="921"/>
      <point x="135" y="1002" type="curve" smooth="yes"/>
      <point x="135" y="1125"/>
      <point x="172" y="1175"/>
      <point x="253" y="1175" type="curve" smooth="yes"/>
      <point x="334" y="1175"/>
      <point x="370" y="1125"/>
      <point x="370" y="1002" type="curve" smooth="yes"/>
      <point x="370" y="828" type="line" smooth="yes"/>
      <point x="370" y="675"/>
      <point x="310" y="605"/>
      <point x="173" y="605" type="curve" smooth="yes"/>
      <point x="92" y="605" type="line"/>
      <point x="92" y="583"/>
      <point x="92" y="539"/>
      <point x="92" y="484" type="curve" smooth="yes"/>
      <point x="92" y="267"/>
      <point x="186" y="160"/>
    </contour>
    <contour>
      <point x="600" y="539" type="line"/>
      <point x="637" y="539" type="line"/>
      <point x="637" y="1196" type="line"/>
      <point x="600" y="1196" type="line"/>
    </contour>
    <contour>
      <point x="600" y="0" type="line"/>
      <point x="637" y="0" type="line"/>
      <point x="637" y="747" type="line"/>
      <point x="600" y="747" type="line"/>
    </contour>
  </outline>
</glyph>
<glyph name="Dha.gj" format="2">
  <advance width="683"/>
  <unicode hex="0AA7"/>
  <anchor x="519" y="-66" name="Bottom"/>
  <anchor x="508" y="1273" name="Top"/>
  <anchor x="526" y="1273" name="Top2"/>
  <outline>
    <contour>
      <point x="312" y="134" type="curve" smooth="yes"/>
      <point x="423" y="134"/>
      <point x="494" y="194"/>
      <point x="514" y="281" type="curve"/>
      <point x="517" y="281" type="line"/>
      <point x="512" y="346" type="line"/>
      <point x="489" y="219"/>
      <point x="412" y="169"/>
      <point x="314" y="169" type="curve" smooth="yes"/>
      <point x="196" y="169"/>
      <point x="133" y="245"/>
      <point x="133" y="403" type="curve" smooth="yes"/>
      <point x="133" y="456" type="line" smooth="yes"/>
      <point x="133" y="611"/>
      <point x="192" y="670"/>
      <point x="312" y="675" type="curve" smooth="yes"/>
      <point x="363" y="677" type="line"/>
      <point x="363" y="708" type="line"/>
      <point x="312" y="710" type="line" smooth="yes"/>
      <point x="201" y="714"/>
      <point x="146" y="769"/>
      <point x="146" y="914" type="curve" smooth="yes"/>
      <point x="146" y="926" type="line" smooth="yes"/>
      <point x="146" y="1032"/>
      <point x="174" y="1167"/>
      <point x="201" y="1281" type="curve"/>
      <point x="201" y="1282" type="line"/>
      <point x="165" y="1282" type="line"/>
      <point x="137" y="1168"/>
      <point x="109" y="1034"/>
      <point x="109" y="926" type="curve" smooth="yes"/>
      <point x="109" y="914" type="line" smooth="yes"/>
      <point x="109" y="778"/>
      <point x="155" y="710"/>
      <point x="244" y="694" type="curve"/>
      <point x="244" y="692" type="line"/>
      <point x="146" y="675"/>
      <point x="96" y="602"/>
      <point x="96" y="456" type="curve" smooth="yes"/>
      <point x="96" y="403" type="line" smooth="yes"/>
      <point x="96" y="223"/>
      <point x="172" y="134"/>
    </contour>
    <contour>
      <point x="508" y="539" type="line"/>
      <point x="545" y="539" type="line"/>
      <point x="545" y="1196" type="line"/>
      <point x="508" y="1196" type="line"/>
    </contour>
    <contour>
      <point x="508" y="0" type="line"/>
      <point x="545" y="0" type="line"/>
      <point x="545" y="747" type="line"/>
      <point x="508" y="747" type="line"/>
    </contour>
  </outline>
</glyph>
<glyph name="Na.gj" format="2">
  <advance width="616"/>
  <unicode hex="0AA8"/>
  <anchor x="452" y="-66" name="Bottom"/>
  <anchor x="441" y="1273" name="Top"/>
  <anchor x="459" y="1273" name="Top2"/>
  <outline>
    <contour>
      <point x="441" y="539" type="line"/>
      <point x="478" y="539" type="line"/>
      <point x="478" y="1196" type="line"/>
      <point x="441" y="1196" type="line"/>
    </contour>
    <contour>
      <point x="441" y="0" type="line"/>
      <point x="478" y="0" type="line"/>
      <point x="478" y="747" type="line"/>
      <point x="441" y="747" type="line"/>
    </contour>
    <contour>
      <point x="129" y="278" type="curve"/>
      <point x="166" y="278" type="line"/>
      <point x="166" y="804" type="line"/>
      <point x="114" y="804" type="line"/>
      <point x="79" y="773" type="line"/>
      <point x="98" y="578"/>
      <point x="109" y="471"/>
    </contour>
    <contour>
      <point x="130" y="771" type="line"/>
      <point x="472" y="771" type="line"/>
      <point x="465" y="804" type="line"/>
      <point x="130" y="804" type="line"/>
    </contour>
  </outline>
</glyph>
<glyph name="Pha.gj" format="2">
  <advance width="602"/>
  <unicode hex="0AAB"/>
  <anchor x="337" y="-340" name="Bottom"/>
  <anchor x="379" y="1273" name="Top"/>
  <anchor x="300" y="1273" name="Top2"/>
  <outline>
    <contour>
      <point x="276" y="-7" type="curve" smooth="yes"/>
      <point x="414" y="-7"/>
      <point x="482" y="78"/>
      <point x="482" y="263" type="curve" smooth="yes"/>
      <point x="482" y="397" type="line" smooth="yes"/>
      <point x="482" y="547"/>
      <point x="408" y="619"/>
      <point x="318" y="644" type="curve"/>
      <point x="270" y="627" type="line"/>
      <point x="394" y="596"/>
      <point x="445" y="526"/>
      <point x="445" y="392" type="curve" smooth="yes"/>
      <point x="445" y="265" type="line" smooth="yes"/>
      <point x="445" y="96"/>
      <point x="386" y="28"/>
      <point x="274" y="28" type="curve" smooth="yes"/>
      <point x="208" y="28"/>
      <point x="142" y="54"/>
      <point x="90" y="111" type="curve"/>
      <point x="97" y="59" type="line"/>
      <point x="134" y="24"/>
      <point x="191" y="-7"/>
    </contour>
    <contour>
      <point x="276" y="626" type="curve"/>
      <point x="321" y="643" type="line"/>
      <point x="212" y="671"/>
      <point x="147" y="731"/>
      <point x="147" y="877" type="curve" smooth="yes"/>
      <point x="147" y="967" type="line" smooth="yes"/>
      <point x="147" y="1114"/>
      <point x="201" y="1175"/>
      <point x="300" y="1175" type="curve" smooth="yes"/>
      <point x="361" y="1175"/>
      <point x="405" y="1153"/>
      <point x="445" y="1119" type="curve"/>
      <point x="440" y="1160" type="line"/>
      <point x="408" y="1187"/>
      <point x="359" y="1210"/>
      <point x="300" y="1210" type="curve" smooth="yes"/>
      <point x="177" y="1210"/>
      <point x="110" y="1132"/>
      <point x="110" y="969" type="curve" smooth="yes"/>
      <point x="110" y="875" type="line" smooth="yes"/>
      <point x="110" y="708"/>
      <point x="186" y="656"/>
    </contour>
    <contour>
      <point x="72" y="507" type="line"/>
      <point x="334" y="638" type="line"/>
      <point x="285" y="649" type="line"/>
      <point x="72" y="545" type="line"/>
    </contour>
    <contour>
      <point x="319" y="-274" type="line"/>
      <point x="358" y="-274" type="line"/>
      <point x="358" y="-272" type="line"/>
      <point x="261" y="-101" type="line" smooth="yes"/>
      <point x="229" y="-44"/>
      <point x="218" y="-16"/>
      <point x="186" y="30" type="curve"/>
      <point x="146" y="37" type="line"/>
    </contour>
    <contour>
      <point x="276" y="645" type="line"/>
      <point x="312" y="627" type="line"/>
      <point x="540" y="740" type="line"/>
      <point x="540" y="777" type="line"/>
    </contour>
  </outline>
</glyph>
<glyph name="Ma.gj" format="2">
  <advance width="679"/>
  <unicode hex="0AAE"/>
  <guideline x="500" y="524" angle="0"/>
  <guideline x="541" y="1337" angle="90"/>
  <guideline x="63" y="1325" angle="90"/>
  <anchor x="515" y="-66" name="Bottom"/>
  <anchor x="504" y="1273" name="Top"/>
  <anchor x="522" y="1273" name="Top2"/>
  <outline>
    <contour>
      <point x="145" y="580" type="line"/>
      <point x="182" y="580" type="line"/>
      <point x="182" y="1089" type="line" smooth="yes"/>
      <point x="182" y="1161"/>
      <point x="155" y="1200"/>
      <point x="101" y="1200" type="curve" smooth="yes"/>
      <point x="88" y="1200"/>
      <point x="75" y="1198"/>
      <point x="66" y="1194" type="curve"/>
      <point x="63" y="1159" type="line"/>
      <point x="70" y="1163"/>
      <point x="83" y="1165"/>
      <point x="92" y="1165" type="curve" smooth="yes"/>
      <point x="129" y="1165"/>
      <point x="145" y="1143"/>
      <point x="145" y="1087" type="curve" smooth="yes"/>
    </contour>
    <contour>
      <point x="147" y="142" type="curve"/>
      <point x="180" y="142" type="line"/>
      <point x="180" y="594" type="line"/>
      <point x="145" y="594" type="line"/>
      <point x="110" y="563" type="line"/>
      <point x="125" y="397"/>
      <point x="132" y="307"/>
    </contour>
    <contour>
      <point x="171" y="565" type="line"/>
      <point x="532" y="565" type="line"/>
      <point x="525" y="598" type="line"/>
      <point x="171" y="598" type="line"/>
    </contour>
    <contour>
      <point x="504" y="539" type="line"/>
      <point x="541" y="539" type="line"/>
      <point x="541" y="1196" type="line"/>
      <point x="504" y="1196" type="line"/>
    </contour>
    <contour>
      <point x="504" y="0" type="line"/>
      <point x="541" y="0" type="line"/>
      <point x="541" y="747" type="line"/>
      <point x="504" y="747" type="line"/>
    </contour>
  </outline>
</glyph>
<glyph name="Ya.gj" format="2">
  <advance width="721"/>
  <unicode hex="0AAF"/>
  <anchor x="557" y="-66" name="Bottom"/>
  <anchor x="546" y="1273" name="Top"/>
  <anchor x="564" y="1273" name="Top2"/>
  <outline>
    <contour>
      <point x="335" y="182" type="curve" smooth="yes"/>
      <point x="461" y="182"/>
      <point x="530" y="248"/>
      <point x="552" y="349" type="curve"/>
      <point x="555" y="349" type="line"/>
      <point x="550" y="416" type="line"/>
      <point x="522" y="280"/>
      <point x="454" y="217"/>
      <point x="335" y="217" type="curve" smooth="yes"/>
      <point x="195" y="217"/>
      <point x="121" y="302"/>
      <point x="121" y="482" type="curve" smooth="yes"/>
      <point x="121" y="546"/>
      <point x="121" y="594"/>
      <point x="121" y="640" type="curve"/>
      <point x="95" y="621" type="line"/>
      <point x="145" y="621" type="line" smooth="yes"/>
      <point x="274" y="621"/>
      <point x="336" y="691"/>
      <point x="336" y="835" type="curve" smooth="yes"/>
      <point x="336" y="1024" type="line" smooth="yes"/>
      <point x="336" y="1151"/>
      <point x="289" y="1210"/>
      <point x="197" y="1210" type="curve" smooth="yes"/>
      <point x="152" y="1210"/>
      <point x="117" y="1193"/>
      <point x="93" y="1173" type="curve"/>
      <point x="88" y="1132" type="line"/>
      <point x="119" y="1156"/>
      <point x="151" y="1175"/>
      <point x="197" y="1175" type="curve" smooth="yes"/>
      <point x="264" y="1175"/>
      <point x="299" y="1129"/>
      <point x="299" y="1022" type="curve" smooth="yes"/>
      <point x="299" y="841" type="line" smooth="yes"/>
      <point x="299" y="714"/>
      <point x="249" y="655"/>
      <point x="138" y="655" type="curve" smooth="yes"/>
      <point x="84" y="655" type="line"/>
      <point x="84" y="602"/>
      <point x="84" y="546"/>
      <point x="84" y="482" type="curve" smooth="yes"/>
      <point x="84" y="282"/>
      <point x="171" y="182"/>
    </contour>
    <contour>
      <point x="546" y="539" type="line"/>
      <point x="583" y="539" type="line"/>
      <point x="583" y="1196" type="line"/>
      <point x="546" y="1196" type="line"/>
    </contour>
    <contour>
      <point x="546" y="0" type="line"/>
      <point x="583" y="0" type="line"/>
      <point x="583" y="747" type="line"/>
      <point x="546" y="747" type="line"/>
    </contour>
  </outline>
</glyph>
<glyph name="Ra.gj" format="2">
  <advance width="479"/>
  <unicode hex="0AB0"/>
  <guideline x="2389" y="1693" angle="0"/>
  <guideline x="3034" y="3061" angle="90"/>
  <guideline x="1082" y="1079" angle="0"/>
  <guideline x="1082" y="1067" angle="0"/>
  <guideline x="1250" y="18" angle="81.4692"/>
  <guideline x="300" y="1236" angle="90"/>
  <guideline x="249" y="1343" angle="90"/>
  <guideline x="490" y="882" angle="90"/>
  <guideline x="398" y="882" angle="90"/>
  <guideline x="78" y="603" angle="90"/>
  <guideline x="45" y="603" angle="90"/>
  <guideline x="100" y="540" angle="180"/>
  <guideline x="100" y="528" angle="180"/>
  <guideline x="384" y="-46" angle="90"/>
  <guideline x="374" y="-46" angle="90"/>
  <anchor x="374" y="-66" name="Bottom"/>
  <anchor x="270" y="1273" name="Top"/>
  <anchor x="219" y="1273" name="Top2"/>
  <outline>
    <contour>
      <point x="152" y="492" type="line"/>
      <point x="154" y="499" type="line"/>
      <point x="160" y="499" type="line"/>
      <point x="302" y="499"/>
      <point x="369" y="580"/>
      <point x="369" y="726" type="curve" smooth="yes"/>
      <point x="369" y="1019" type="line" smooth="yes"/>
      <point x="369" y="1148"/>
      <point x="311" y="1210"/>
      <point x="207" y="1210" type="curve" smooth="yes"/>
      <point x="147" y="1210"/>
      <point x="101" y="1193"/>
      <point x="71" y="1168" type="curve"/>
      <point x="65" y="1127" type="line"/>
      <point x="106" y="1155"/>
      <point x="146" y="1175"/>
      <point x="207" y="1175" type="curve" smooth="yes"/>
      <point x="286" y="1175"/>
      <point x="332" y="1127"/>
      <point x="332" y="1015" type="curve" smooth="yes"/>
      <point x="332" y="731" type="line" smooth="yes"/>
      <point x="332" y="594"/>
      <point x="279" y="532"/>
      <point x="151" y="532" type="curve" smooth="yes"/>
      <point x="48" y="532" type="line"/>
      <point x="48" y="503" type="line"/>
    </contour>
    <contour>
      <point x="384" y="-12" type="curve" smooth="yes"/>
      <point x="396" y="-12"/>
      <point x="407" y="-10"/>
      <point x="415" y="-8" type="curve"/>
      <point x="420" y="26" type="line"/>
      <point x="408" y="24"/>
      <point x="399" y="23"/>
      <point x="384" y="23" type="curve" smooth="yes"/>
      <point x="292" y="23"/>
      <point x="238" y="101"/>
      <point x="202" y="310" type="curve" smooth="yes"/>
      <point x="165" y="524" type="line"/>
      <point x="128" y="520" type="line"/>
      <point x="166" y="306" type="line" smooth="yes"/>
      <point x="209" y="63"/>
      <point x="270" y="-12"/>
    </contour>
  </outline>
</glyph>
<glyph name="La.gj" format="2">
  <advance width="749"/>
  <unicode hex="0AB2"/>
  <anchor x="585" y="-66" name="Bottom"/>
  <anchor x="574" y="1273" name="Top"/>
  <anchor x="592" y="1273" name="Top2"/>
  <outline>
    <contour>
      <point x="574" y="539" type="line"/>
      <point x="611" y="539" type="line"/>
      <point x="611" y="1196" type="line"/>
      <point x="574" y="1196" type="line"/>
    </contour>
    <contour>
      <point x="574" y="0" type="line"/>
      <point x="611" y="0" type="line"/>
      <point x="611" y="747" type="line"/>
      <point x="574" y="747" type="line"/>
    </contour>
    <contour>
      <point x="346" y="11" type="curve" smooth="yes"/>
      <point x="389" y="11"/>
      <point x="422" y="18"/>
      <point x="443" y="28" type="curve"/>
      <point x="448" y="64" type="line"/>
      <point x="422" y="53"/>
      <point x="389" y="46"/>
      <point x="348" y="46" type="curve" smooth="yes"/>
      <point x="218" y="46"/>
      <point x="157" y="134"/>
      <point x="157" y="326" type="curve" smooth="yes"/>
      <point x="157" y="907" type="line" smooth="yes"/>
      <point x="157" y="1086"/>
      <point x="218" y="1168"/>
      <point x="346" y="1168" type="curve" smooth="yes"/>
      <point x="378" y="1168"/>
      <point x="411" y="1163"/>
      <point x="437" y="1156" type="curve"/>
      <point x="434" y="1189" type="line"/>
      <point x="405" y="1200"/>
      <point x="373" y="1203"/>
      <point x="344" y="1203" type="curve" smooth="yes"/>
      <point x="194" y="1203"/>
      <point x="120" y="1110"/>
      <point x="120" y="907" type="curve" smooth="yes"/>
      <point x="120" y="326" type="line" smooth="yes"/>
      <point x="120" y="110"/>
      <point x="194" y="11"/>
    </contour>
    <contour>
      <point x="299" y="523" type="line"/>
      <point x="593" y="735" type="line"/>
      <point x="593" y="777" type="line"/>
      <point x="299" y="567" type="line"/>
    </contour>
  </outline>
</glyph>
<glyph name="Lla.gj" format="2">
  <advance width="920"/>
  <unicode hex="0AB3"/>
  <guideline x="687" y="1326" angle="90"/>
  <guideline x="627" y="1343" angle="90"/>
  <guideline x="745" y="-85" angle="90"/>
  <guideline x="782" y="-85" angle="90"/>
  <guideline x="756" y="-85" angle="90"/>
  <anchor x="756" y="-66" name="Bottom"/>
  <anchor x="687" y="1273" name="Top"/>
  <anchor x="627" y="1273" name="Top2"/>
  <outline>
    <contour>
      <point x="745" y="0" type="line"/>
      <point x="782" y="0" type="line"/>
      <point x="782" y="974" type="line" smooth="yes"/>
      <point x="782" y="1134"/>
      <point x="729" y="1210"/>
      <point x="607" y="1210" type="curve" smooth="yes"/>
      <point x="485" y="1210"/>
      <point x="432" y="1134"/>
      <point x="432" y="974" type="curve" smooth="yes"/>
      <point x="432" y="788"/>
      <point x="447" y="611"/>
      <point x="447" y="425" type="curve" smooth="yes"/>
      <point x="447" y="283"/>
      <point x="401" y="215"/>
      <point x="302" y="215" type="curve" smooth="yes"/>
      <point x="203" y="215"/>
      <point x="157" y="283"/>
      <point x="157" y="425" type="curve" smooth="yes"/>
      <point x="157" y="896" type="line" smooth="yes"/>
      <point x="157" y="1040"/>
      <point x="173" y="1115"/>
      <point x="256" y="1196" type="curve"/>
      <point x="210" y="1196" type="line"/>
      <point x="144" y="1132"/>
      <point x="120" y="1052"/>
      <point x="120" y="902" type="curve" smooth="yes"/>
      <point x="120" y="425" type="line" smooth="yes"/>
      <point x="120" y="259"/>
      <point x="177" y="180"/>
      <point x="302" y="180" type="curve" smooth="yes"/>
      <point x="427" y="180"/>
      <point x="484" y="259"/>
      <point x="484" y="425" type="curve" smooth="yes"/>
      <point x="484" y="615"/>
      <point x="469" y="785"/>
      <point x="469" y="974" type="curve" smooth="yes"/>
      <point x="469" y="1110"/>
      <point x="512" y="1175"/>
      <point x="607" y="1175" type="curve" smooth="yes"/>
      <point x="703" y="1175"/>
      <point x="745" y="1110"/>
      <point x="745" y="974" type="curve" smooth="yes"/>
    </contour>
  </outline>
</glyph>
<glyph name="Va.gj" format="2">
  <advance width="667"/>
  <unicode hex="0AB5"/>
  <anchor x="503" y="-66" name="Bottom"/>
  <anchor x="492" y="1273" name="Top"/>
  <anchor x="510" y="1273" name="Top2"/>
  <outline>
    <contour>
      <point x="326" y="223" type="curve" smooth="yes"/>
      <point x="420" y="223"/>
      <point x="479" y="279"/>
      <point x="496" y="358" type="curve"/>
      <point x="499" y="358" type="line"/>
      <point x="494" y="425" type="line"/>
      <point x="472" y="305"/>
      <point x="407" y="258"/>
      <point x="326" y="258" type="curve" smooth="yes"/>
      <point x="214" y="258"/>
      <point x="157" y="331"/>
      <point x="157" y="486" type="curve" smooth="yes"/>
      <point x="157" y="937" type="line" smooth="yes"/>
      <point x="157" y="1089"/>
      <point x="207" y="1161"/>
      <point x="317" y="1161" type="curve" smooth="yes"/>
      <point x="335" y="1161"/>
      <point x="352" y="1159"/>
      <point x="369" y="1156" type="curve"/>
      <point x="365" y="1189" type="line"/>
      <point x="348" y="1194"/>
      <point x="332" y="1196"/>
      <point x="315" y="1196" type="curve" smooth="yes"/>
      <point x="183" y="1196"/>
      <point x="120" y="1113"/>
      <point x="120" y="937" type="curve" smooth="yes"/>
      <point x="120" y="486" type="line" smooth="yes"/>
      <point x="120" y="309"/>
      <point x="190" y="223"/>
    </contour>
    <contour>
      <point x="492" y="539" type="line"/>
      <point x="529" y="539" type="line"/>
      <point x="529" y="1196" type="line"/>
      <point x="492" y="1196" type="line"/>
    </contour>
    <contour>
      <point x="492" y="0" type="line"/>
      <point x="529" y="0" type="line"/>
      <point x="529" y="747" type="line"/>
      <point x="492" y="747" type="line"/>
    </contour>
  </outline>
</glyph>
<glyph name="Sha.gj" format="2">
  <advance width="858"/>
  <unicode hex="0AB6"/>
  <anchor x="694" y="-66" name="Bottom"/>
  <anchor x="683" y="1273" name="Top"/>
  <anchor x="701" y="1273" name="Top2"/>
  <outline>
    <contour>
      <point x="683" y="539" type="line"/>
      <point x="720" y="539" type="line"/>
      <point x="720" y="1196" type="line"/>
      <point x="683" y="1196" type="line"/>
    </contour>
    <contour>
      <point x="683" y="0" type="line"/>
      <point x="720" y="0" type="line"/>
      <point x="720" y="747" type="line"/>
      <point x="683" y="747" type="line"/>
    </contour>
    <contour>
      <point x="182" y="416" type="line"/>
      <point x="184" y="423" type="line"/>
      <point x="195" y="423" type="line" smooth="yes"/>
      <point x="366" y="423"/>
      <point x="449" y="534"/>
      <point x="449" y="732" type="curve" smooth="yes"/>
      <point x="449" y="987" type="line" smooth="yes"/>
      <point x="449" y="1138"/>
      <point x="398" y="1210"/>
      <point x="280" y="1210" type="curve" smooth="yes"/>
      <point x="162" y="1210"/>
      <point x="110" y="1138"/>
      <point x="110" y="987" type="curve" smooth="yes"/>
      <point x="110" y="854" type="line" smooth="yes"/>
      <point x="110" y="793"/>
      <point x="116" y="725"/>
      <point x="134" y="672" type="curve"/>
      <point x="171" y="672" type="line"/>
      <point x="153" y="729"/>
      <point x="147" y="800"/>
      <point x="147" y="854" type="curve" smooth="yes"/>
      <point x="147" y="985" type="line" smooth="yes"/>
      <point x="147" y="1119"/>
      <point x="190" y="1175"/>
      <point x="280" y="1175" type="curve" smooth="yes"/>
      <point x="370" y="1175"/>
      <point x="412" y="1119"/>
      <point x="412" y="985" type="curve" smooth="yes"/>
      <point x="412" y="738" type="line" smooth="yes"/>
      <point x="412" y="545"/>
      <point x="342" y="456"/>
      <point x="186" y="456" type="curve" smooth="yes"/>
      <point x="74" y="456" type="line"/>
      <point x="74" y="427" type="line"/>
    </contour>
    <contour>
      <point x="416" y="-4" type="curve" smooth="yes"/>
      <point x="427" y="-4"/>
      <point x="442" y="-2"/>
      <point x="449" y="1" type="curve"/>
      <point x="455" y="35" type="line"/>
      <point x="447" y="33"/>
      <point x="436" y="31"/>
      <point x="425" y="31" type="curve" smooth="yes"/>
      <point x="328" y="31"/>
      <point x="265" y="110"/>
      <point x="226" y="318" type="curve" smooth="yes"/>
      <point x="202" y="449" type="line"/>
      <point x="166" y="445" type="line"/>
      <point x="190" y="314" type="line" smooth="yes"/>
      <point x="232" y="88"/>
      <point x="300" y="-4"/>
    </contour>
  </outline>
</glyph>
<glyph name="Sa.gj" format="2">
  <advance width="767"/>
  <unicode hex="0AB8"/>
  <guideline x="2091" y="2790" angle="90"/>
  <guideline x="1332" y="12" angle="81.4692"/>
  <guideline x="48" y="1159" angle="90"/>
  <guideline x="0" y="1126" angle="90"/>
  <guideline x="629" y="1259" angle="90"/>
  <anchor x="603" y="-66" name="Bottom"/>
  <anchor x="592" y="1273" name="Top"/>
  <anchor x="610" y="1273" name="Top2"/>
  <outline>
    <contour>
      <point x="592" y="539" type="line"/>
      <point x="629" y="539" type="line"/>
      <point x="629" y="1196" type="line"/>
      <point x="592" y="1196" type="line"/>
    </contour>
    <contour>
      <point x="592" y="0" type="line"/>
      <point x="629" y="0" type="line"/>
      <point x="629" y="747" type="line"/>
      <point x="592" y="747" type="line"/>
    </contour>
    <contour>
      <point x="147" y="522" type="line"/>
      <point x="149" y="529" type="line"/>
      <point x="160" y="529" type="line"/>
      <point x="282" y="529"/>
      <point x="339" y="610"/>
      <point x="339" y="756" type="curve" smooth="yes"/>
      <point x="339" y="1019" type="line" smooth="yes"/>
      <point x="339" y="1148"/>
      <point x="288" y="1210"/>
      <point x="192" y="1210" type="curve" smooth="yes"/>
      <point x="139" y="1210"/>
      <point x="99" y="1193"/>
      <point x="71" y="1171" type="curve"/>
      <point x="65" y="1130" type="line"/>
      <point x="102" y="1156"/>
      <point x="137" y="1175"/>
      <point x="192" y="1175" type="curve" smooth="yes"/>
      <point x="264" y="1175"/>
      <point x="302" y="1128"/>
      <point x="302" y="1015" type="curve" smooth="yes"/>
      <point x="302" y="761" type="line" smooth="yes"/>
      <point x="302" y="624"/>
      <point x="258" y="562"/>
      <point x="151" y="562" type="curve" smooth="yes"/>
      <point x="48" y="562" type="line"/>
      <point x="48" y="533" type="line"/>
    </contour>
    <contour>
      <point x="394" y="-8" type="curve" smooth="yes"/>
      <point x="406" y="-8"/>
      <point x="417" y="-6"/>
      <point x="425" y="-4" type="curve"/>
      <point x="430" y="30" type="line"/>
      <point x="418" y="28"/>
      <point x="409" y="27"/>
      <point x="394" y="27" type="curve" smooth="yes"/>
      <point x="302" y="27"/>
      <point x="250" y="105"/>
      <point x="212" y="314" type="curve" smooth="yes"/>
      <point x="170" y="546" type="line"/>
      <point x="133" y="542" type="line"/>
      <point x="176" y="310" type="line" smooth="yes"/>
      <point x="221" y="67"/>
      <point x="280" y="-8"/>
    </contour>
    <contour>
      <point x="427" y="598" type="curve" smooth="yes"/>
      <point x="616.532" y="598" type="line"/>
      <point x="613.494" y="631" type="line"/>
      <point x="580.492" y="631"/>
      <point x="548.194" y="631"/>
      <point x="515.192" y="631" type="curve"/>
      <point x="313" y="631" type="line"/>
      <point x="303" y="605" type="line"/>
      <point x="344" y="600"/>
      <point x="386" y="598"/>
    </contour>
  </outline>
</glyph>
<glyph name="Ha.gj" format="2">
  <advance width="613"/>
  <unicode hex="0AB9"/>
  <anchor x="359" y="-72" name="Bottom"/>
  <anchor x="384" y="1273" name="Top"/>
  <anchor x="324" y="1273" name="Top2"/>
  <outline>
    <contour>
      <point x="359" y="-4" type="curve" smooth="yes"/>
      <point x="423" y="-4"/>
      <point x="477" y="18"/>
      <point x="512" y="46" type="curve"/>
      <point x="517" y="88" type="line"/>
      <point x="473" y="53"/>
      <point x="423" y="31"/>
      <point x="359" y="31" type="curve" smooth="yes"/>
      <point x="212" y="31"/>
      <point x="147" y="127"/>
      <point x="147" y="342" type="curve" smooth="yes"/>
      <point x="147" y="427"/>
      <point x="147" y="491"/>
      <point x="147" y="596" type="curve"/>
      <point x="112" y="596" type="line"/>
      <point x="110" y="493"/>
      <point x="110" y="427"/>
      <point x="110" y="344" type="curve" smooth="yes"/>
      <point x="110" y="105"/>
      <point x="186" y="-4"/>
    </contour>
    <contour>
      <point x="474" y="280" type="curve"/>
      <point x="511" y="280" type="line"/>
      <point x="519" y="358"/>
      <point x="521" y="418"/>
      <point x="521" y="477" type="curve" smooth="yes"/>
      <point x="521" y="630"/>
      <point x="479" y="700"/>
      <point x="346" y="748" type="curve" smooth="yes"/>
      <point x="307" y="762" type="line" smooth="yes"/>
      <point x="197" y="802"/>
      <point x="167" y="863"/>
      <point x="167" y="957" type="curve" smooth="yes"/>
      <point x="167" y="978" type="line" smooth="yes"/>
      <point x="167" y="1118"/>
      <point x="223" y="1175"/>
      <point x="324" y="1175" type="curve" smooth="yes"/>
      <point x="384" y="1175"/>
      <point x="429" y="1153"/>
      <point x="469" y="1119" type="curve"/>
      <point x="464" y="1162" type="line"/>
      <point x="432" y="1188"/>
      <point x="383" y="1210"/>
      <point x="324" y="1210" type="curve" smooth="yes"/>
      <point x="198" y="1210"/>
      <point x="130" y="1136"/>
      <point x="130" y="980" type="curve" smooth="yes"/>
      <point x="130" y="953" type="line" smooth="yes"/>
      <point x="130" y="844"/>
      <point x="172" y="773"/>
      <point x="294" y="729" type="curve" smooth="yes"/>
      <point x="333" y="715" type="line" smooth="yes"/>
      <point x="452" y="672"/>
      <point x="484" y="612"/>
      <point x="484" y="474" type="curve" smooth="yes"/>
      <point x="484" y="417"/>
      <point x="481" y="356"/>
    </contour>
  </outline>
</glyph>
<glyph name="Nukta.gj" format="2">
  <unicode hex="0ABC"/>
  <anchor x="126" y="-66" name="_Bottom"/>
  <outline>
    <contour>
      <point x="133" y="-210" type="curve" smooth="yes"/>
      <point x="158" y="-210"/>
      <point x="166" y="-193"/>
      <point x="166" y="-153" type="curve" smooth="yes"/>
      <point x="166" y="-125" type="line" smooth="yes"/>
      <point x="166" y="-84"/>
      <point x="158" y="-66"/>
      <point x="133" y="-66" type="curve" smooth="yes"/>
      <point x="108" y="-66"/>
      <point x="100" y="-84"/>
      <point x="100" y="-125" type="curve" smooth="yes"/>
      <point x="100" y="-153" type="line" smooth="yes"/>
      <point x="100" y="-193"/>
      <point x="108" y="-210"/>
    </contour>
  </outline>
</glyph>
<glyph name="Avagraha.gj" format="2">
  <advance width="550"/>
  <unicode hex="0ABD"/>
  <outline>
    <contour>
      <point x="256" y="-12" type="curve" smooth="yes"/>
      <point x="394" y="-12"/>
      <point x="462" y="73"/>
      <point x="462" y="258" type="curve" smooth="yes"/>
      <point x="462" y="356" type="line" smooth="yes"/>
      <point x="462" y="511"/>
      <point x="427" y="568"/>
      <point x="306" y="646" type="curve" smooth="yes"/>
      <point x="278" y="664" type="line" smooth="yes"/>
      <point x="148" y="747"/>
      <point x="128" y="801"/>
      <point x="128" y="914" type="curve" smooth="yes"/>
      <point x="128" y="973" type="line" smooth="yes"/>
      <point x="128" y="1106"/>
      <point x="199" y="1161"/>
      <point x="304" y="1161" type="curve" smooth="yes"/>
      <point x="435" y="1161" type="line"/>
      <point x="429" y="1196" type="line"/>
      <point x="300" y="1196" type="line" smooth="yes"/>
      <point x="174" y="1196"/>
      <point x="91" y="1124"/>
      <point x="91" y="975" type="curve" smooth="yes"/>
      <point x="91" y="911" type="line" smooth="yes"/>
      <point x="91" y="790"/>
      <point x="121" y="720"/>
      <point x="257" y="634" type="curve" smooth="yes"/>
      <point x="284" y="617" type="line" smooth="yes"/>
      <point x="398" y="545"/>
      <point x="425" y="493"/>
      <point x="425" y="352" type="curve" smooth="yes"/>
      <point x="425" y="260" type="line" smooth="yes"/>
      <point x="425" y="91"/>
      <point x="366" y="23"/>
      <point x="254" y="23" type="curve" smooth="yes"/>
      <point x="186" y="23"/>
      <point x="121" y="51"/>
      <point x="68" y="109" type="curve"/>
      <point x="75" y="58" type="line"/>
      <point x="112" y="21"/>
      <point x="169" y="-12"/>
    </contour>
  </outline>
</glyph>
<glyph name="MatraA.gj" format="2">
  <advance width="313"/>
  <unicode hex="0ABE"/>
  <guideline x="3827" y="-765" angle="0"/>
  <guideline x="404" y="725" angle="0"/>
  <guideline x="138" y="868" angle="270"/>
  <anchor x="149" y="-66" name="Bottom"/>
  <anchor x="138" y="1273" name="Top"/>
  <anchor x="156" y="1273" name="Top2"/>
  <outline>
    <contour>
      <point x="138" y="539" type="line"/>
      <point x="175" y="539" type="line"/>
      <point x="175" y="1196" type="line"/>
      <point x="138" y="1196" type="line"/>
    </contour>
    <contour>
      <point x="138" y="0" type="line"/>
      <point x="175" y="0" type="line"/>
      <point x="175" y="747" type="line"/>
      <point x="138" y="747" type="line"/>
    </contour>
  </outline>
</glyph>
<glyph name="MatraI.gj" format="2">
  <advance width="313"/>
  <unicode hex="0ABF"/>
  <guideline x="1850" y="0" angle="0"/>
  <guideline x="1573" y="5544" angle="0"/>
  <guideline x="0" y="734" angle="90"/>
  <guideline x="313" y="734" angle="90"/>
  <guideline x="138" y="734" angle="90"/>
  <guideline x="175" y="734" angle="90"/>
  <guideline x="816" y="1277" angle="194.4703"/>
  <guideline x="233" y="0" angle="0"/>
  <anchor x="149" y="-66" name="Bottom"/>
  <anchor x="138" y="1273" name="Top"/>
  <anchor x="156" y="1273" name="Top2"/>
  <outline>
    <contour>
      <point x="138" y="1190" type="curve"/>
      <point x="175" y="1190" type="line"/>
      <point x="175" y="1264"/>
      <point x="175" y="1319"/>
      <point x="175" y="1381" type="curve" smooth="yes"/>
      <point x="175" y="1573"/>
      <point x="260" y="1649"/>
      <point x="405" y="1649" type="curve" smooth="yes"/>
      <point x="541" y="1649"/>
      <point x="708" y="1551"/>
      <point x="800" y="1273" type="curve"/>
      <point x="831" y="1281" type="line"/>
      <point x="739" y="1576"/>
      <point x="554" y="1682"/>
      <point x="405" y="1682" type="curve" smooth="yes"/>
      <point x="239" y="1682"/>
      <point x="138" y="1596"/>
      <point x="138" y="1381" type="curve" smooth="yes"/>
      <point x="138" y="1323"/>
      <point x="138" y="1267"/>
    </contour>
    <contour>
      <point x="138" y="539" type="line"/>
      <point x="175" y="539" type="line"/>
      <point x="175" y="1196" type="line"/>
      <point x="138" y="1196" type="line"/>
    </contour>
    <contour>
      <point x="138" y="0" type="line"/>
      <point x="175" y="0" type="line"/>
      <point x="175" y="747" type="line"/>
      <point x="138" y="747" type="line"/>
    </contour>
  </outline>
</glyph>
<glyph name="MatraU.gj" format="2">
  <unicode hex="0AC1"/>
  <guideline x="1189" y="0" angle="0"/>
  <guideline x="857" y="-285" angle="90"/>
  <guideline x="894" y="-285" angle="90"/>
  <guideline x="868" y="-285" angle="90"/>
  <guideline x="334" y="-561" angle="180"/>
  <guideline x="468" y="-331" angle="180"/>
  <anchor x="352" y="-66" name="_Bottom"/>
  <outline>
    <contour>
      <point x="337" y="-581" type="curve" smooth="yes"/>
      <point x="455" y="-581"/>
      <point x="503" y="-510"/>
      <point x="503" y="-348" type="curve" smooth="yes"/>
      <point x="503" y="-292" type="line" smooth="yes"/>
      <point x="503" y="-134"/>
      <point x="456" y="-66"/>
      <point x="352" y="-66" type="curve" smooth="yes"/>
      <point x="300" y="-66"/>
      <point x="260" y="-84"/>
      <point x="231" y="-106" type="curve"/>
      <point x="227" y="-150" type="line"/>
      <point x="266" y="-118"/>
      <point x="306" y="-100"/>
      <point x="353" y="-100" type="curve" smooth="yes"/>
      <point x="431" y="-100"/>
      <point x="467" y="-150"/>
      <point x="467" y="-292" type="curve" smooth="yes"/>
      <point x="467" y="-346" type="line" smooth="yes"/>
      <point x="467" y="-488"/>
      <point x="430" y="-547"/>
      <point x="337" y="-547" type="curve" smooth="yes"/>
      <point x="222" y="-547"/>
      <point x="171" y="-442"/>
      <point x="136" y="-221" type="curve"/>
      <point x="100" y="-221" type="line"/>
      <point x="139" y="-465"/>
      <point x="197" y="-581"/>
    </contour>
  </outline>
</glyph>
<glyph name="MatraUu.gj" format="2">
  <unicode hex="0AC2"/>
  <anchor x="271" y="-66" name="_Bottom"/>
  <outline>
    <contour>
      <point x="468" y="-585" type="curve"/>
      <point x="503" y="-585" type="line"/>
      <point x="459" y="-199"/>
      <point x="418" y="-66"/>
      <point x="266" y="-66" type="curve" smooth="yes"/>
      <point x="165" y="-66"/>
      <point x="100" y="-136"/>
      <point x="100" y="-299" type="curve" smooth="yes"/>
      <point x="100" y="-349" type="line" smooth="yes"/>
      <point x="100" y="-512"/>
      <point x="155" y="-581"/>
      <point x="254" y="-581" type="curve" smooth="yes"/>
      <point x="295" y="-581"/>
      <point x="324" y="-572"/>
      <point x="346" y="-555" type="curve"/>
      <point x="350" y="-514" type="line"/>
      <point x="321" y="-538"/>
      <point x="291" y="-547"/>
      <point x="254" y="-547" type="curve" smooth="yes"/>
      <point x="176" y="-547"/>
      <point x="136" y="-492"/>
      <point x="136" y="-347" type="curve" smooth="yes"/>
      <point x="136" y="-301" type="line" smooth="yes"/>
      <point x="136" y="-159"/>
      <point x="187" y="-100"/>
      <point x="266" y="-100" type="curve" smooth="yes"/>
      <point x="392" y="-100"/>
      <point x="426" y="-227"/>
    </contour>
  </outline>
</glyph>
<glyph name="MatraRu.gj" format="2">
  <unicode hex="0AC3"/>
  <guideline x="2326" y="-470" angle="90"/>
  <guideline x="2887" y="-1187" angle="261.8699"/>
  <guideline x="759" y="-1326" angle="84.5597"/>
  <guideline x="276" y="-561" angle="0"/>
  <guideline x="135" y="-339" angle="0"/>
  <anchor x="297" y="-66" name="_Bottom"/>
  <outline>
    <contour>
      <point x="275" y="-581" type="curve" smooth="yes"/>
      <point x="331" y="-581"/>
      <point x="369" y="-566"/>
      <point x="400" y="-541" type="curve"/>
      <point x="404" y="-499" type="line"/>
      <point x="363" y="-532"/>
      <point x="325" y="-548"/>
      <point x="275" y="-548" type="curve" smooth="yes"/>
      <point x="181" y="-548"/>
      <point x="135" y="-483"/>
      <point x="135" y="-359" type="curve" smooth="yes"/>
      <point x="135" y="-308" type="line" smooth="yes"/>
      <point x="135" y="-154"/>
      <point x="190" y="-98"/>
      <point x="319" y="-98" type="curve" smooth="yes"/>
      <point x="345" y="-98" type="line"/>
      <point x="345" y="-66" type="line"/>
      <point x="316" y="-66" type="line" smooth="yes"/>
      <point x="168" y="-66"/>
      <point x="100" y="-132"/>
      <point x="100" y="-306" type="curve" smooth="yes"/>
      <point x="100" y="-361" type="line" smooth="yes"/>
      <point x="100" y="-503"/>
      <point x="160" y="-581"/>
    </contour>
  </outline>
</glyph>
<glyph name="MatraRuu.gj" format="2">
  <unicode hex="0AC4"/>
  <guideline x="264" y="-696" angle="0"/>
  <guideline x="353" y="-383" angle="86.0548"/>
  <guideline x="336" y="-383" angle="86.0548"/>
  <guideline x="264" y="-442" angle="0"/>
  <guideline x="124" y="-570" angle="270"/>
  <anchor x="253" y="-66" name="_Bottom"/>
  <outline>
    <contour>
      <point x="241" y="-438" type="curve" smooth="yes"/>
      <point x="285" y="-438"/>
      <point x="317" y="-427"/>
      <point x="341" y="-409" type="curve"/>
      <point x="344" y="-371" type="line"/>
      <point x="311" y="-395"/>
      <point x="281" y="-406"/>
      <point x="241" y="-406" type="curve" smooth="yes"/>
      <point x="169" y="-406"/>
      <point x="133" y="-358"/>
      <point x="133" y="-267" type="curve" smooth="yes"/>
      <point x="133" y="-239" type="line" smooth="yes"/>
      <point x="133" y="-135"/>
      <point x="175" y="-97"/>
      <point x="273" y="-97" type="curve" smooth="yes"/>
      <point x="301" y="-97" type="line"/>
      <point x="301" y="-66" type="line"/>
      <point x="270" y="-66" type="line" smooth="yes"/>
      <point x="153" y="-66"/>
      <point x="100" y="-113"/>
      <point x="100" y="-237" type="curve" smooth="yes"/>
      <point x="100" y="-269" type="line" smooth="yes"/>
      <point x="100" y="-357"/>
      <point x="131" y="-411"/>
      <point x="192" y="-429" type="curve"/>
      <point x="211" y="-436" type="line"/>
      <point x="220" y="-437"/>
      <point x="230" y="-438"/>
    </contour>
    <contour>
      <point x="256" y="-732" type="curve" smooth="yes"/>
      <point x="300" y="-732"/>
      <point x="333" y="-721"/>
      <point x="357" y="-703" type="curve"/>
      <point x="360" y="-665" type="line"/>
      <point x="327" y="-689"/>
      <point x="296" y="-700"/>
      <point x="256" y="-700" type="curve" smooth="yes"/>
      <point x="183" y="-700"/>
      <point x="147" y="-657"/>
      <point x="147" y="-576" type="curve" smooth="yes"/>
      <point x="147" y="-562" type="line" smooth="yes"/>
      <point x="147" y="-492"/>
      <point x="176" y="-442"/>
      <point x="241" y="-432" type="curve"/>
      <point x="210" y="-412" type="line"/>
      <point x="210" y="-420" type="line"/>
      <point x="149" y="-431"/>
      <point x="114" y="-486"/>
      <point x="114" y="-561" type="curve" smooth="yes"/>
      <point x="114" y="-577" type="line" smooth="yes"/>
      <point x="114" y="-677"/>
      <point x="162" y="-732"/>
    </contour>
  </outline>
</glyph>
<glyph name="MatraChandraE.gj" format="2">
  <unicode hex="0AC5"/>
  <anchor x="465" y="1273" name="_Top"/>
  <outline>
    <contour>
      <point x="494" y="1273" type="curve" smooth="yes"/>
      <point x="511" y="1273"/>
      <point x="530" y="1277"/>
      <point x="540" y="1284" type="curve"/>
      <point x="540" y="1315" type="line"/>
      <point x="531" y="1309"/>
      <point x="516" y="1304"/>
      <point x="496" y="1304" type="curve" smooth="yes"/>
      <point x="448" y="1304"/>
      <point x="417" y="1326"/>
      <point x="350" y="1409" type="curve" smooth="yes"/>
      <point x="127" y="1682" type="line"/>
      <point x="100" y="1660" type="line"/>
      <point x="325" y="1390" type="line" smooth="yes"/>
      <point x="398" y="1303"/>
      <point x="437" y="1273"/>
    </contour>
  </outline>
</glyph>
<glyph name="MatraE.gj" format="2">
  <unicode hex="0AC7"/>
  <anchor x="477" y="1273" name="_Top"/>
  <outline>
    <contour>
      <point x="477" y="1273" type="curve"/>
      <point x="498" y="1292" type="line"/>
      <point x="372" y="1423"/>
      <point x="248" y="1554"/>
      <point x="126" y="1682" type="curve"/>
      <point x="100" y="1657" type="line"/>
      <point x="225" y="1529"/>
      <point x="350" y="1403"/>
    </contour>
  </outline>
</glyph>
<glyph name="MatraAi.gj" format="2">
  <unicode hex="0AC8"/>
  <guideline x="530" y="1283" angle="223.5312"/>
  <guideline x="111" y="1577" angle="52.125"/>
  <guideline x="299" y="1759" angle="26.5651"/>
  <anchor x="520" y="1273" name="_Top"/>
  <outline>
    <contour>
      <point x="520" y="1273" type="line"/>
      <point x="540" y="1292" type="line"/>
      <point x="314" y="1766" type="line"/>
      <point x="284" y="1751" type="line"/>
      <point x="498" y="1320" type="line"/>
      <point x="497" y="1319" type="line"/>
      <point x="121" y="1590" type="line"/>
      <point x="100" y="1563" type="line"/>
    </contour>
  </outline>
</glyph>
<glyph name="MatraChandraO.gj" format="2">
  <advance width="313"/>
  <unicode hex="0AC9"/>
  <anchor x="149" y="-66" name="Bottom"/>
  <anchor x="138" y="1273" name="Top"/>
  <anchor x="156" y="1273" name="Top2"/>
  <outline>
    <contour>
      <point x="138" y="539" type="line"/>
      <point x="175" y="539" type="line"/>
      <point x="175" y="1196" type="line"/>
      <point x="138" y="1196" type="line"/>
    </contour>
    <contour>
      <point x="138" y="0" type="line"/>
      <point x="175" y="0" type="line"/>
      <point x="175" y="747" type="line"/>
      <point x="138" y="747" type="line"/>
    </contour>
    <contour>
      <point x="167" y="1273" type="curve" smooth="yes"/>
      <point x="184" y="1273"/>
      <point x="203" y="1277"/>
      <point x="213" y="1284" type="curve"/>
      <point x="213" y="1315" type="line"/>
      <point x="204" y="1309"/>
      <point x="189" y="1304"/>
      <point x="169" y="1304" type="curve" smooth="yes"/>
      <point x="121" y="1304"/>
      <point x="90" y="1326"/>
      <point x="23" y="1409" type="curve" smooth="yes"/>
      <point x="-200" y="1682" type="line"/>
      <point x="-227" y="1660" type="line"/>
      <point x="-2" y="1390" type="line" smooth="yes"/>
      <point x="71" y="1303"/>
      <point x="110" y="1273"/>
    </contour>
  </outline>
</glyph>
<glyph name="MatraO.gj" format="2">
  <advance width="313"/>
  <unicode hex="0ACB"/>
  <guideline x="452" y="2664" angle="90"/>
  <guideline x="0" y="2664" angle="90"/>
  <guideline x="138" y="1489" angle="90"/>
  <anchor x="149" y="-66" name="Bottom"/>
  <anchor x="138" y="1273" name="Top"/>
  <anchor x="156" y="1273" name="Top2"/>
  <outline>
    <contour>
      <point x="138" y="539" type="line"/>
      <point x="175" y="539" type="line"/>
      <point x="175" y="1196" type="line"/>
      <point x="138" y="1196" type="line"/>
    </contour>
    <contour>
      <point x="138" y="0" type="line"/>
      <point x="175" y="0" type="line"/>
      <point x="175" y="747" type="line"/>
      <point x="138" y="747" type="line"/>
    </contour>
    <contour>
      <point x="138" y="1273" type="curve"/>
      <point x="159" y="1292" type="line"/>
      <point x="33" y="1423"/>
      <point x="-91" y="1554"/>
      <point x="-213" y="1682" type="curve"/>
      <point x="-239" y="1657" type="line"/>
      <point x="-114" y="1529"/>
      <point x="11" y="1403"/>
    </contour>
  </outline>
</glyph>
<glyph name="MatraAu.gj" format="2">
  <advance width="313"/>
  <unicode hex="0ACC"/>
  <guideline x="-5960" y="4375" angle="90"/>
  <guideline x="-5984" y="4375" angle="90"/>
  <guideline x="452" y="4375" angle="90"/>
  <guideline x="428" y="4375" angle="90"/>
  <guideline x="138" y="1527" angle="90"/>
  <guideline x="131" y="1527" angle="90"/>
  <guideline x="138" y="1275" angle="90"/>
  <anchor x="149" y="-66" name="Bottom"/>
  <anchor x="138" y="1273" name="Top"/>
  <anchor x="156" y="1273" name="Top2"/>
  <outline>
    <contour>
      <point x="138" y="539" type="line"/>
      <point x="175" y="539" type="line"/>
      <point x="175" y="1196" type="line"/>
      <point x="138" y="1196" type="line"/>
    </contour>
    <contour>
      <point x="138" y="0" type="line"/>
      <point x="175" y="0" type="line"/>
      <point x="175" y="747" type="line"/>
      <point x="138" y="747" type="line"/>
    </contour>
    <contour>
      <point x="138" y="1273" type="line"/>
      <point x="158" y="1292" type="line"/>
      <point x="-68" y="1766" type="line"/>
      <point x="-98" y="1751" type="line"/>
      <point x="116" y="1320" type="line"/>
      <point x="115" y="1319" type="line"/>
      <point x="-261" y="1590" type="line"/>
      <point x="-282" y="1563" type="line"/>
    </contour>
  </outline>
</glyph>
<glyph name="Halant.gj" format="2">
  <unicode hex="0ACD"/>
  <anchor x="116" y="-66" name="_Bottom"/>
  <outline>
    <contour>
      <point x="313" y="-549" type="line"/>
      <point x="339" y="-536" type="line"/>
      <point x="131" y="-97" type="line"/>
      <point x="100" y="-113" type="line"/>
    </contour>
  </outline>
</glyph>
<glyph name="Om.gj" format="2">
  <advance width="996"/>
  <unicode hex="0AD0"/>
  <anchor x="647" y="1108" name="_Top2"/>
  <outline>
    <contour>
      <point x="725" y="129" type="curve" smooth="yes"/>
      <point x="838" y="129"/>
      <point x="901" y="201"/>
      <point x="901" y="383" type="curve" smooth="yes"/>
      <point x="901" y="767" type="line" smooth="yes"/>
      <point x="901" y="951"/>
      <point x="838" y="1018"/>
      <point x="741" y="1018" type="curve" smooth="yes"/>
      <point x="649" y="1018"/>
      <point x="587" y="960"/>
      <point x="574" y="795" type="curve" smooth="yes"/>
      <point x="563" y="659" type="line" smooth="yes"/>
      <point x="552" y="528"/>
      <point x="526" y="504"/>
      <point x="477" y="504" type="curve" smooth="yes"/>
      <point x="448" y="504"/>
      <point x="414" y="521"/>
      <point x="389" y="554" type="curve"/>
      <point x="389" y="532" type="line"/>
      <point x="411" y="491"/>
      <point x="441" y="471"/>
      <point x="479" y="471" type="curve" smooth="yes"/>
      <point x="554" y="471"/>
      <point x="585" y="517"/>
      <point x="597" y="657" type="curve" smooth="yes"/>
      <point x="608" y="786" type="line" smooth="yes"/>
      <point x="621" y="937"/>
      <point x="663" y="983"/>
      <point x="741" y="983" type="curve" smooth="yes"/>
      <point x="821" y="983"/>
      <point x="864" y="922"/>
      <point x="864" y="764" type="curve" smooth="yes"/>
      <point x="864" y="392" type="line" smooth="yes"/>
      <point x="864" y="224"/>
      <point x="813" y="164"/>
      <point x="722" y="164" type="curve" smooth="yes"/>
      <point x="670" y="164"/>
      <point x="628" y="186"/>
      <point x="590" y="221" type="curve"/>
      <point x="595" y="178" type="line"/>
      <point x="624" y="151"/>
      <point x="668" y="129"/>
    </contour>
    <contour>
      <point x="647" y="1130" type="curve" smooth="yes"/>
      <point x="759" y="1130"/>
      <point x="816" y="1194"/>
      <point x="816" y="1366" type="curve" smooth="yes"/>
      <point x="816" y="1378"/>
      <point x="816" y="1390"/>
      <point x="816" y="1408" type="curve"/>
      <point x="783" y="1408" type="line"/>
      <point x="783" y="1371" type="line" smooth="yes"/>
      <point x="783" y="1215"/>
      <point x="736" y="1162"/>
      <point x="647" y="1162" type="curve" smooth="yes"/>
      <point x="556" y="1162"/>
      <point x="511" y="1215"/>
      <point x="511" y="1371" type="curve" smooth="yes"/>
      <point x="511" y="1408" type="line"/>
      <point x="478" y="1408" type="line"/>
      <point x="478" y="1390"/>
      <point x="478" y="1378"/>
      <point x="478" y="1366" type="curve" smooth="yes"/>
      <point x="478" y="1194"/>
      <point x="534" y="1130"/>
    </contour>
    <contour>
      <point x="647" y="1347" type="curve" smooth="yes"/>
      <point x="667" y="1347"/>
      <point x="675" y="1363"/>
      <point x="675" y="1397" type="curve" smooth="yes"/>
      <point x="675" y="1441" type="line" smooth="yes"/>
      <point x="675" y="1476"/>
      <point x="667" y="1491"/>
      <point x="647" y="1491" type="curve" smooth="yes"/>
      <point x="627" y="1491"/>
      <point x="620" y="1476"/>
      <point x="620" y="1441" type="curve" smooth="yes"/>
      <point x="620" y="1397" type="line" smooth="yes"/>
      <point x="620" y="1363"/>
      <point x="627" y="1347"/>
    </contour>
    <contour>
      <point x="223" y="-11" type="curve" smooth="yes"/>
      <point x="362" y="-11"/>
      <point x="433" y="74"/>
      <point x="433" y="259" type="curve" smooth="yes"/>
      <point x="433" y="392" type="line" smooth="yes"/>
      <point x="433" y="537"/>
      <point x="378" y="611"/>
      <point x="267" y="626" type="curve"/>
      <point x="267" y="628" type="line"/>
      <point x="368" y="644"/>
      <point x="420" y="716"/>
      <point x="420" y="857" type="curve" smooth="yes"/>
      <point x="420" y="972" type="line" smooth="yes"/>
      <point x="420" y="1136"/>
      <point x="355" y="1210"/>
      <point x="222" y="1210" type="curve" smooth="yes"/>
      <point x="160" y="1210"/>
      <point x="112" y="1182"/>
      <point x="89" y="1161" type="curve"/>
      <point x="83" y="1120" type="line"/>
      <point x="117" y="1150"/>
      <point x="166" y="1175"/>
      <point x="222" y="1175" type="curve" smooth="yes"/>
      <point x="330" y="1175"/>
      <point x="383" y="1113"/>
      <point x="383" y="968" type="curve" smooth="yes"/>
      <point x="383" y="857" type="line" smooth="yes"/>
      <point x="383" y="706"/>
      <point x="319" y="649"/>
      <point x="205" y="645" type="curve" smooth="yes"/>
      <point x="142" y="643" type="line"/>
      <point x="142" y="612" type="line"/>
      <point x="205" y="610" type="line" smooth="yes"/>
      <point x="329" y="606"/>
      <point x="396" y="546"/>
      <point x="396" y="392" type="curve" smooth="yes"/>
      <point x="396" y="261" type="line" smooth="yes"/>
      <point x="396" y="92"/>
      <point x="335" y="24"/>
      <point x="223" y="24" type="curve" smooth="yes"/>
      <point x="148" y="24"/>
      <point x="97" y="60"/>
      <point x="63" y="105" type="curve"/>
      <point x="70" y="54" type="line"/>
      <point x="93" y="23"/>
      <point x="148" y="-11"/>
    </contour>
  </outline>
</glyph>
<glyph name="VowelRuu.gj" format="2">
  <advance width="981"/>
  <unicode hex="0AE0"/>
  <guideline x="1268" y="3441" angle="0"/>
  <anchor x="490" y="-66" name="Bottom"/>
  <anchor x="479" y="1273" name="Top"/>
  <anchor x="497" y="1273" name="Top2"/>
  <outline>
    <contour>
      <point x="867" y="106" type="curve" smooth="yes"/>
      <point x="898" y="106"/>
      <point x="924" y="114"/>
      <point x="942" y="125" type="curve"/>
      <point x="946" y="160" type="line"/>
      <point x="926" y="149"/>
      <point x="900" y="140"/>
      <point x="869" y="140" type="curve" smooth="yes"/>
      <point x="793" y="140"/>
      <point x="757" y="176"/>
      <point x="757" y="298" type="curve" smooth="yes"/>
      <point x="757" y="315" type="line" smooth="yes"/>
      <point x="757" y="449"/>
      <point x="804" y="490"/>
      <point x="906" y="493" type="curve"/>
      <point x="906" y="522" type="line"/>
      <point x="851" y="581"/>
      <point x="810" y="643"/>
      <point x="784" y="713" type="curve"/>
      <point x="754" y="700" type="line"/>
      <point x="784" y="627"/>
      <point x="821" y="568"/>
      <point x="869" y="520" type="curve"/>
      <point x="869" y="518" type="line"/>
      <point x="767" y="504"/>
      <point x="722" y="447"/>
      <point x="722" y="315" type="curve" smooth="yes"/>
      <point x="722" y="295" type="line" smooth="yes"/>
      <point x="722" y="151"/>
      <point x="777" y="106"/>
    </contour>
    <contour>
      <point x="173" y="277" type="curve"/>
      <point x="214" y="277" type="line"/>
      <point x="214" y="298" type="line"/>
      <point x="273" y="359"/>
      <point x="291" y="432"/>
      <point x="291" y="607" type="curve" smooth="yes"/>
      <point x="291" y="850" type="line" smooth="yes"/>
      <point x="291" y="983"/>
      <point x="241" y="1045"/>
      <point x="146" y="1045" type="curve" smooth="yes"/>
      <point x="97" y="1045"/>
      <point x="57" y="1026"/>
      <point x="37" y="1011" type="curve"/>
      <point x="32" y="970" type="line"/>
      <point x="65" y="995"/>
      <point x="105" y="1010"/>
      <point x="144" y="1010" type="curve" smooth="yes"/>
      <point x="217" y="1010"/>
      <point x="254" y="963"/>
      <point x="254" y="849" type="curve" smooth="yes"/>
      <point x="254" y="609" type="line" smooth="yes"/>
      <point x="254" y="447"/>
      <point x="241" y="367"/>
    </contour>
    <contour>
      <point x="44" y="140" type="line"/>
      <point x="493" y="467" type="line"/>
      <point x="486" y="504" type="line"/>
      <point x="416" y="453" type="line" smooth="yes"/>
      <point x="348" y="401"/>
      <point x="287" y="357"/>
      <point x="223" y="311" type="curve"/>
      <point x="199" y="296" type="line"/>
      <point x="44" y="184" type="line"/>
    </contour>
    <contour>
      <point x="499" y="473" type="line"/>
      <point x="777" y="672" type="line"/>
      <point x="764" y="703" type="line"/>
      <point x="492" y="508" type="line"/>
    </contour>
    <contour>
      <point x="753" y="683" type="line"/>
      <point x="793" y="690" type="line"/>
      <point x="826" y="738" type="line"/>
      <point x="812" y="841"/>
      <point x="801" y="933"/>
      <point x="790" y="1041" type="curve"/>
      <point x="753" y="1041" type="line"/>
    </contour>
    <contour>
      <point x="479" y="539" type="line"/>
      <point x="516" y="539" type="line"/>
      <point x="516" y="1196" type="line"/>
      <point x="479" y="1196" type="line"/>
    </contour>
    <contour>
      <point x="479" y="0" type="line"/>
      <point x="516" y="0" type="line"/>
      <point x="516" y="747" type="line"/>
      <point x="479" y="747" type="line"/>
    </contour>
  </outline>
</glyph>
<glyph name="VowelLruu.gj" format="2">
  <advance width="856"/>
  <unicode hex="0AE1"/>
  <anchor x="604" y="1273" name="Top2"/>
  <outline>
    <contour>
      <point x="708" y="-504" type="curve" smooth="yes"/>
      <point x="750" y="-504"/>
      <point x="784" y="-493"/>
      <point x="806" y="-478" type="curve"/>
      <point x="810" y="-438" type="line"/>
      <point x="778" y="-458"/>
      <point x="751" y="-469"/>
      <point x="709" y="-469" type="curve" smooth="yes"/>
      <point x="645" y="-469"/>
      <point x="602" y="-433"/>
      <point x="602" y="-348" type="curve" smooth="yes"/>
      <point x="602" y="-329" type="line" smooth="yes"/>
      <point x="602" y="-265"/>
      <point x="625" y="-205"/>
      <point x="691" y="-181" type="curve"/>
      <point x="659" y="-161" type="line"/>
      <point x="659" y="-168" type="line"/>
      <point x="595" y="-196"/>
      <point x="565" y="-256"/>
      <point x="565" y="-329" type="curve" smooth="yes"/>
      <point x="565" y="-348" type="line" smooth="yes"/>
      <point x="565" y="-451"/>
      <point x="616" y="-504"/>
    </contour>
    <contour>
      <point x="724" y="-197" type="curve" smooth="yes"/>
      <point x="760" y="-197"/>
      <point x="793" y="-186"/>
      <point x="815" y="-173" type="curve"/>
      <point x="819" y="-136" type="line"/>
      <point x="792" y="-153"/>
      <point x="762" y="-162"/>
      <point x="724" y="-162" type="curve" smooth="yes"/>
      <point x="651" y="-162"/>
      <point x="610" y="-121"/>
      <point x="610" y="-30" type="curve" smooth="yes"/>
      <point x="610" y="-20" type="line" smooth="yes"/>
      <point x="610" y="162"/>
      <point x="769" y="472"/>
      <point x="769" y="705" type="curve" smooth="yes"/>
      <point x="769" y="728" type="line" smooth="yes"/>
      <point x="769" y="901"/>
      <point x="705" y="976"/>
      <point x="595" y="975" type="curve" smooth="yes"/>
      <point x="511" y="974"/>
      <point x="455" y="924"/>
      <point x="441" y="837" type="curve"/>
      <point x="432" y="837" type="line"/>
      <point x="441" y="348" type="line"/>
      <point x="456" y="348" type="line"/>
      <point x="458" y="727" type="line" smooth="yes"/>
      <point x="459" y="870"/>
      <point x="501" y="939"/>
      <point x="593" y="940" type="curve" smooth="yes"/>
      <point x="684" y="941"/>
      <point x="730" y="873"/>
      <point x="730" y="728" type="curve" smooth="yes"/>
      <point x="730" y="703" type="line" smooth="yes"/>
      <point x="730" y="461"/>
      <point x="573" y="191"/>
      <point x="573" y="-20" type="curve" smooth="yes"/>
      <point x="573" y="-30" type="line" smooth="yes"/>
      <point x="573" y="-132"/>
      <point x="627" y="-197"/>
    </contour>
    <contour>
      <point x="255" y="0" type="curve"/>
      <point x="297" y="0" type="line"/>
      <point x="297" y="2" type="line"/>
      <point x="188" y="132"/>
      <point x="148" y="244"/>
      <point x="148" y="474" type="curve" smooth="yes"/>
      <point x="148" y="699" type="line" smooth="yes"/>
      <point x="145" y="865"/>
      <point x="191" y="940"/>
      <point x="285" y="940" type="curve" smooth="yes"/>
      <point x="378" y="940"/>
      <point x="420" y="870"/>
      <point x="421" y="727" type="curve" smooth="yes"/>
      <point x="423" y="348" type="line"/>
      <point x="449" y="348" type="line"/>
      <point x="438" y="837" type="line"/>
      <point x="424" y="924"/>
      <point x="367" y="975"/>
      <point x="283" y="975" type="curve" smooth="yes"/>
      <point x="171" y="975"/>
      <point x="110" y="892"/>
      <point x="110" y="699" type="curve" smooth="yes"/>
      <point x="110" y="470" type="line" smooth="yes"/>
      <point x="110" y="241"/>
      <point x="152" y="123"/>
    </contour>
    <contour>
      <point x="586" y="957" type="line"/>
      <point x="623" y="957" type="line"/>
      <point x="623" y="1196" type="line"/>
      <point x="586" y="1196" type="line"/>
    </contour>
  </outline>
</glyph>
<glyph name="MatraLru.gj" format="2">
  <unicode hex="0AE2"/>
  <anchor x="460" y="-66" name="_Bottom"/>
  <outline>
    <contour>
      <point x="198" y="-581" type="curve"/>
      <point x="238" y="-581" type="line"/>
      <point x="157" y="-487"/>
      <point x="141" y="-419"/>
      <point x="141" y="-291" type="curve" smooth="yes"/>
      <point x="141" y="-237" type="line" smooth="yes"/>
      <point x="141" y="-146"/>
      <point x="169" y="-95"/>
      <point x="230" y="-95" type="curve" smooth="yes"/>
      <point x="283" y="-95"/>
      <point x="314" y="-133"/>
      <point x="315" y="-219" type="curve" smooth="yes"/>
      <point x="317" y="-417" type="line"/>
      <point x="342" y="-417" type="line"/>
      <point x="346" y="-219" type="line" smooth="yes"/>
      <point x="348" y="-133"/>
      <point x="377" y="-95"/>
      <point x="435" y="-95" type="curve" smooth="yes"/>
      <point x="491" y="-95"/>
      <point x="515" y="-143"/>
      <point x="515" y="-227" type="curve" smooth="yes"/>
      <point x="515" y="-244" type="line"/>
      <point x="547" y="-242" type="line"/>
      <point x="547" y="-224" type="line" smooth="yes"/>
      <point x="547" y="-123"/>
      <point x="511" y="-66"/>
      <point x="432" y="-66" type="curve" smooth="yes"/>
      <point x="378" y="-66"/>
      <point x="340" y="-95"/>
      <point x="331" y="-150" type="curve"/>
      <point x="330" y="-150" type="line"/>
      <point x="320" y="-95"/>
      <point x="285" y="-66"/>
      <point x="230" y="-66" type="curve" smooth="yes"/>
      <point x="152" y="-66"/>
      <point x="109" y="-124"/>
      <point x="109" y="-233" type="curve" smooth="yes"/>
      <point x="109" y="-293" type="line" smooth="yes"/>
      <point x="109" y="-421"/>
      <point x="131" y="-499"/>
    </contour>
    <contour>
      <point x="495" y="-691" type="curve" smooth="yes"/>
      <point x="529" y="-691"/>
      <point x="546" y="-684"/>
      <point x="561" y="-673" type="curve"/>
      <point x="562" y="-641" type="line"/>
      <point x="546" y="-654"/>
      <point x="525" y="-663"/>
      <point x="497" y="-663" type="curve" smooth="yes"/>
      <point x="456" y="-663"/>
      <point x="432" y="-642"/>
      <point x="432" y="-590" type="curve" smooth="yes"/>
      <point x="432" y="-536"/>
      <point x="458" y="-500"/>
      <point x="493" y="-449" type="curve" smooth="yes"/>
      <point x="534" y="-390"/>
      <point x="547" y="-342"/>
      <point x="547" y="-272" type="curve" smooth="yes"/>
      <point x="547" y="-239" type="line"/>
      <point x="515" y="-240" type="line"/>
      <point x="515" y="-271" type="line" smooth="yes"/>
      <point x="515" y="-334"/>
      <point x="507" y="-376"/>
      <point x="467" y="-434" type="curve" smooth="yes"/>
      <point x="427" y="-492"/>
      <point x="402" y="-532"/>
      <point x="402" y="-589" type="curve" smooth="yes"/>
      <point x="402" y="-660"/>
      <point x="443" y="-691"/>
    </contour>
  </outline>
</glyph>
<glyph name="MatraLruu.gj" format="2">
  <unicode hex="0AE3"/>
  <anchor x="460" y="-66" name="_Bottom"/>
  <outline>
    <contour>
      <point x="194" y="-581" type="curve"/>
      <point x="234" y="-581" type="line"/>
      <point x="149" y="-487"/>
      <point x="132" y="-419"/>
      <point x="132" y="-291" type="curve" smooth="yes"/>
      <point x="132" y="-241" type="line" smooth="yes"/>
      <point x="132" y="-147"/>
      <point x="162" y="-95"/>
      <point x="226" y="-95" type="curve" smooth="yes"/>
      <point x="282" y="-95"/>
      <point x="314" y="-133"/>
      <point x="315" y="-219" type="curve" smooth="yes"/>
      <point x="317" y="-417" type="line"/>
      <point x="342" y="-417" type="line"/>
      <point x="346" y="-219" type="line" smooth="yes"/>
      <point x="348" y="-133"/>
      <point x="378" y="-95"/>
      <point x="439" y="-95" type="curve" smooth="yes"/>
      <point x="498" y="-95"/>
      <point x="524" y="-144"/>
      <point x="524" y="-231" type="curve" smooth="yes"/>
      <point x="524" y="-244" type="line"/>
      <point x="556" y="-242" type="line"/>
      <point x="556" y="-228" type="line" smooth="yes"/>
      <point x="556" y="-124"/>
      <point x="518" y="-66"/>
      <point x="436" y="-66" type="curve" smooth="yes"/>
      <point x="380" y="-66"/>
      <point x="340" y="-95"/>
      <point x="331" y="-150" type="curve"/>
      <point x="330" y="-150" type="line"/>
      <point x="320" y="-95"/>
      <point x="283" y="-66"/>
      <point x="226" y="-66" type="curve" smooth="yes"/>
      <point x="145" y="-66"/>
      <point x="100" y="-125"/>
      <point x="100" y="-237" type="curve" smooth="yes"/>
      <point x="100" y="-293" type="line" smooth="yes"/>
      <point x="100" y="-421"/>
      <point x="123" y="-499"/>
    </contour>
    <contour>
      <point x="493" y="-655" type="curve" smooth="yes"/>
      <point x="521" y="-655"/>
      <point x="542" y="-649"/>
      <point x="559" y="-636" type="curve"/>
      <point x="561" y="-605" type="line"/>
      <point x="541" y="-620"/>
      <point x="519" y="-627"/>
      <point x="491" y="-627" type="curve" smooth="yes"/>
      <point x="443" y="-627"/>
      <point x="419" y="-601"/>
      <point x="419" y="-557" type="curve" smooth="yes"/>
      <point x="419" y="-504"/>
      <point x="451" y="-469"/>
      <point x="488" y="-421" type="curve" smooth="yes"/>
      <point x="538" y="-357"/>
      <point x="556" y="-316"/>
      <point x="556" y="-255" type="curve" smooth="yes"/>
      <point x="556" y="-241" type="line"/>
      <point x="524" y="-242" type="line"/>
      <point x="524" y="-255" type="line" smooth="yes"/>
      <point x="524" y="-307"/>
      <point x="510" y="-345"/>
      <point x="464" y="-404" type="curve" smooth="yes"/>
      <point x="422" y="-457"/>
      <point x="390" y="-496"/>
      <point x="390" y="-557" type="curve" smooth="yes"/>
      <point x="390" y="-607"/>
      <point x="421" y="-655"/>
    </contour>
    <contour>
      <point x="495" y="-828" type="curve" smooth="yes"/>
      <point x="526" y="-828"/>
      <point x="547" y="-823"/>
      <point x="565" y="-811" type="curve"/>
      <point x="567" y="-780" type="line"/>
      <point x="543" y="-795"/>
      <point x="523" y="-800"/>
      <point x="495" y="-800" type="curve" smooth="yes"/>
      <point x="453" y="-800"/>
      <point x="425" y="-780"/>
      <point x="425" y="-728" type="curve" smooth="yes"/>
      <point x="425" y="-689"/>
      <point x="441" y="-660"/>
      <point x="489" y="-653" type="curve"/>
      <point x="464" y="-638" type="line"/>
      <point x="464" y="-644" type="line"/>
      <point x="419" y="-653"/>
      <point x="396" y="-686"/>
      <point x="396" y="-730" type="curve" smooth="yes"/>
      <point x="396" y="-796"/>
      <point x="436" y="-828"/>
    </contour>
  </outline>
</glyph>
<glyph name="Zero.gj" format="2">
  <advance width="694"/>
  <unicode hex="0AE6"/>
  <outline>
    <contour>
      <point x="347" y="1210" type="curve" smooth="yes"/>
      <point x="208" y="1210"/>
      <point x="131" y="1107"/>
      <point x="131" y="922" type="curve" smooth="yes"/>
      <point x="131" y="603" type="line"/>
      <point x="168" y="603" type="line"/>
      <point x="168" y="922" type="line" smooth="yes"/>
      <point x="168" y="1085"/>
      <point x="231" y="1175"/>
      <point x="347" y="1175" type="curve" smooth="yes"/>
      <point x="468" y="1175"/>
      <point x="526" y="1086"/>
      <point x="526" y="922" type="curve" smooth="yes"/>
      <point x="526" y="601" type="line"/>
      <point x="563" y="601" type="line"/>
      <point x="563" y="922" type="line" smooth="yes"/>
      <point x="563" y="1107"/>
      <point x="492" y="1210"/>
    </contour>
    <contour>
      <point x="347" y="-12" type="curve" smooth="yes"/>
      <point x="486" y="-12"/>
      <point x="563" y="87"/>
      <point x="563" y="254" type="curve" smooth="yes"/>
      <point x="563" y="636" type="line"/>
      <point x="526" y="636" type="line"/>
      <point x="526" y="254" type="line" smooth="yes"/>
      <point x="526" y="109"/>
      <point x="463" y="23"/>
      <point x="347" y="23" type="curve" smooth="yes"/>
      <point x="231" y="23"/>
      <point x="168" y="109"/>
      <point x="168" y="254" type="curve" smooth="yes"/>
      <point x="168" y="636" type="line"/>
      <point x="131" y="636" type="line"/>
      <point x="131" y="254" type="line" smooth="yes"/>
      <point x="131" y="87"/>
      <point x="208" y="-12"/>
    </contour>
  </outline>
</glyph>
<glyph name="One.gj" format="2">
  <advance width="578"/>
  <unicode hex="0AE7"/>
  <guideline x="1833" y="1332" angle="0"/>
  <outline>
    <contour>
      <point x="262" y="410" type="curve" smooth="yes"/>
      <point x="344" y="410"/>
      <point x="396" y="460"/>
      <point x="410" y="530" type="curve"/>
      <point x="413" y="530" type="line"/>
      <point x="408" y="597" type="line"/>
      <point x="389" y="488"/>
      <point x="332" y="445"/>
      <point x="262" y="445" type="curve" smooth="yes"/>
      <point x="165" y="445"/>
      <point x="115" y="510"/>
      <point x="115" y="648" type="curve" smooth="yes"/>
      <point x="115" y="951" type="line" smooth="yes"/>
      <point x="115" y="1103"/>
      <point x="161" y="1175"/>
      <point x="260" y="1175" type="curve" smooth="yes"/>
      <point x="360" y="1175"/>
      <point x="406" y="1103"/>
      <point x="406" y="951" type="curve" smooth="yes"/>
      <point x="406" y="541" type="line"/>
      <point x="443" y="541" type="line"/>
      <point x="443" y="951" type="line" smooth="yes"/>
      <point x="443" y="1127"/>
      <point x="383" y="1210"/>
      <point x="260" y="1210" type="curve" smooth="yes"/>
      <point x="138" y="1210"/>
      <point x="78" y="1127"/>
      <point x="78" y="951" type="curve" smooth="yes"/>
      <point x="78" y="648" type="line" smooth="yes"/>
      <point x="78" y="487"/>
      <point x="141" y="410"/>
    </contour>
    <contour>
      <point x="483" y="-12" type="curve" smooth="yes"/>
      <point x="494" y="-12"/>
      <point x="505" y="-10"/>
      <point x="513" y="-8" type="curve"/>
      <point x="516" y="27" type="line"/>
      <point x="511" y="25"/>
      <point x="500" y="23"/>
      <point x="493" y="23" type="curve" smooth="yes"/>
      <point x="458" y="23"/>
      <point x="443" y="44"/>
      <point x="443" y="97" type="curve" smooth="yes"/>
      <point x="443" y="566" type="line"/>
      <point x="406" y="566" type="line"/>
      <point x="406" y="95" type="line" smooth="yes"/>
      <point x="406" y="25"/>
      <point x="432" y="-12"/>
    </contour>
  </outline>
</glyph>
<glyph name="Two.gj" format="2">
  <advance width="444"/>
  <unicode hex="0AE8"/>
  <outline>
    <contour>
      <point x="130" y="447" type="line"/>
      <point x="132" y="454" type="line"/>
      <point x="143" y="454" type="line"/>
      <point x="285" y="454"/>
      <point x="350" y="550"/>
      <point x="351" y="721" type="curve" smooth="yes"/>
      <point x="351" y="1009" type="line" smooth="yes"/>
      <point x="352" y="1145"/>
      <point x="290" y="1210"/>
      <point x="183" y="1210" type="curve" smooth="yes"/>
      <point x="126" y="1210"/>
      <point x="81" y="1193"/>
      <point x="52" y="1169" type="curve"/>
      <point x="46" y="1129" type="line"/>
      <point x="86" y="1156"/>
      <point x="124" y="1175"/>
      <point x="183" y="1175" type="curve" smooth="yes"/>
      <point x="266" y="1175"/>
      <point x="315" y="1127"/>
      <point x="314" y="1007" type="curve" smooth="yes"/>
      <point x="314" y="726" type="line" smooth="yes"/>
      <point x="313" y="562"/>
      <point x="259" y="487"/>
      <point x="134" y="487" type="curve" smooth="yes"/>
      <point x="31" y="487" type="line"/>
      <point x="31" y="458" type="line"/>
    </contour>
    <contour>
      <point x="300" y="0" type="line"/>
      <point x="340" y="0" type="line"/>
      <point x="340" y="4" type="line"/>
      <point x="205" y="323" type="line" smooth="yes"/>
      <point x="183" y="375"/>
      <point x="157" y="428"/>
      <point x="135" y="480" type="curve"/>
      <point x="103" y="468" type="line"/>
    </contour>
  </outline>
</glyph>
<glyph name="Three.gj" format="2">
  <advance width="524"/>
  <unicode hex="0AE9"/>
  <guideline x="235" y="3447" angle="90"/>
  <guideline x="82" y="599" angle="90"/>
  <outline>
    <contour>
      <point x="223" y="-11" type="curve" smooth="yes"/>
      <point x="362" y="-11"/>
      <point x="433" y="74"/>
      <point x="433" y="259" type="curve" smooth="yes"/>
      <point x="433" y="392" type="line" smooth="yes"/>
      <point x="433" y="537"/>
      <point x="378" y="611"/>
      <point x="267" y="626" type="curve"/>
      <point x="267" y="628" type="line"/>
      <point x="368" y="644"/>
      <point x="420" y="716"/>
      <point x="420" y="857" type="curve" smooth="yes"/>
      <point x="420" y="972" type="line" smooth="yes"/>
      <point x="420" y="1136"/>
      <point x="355" y="1210"/>
      <point x="222" y="1210" type="curve" smooth="yes"/>
      <point x="160" y="1210"/>
      <point x="112" y="1182"/>
      <point x="89" y="1161" type="curve"/>
      <point x="83" y="1120" type="line"/>
      <point x="117" y="1150"/>
      <point x="166" y="1175"/>
      <point x="222" y="1175" type="curve" smooth="yes"/>
      <point x="330" y="1175"/>
      <point x="383" y="1113"/>
      <point x="383" y="968" type="curve" smooth="yes"/>
      <point x="383" y="857" type="line" smooth="yes"/>
      <point x="383" y="706"/>
      <point x="319" y="649"/>
      <point x="205" y="645" type="curve" smooth="yes"/>
      <point x="142" y="643" type="line"/>
      <point x="142" y="612" type="line"/>
      <point x="205" y="610" type="line" smooth="yes"/>
      <point x="329" y="606"/>
      <point x="396" y="546"/>
      <point x="396" y="392" type="curve" smooth="yes"/>
      <point x="396" y="261" type="line" smooth="yes"/>
      <point x="396" y="92"/>
      <point x="335" y="24"/>
      <point x="223" y="24" type="curve" smooth="yes"/>
      <point x="148" y="24"/>
      <point x="97" y="60"/>
      <point x="63" y="105" type="curve"/>
      <point x="70" y="54" type="line"/>
      <point x="93" y="23"/>
      <point x="148" y="-11"/>
    </contour>
  </outline>
</glyph>
<glyph name="Four.gj" format="2">
  <advance width="596"/>
  <unicode hex="0AEA"/>
  <outline>
    <contour>
      <point x="293" y="-11" type="curve" smooth="yes"/>
      <point x="412" y="-11"/>
      <point x="480" y="63"/>
      <point x="480" y="217" type="curve" smooth="yes"/>
      <point x="480" y="244" type="line" smooth="yes"/>
      <point x="480" y="371"/>
      <point x="456" y="463"/>
      <point x="388" y="585" type="curve" smooth="yes"/>
      <point x="310" y="726" type="line"/>
      <point x="289" y="694" type="line"/>
      <point x="359" y="559" type="line" smooth="yes"/>
      <point x="419" y="444"/>
      <point x="443" y="374"/>
      <point x="443" y="244" type="curve" smooth="yes"/>
      <point x="443" y="217" type="line" smooth="yes"/>
      <point x="443" y="85"/>
      <point x="391" y="24"/>
      <point x="293" y="24" type="curve" smooth="yes"/>
      <point x="195" y="24"/>
      <point x="143" y="85"/>
      <point x="143" y="217" type="curve" smooth="yes"/>
      <point x="143" y="244" type="line" smooth="yes"/>
      <point x="143" y="371"/>
      <point x="164" y="439"/>
      <point x="226" y="551" type="curve" smooth="yes"/>
      <point x="306" y="696" type="line"/>
      <point x="285" y="725" type="line"/>
      <point x="199" y="577" type="line" smooth="yes"/>
      <point x="130" y="458"/>
      <point x="106" y="372"/>
      <point x="106" y="244" type="curve" smooth="yes"/>
      <point x="106" y="217" type="line" smooth="yes"/>
      <point x="106" y="63"/>
      <point x="174" y="-11"/>
    </contour>
    <contour>
      <point x="288" y="687" type="line"/>
      <point x="319" y="702" type="line"/>
      <point x="81" y="1196" type="line"/>
      <point x="44" y="1196" type="line"/>
      <point x="44" y="1192" type="line"/>
    </contour>
    <contour>
      <point x="306" y="683" type="line"/>
      <point x="552" y="1192" type="line"/>
      <point x="552" y="1196" type="line"/>
      <point x="515" y="1196" type="line"/>
      <point x="279" y="703" type="line"/>
    </contour>
  </outline>
</glyph>
<glyph name="Five.gj" format="2">
  <advance width="664"/>
  <unicode hex="0AEB"/>
  <outline>
    <contour>
      <point x="324" y="382" type="curve" smooth="yes"/>
      <point x="421" y="382"/>
      <point x="475" y="439"/>
      <point x="493" y="507" type="curve"/>
      <point x="497" y="507" type="line"/>
      <point x="493" y="574" type="line"/>
      <point x="469" y="467"/>
      <point x="414" y="417"/>
      <point x="324" y="417" type="curve" smooth="yes"/>
      <point x="212" y="417"/>
      <point x="158" y="485"/>
      <point x="158" y="649" type="curve" smooth="yes"/>
      <point x="158" y="831" type="line"/>
      <point x="121" y="831" type="line"/>
      <point x="121" y="645" type="line" smooth="yes"/>
      <point x="121" y="463"/>
      <point x="188" y="382"/>
    </contour>
    <contour>
      <point x="569" y="-11" type="curve" smooth="yes"/>
      <point x="580" y="-11"/>
      <point x="591" y="-8"/>
      <point x="599" y="-4" type="curve"/>
      <point x="602" y="28" type="line"/>
      <point x="594" y="25"/>
      <point x="585" y="23"/>
      <point x="578" y="23" type="curve" smooth="yes"/>
      <point x="543" y="23"/>
      <point x="528" y="35"/>
      <point x="528" y="85" type="curve" smooth="yes"/>
      <point x="528" y="570" type="line"/>
      <point x="493" y="570" type="line"/>
      <point x="493" y="79" type="line" smooth="yes"/>
      <point x="493" y="20"/>
      <point x="520" y="-11"/>
    </contour>
    <contour>
      <point x="491" y="522" type="line"/>
      <point x="528" y="522" type="line"/>
      <point x="528" y="1196" type="line"/>
      <point x="491" y="1196" type="line"/>
    </contour>
    <contour>
      <point x="121" y="727" type="line"/>
      <point x="158" y="727" type="line"/>
      <point x="158" y="1093" type="line" smooth="yes"/>
      <point x="158" y="1163"/>
      <point x="132" y="1200"/>
      <point x="81" y="1200" type="curve" smooth="yes"/>
      <point x="70" y="1200"/>
      <point x="59" y="1198"/>
      <point x="51" y="1196" type="curve"/>
      <point x="48" y="1161" type="line"/>
      <point x="53" y="1163"/>
      <point x="64" y="1165"/>
      <point x="71" y="1165" type="curve" smooth="yes"/>
      <point x="106" y="1165"/>
      <point x="121" y="1144"/>
      <point x="121" y="1091" type="curve" smooth="yes"/>
    </contour>
  </outline>
</glyph>
<glyph name="Six.gj" format="2">
  <advance width="601"/>
  <unicode hex="0AEC"/>
  <guideline x="2070" y="1049" angle="90"/>
  <guideline x="1949" y="1043" angle="270"/>
  <guideline x="592" y="516" angle="90"/>
  <guideline x="597" y="516" angle="90"/>
  <outline>
    <contour>
      <point x="287" y="-11" type="curve" smooth="yes"/>
      <point x="422" y="-11"/>
      <point x="491" y="68"/>
      <point x="491" y="239" type="curve" smooth="yes"/>
      <point x="491" y="793" type="line"/>
      <point x="455" y="793" type="line"/>
      <point x="455" y="536" type="line"/>
      <point x="455" y="517" type="line"/>
      <point x="455" y="241" type="line" smooth="yes"/>
      <point x="455" y="86"/>
      <point x="397" y="24"/>
      <point x="287" y="24" type="curve" smooth="yes"/>
      <point x="216" y="24"/>
      <point x="161" y="48"/>
      <point x="114" y="85" type="curve"/>
      <point x="119" y="44" type="line"/>
      <point x="156" y="13"/>
      <point x="215" y="-11"/>
    </contour>
    <contour>
      <point x="303" y="368" type="curve" smooth="yes"/>
      <point x="389" y="368"/>
      <point x="443" y="424"/>
      <point x="459" y="503" type="curve"/>
      <point x="462" y="503" type="line"/>
      <point x="457" y="570" type="line"/>
      <point x="437" y="450"/>
      <point x="377" y="403"/>
      <point x="303" y="403" type="curve" smooth="yes"/>
      <point x="200" y="403"/>
      <point x="147" y="476"/>
      <point x="147" y="631" type="curve" smooth="yes"/>
      <point x="147" y="810" type="line"/>
      <point x="110" y="810" type="line"/>
      <point x="110" y="631" type="line" smooth="yes"/>
      <point x="110" y="454"/>
      <point x="176" y="368"/>
    </contour>
    <contour>
      <point x="110" y="775" type="line"/>
      <point x="147" y="775" type="line"/>
      <point x="147" y="944" type="line" smooth="yes"/>
      <point x="147" y="1103"/>
      <point x="208" y="1178"/>
      <point x="325" y="1178" type="curve" smooth="yes"/>
      <point x="384" y="1178"/>
      <point x="431" y="1159"/>
      <point x="473" y="1132" type="curve"/>
      <point x="467" y="1172" type="line"/>
      <point x="435" y="1194"/>
      <point x="381" y="1213"/>
      <point x="324" y="1213" type="curve" smooth="yes"/>
      <point x="184" y="1213"/>
      <point x="110" y="1127"/>
      <point x="110" y="944" type="curve" smooth="yes"/>
    </contour>
  </outline>
</glyph>
<glyph name="Seven.gj" format="2">
  <advance width="723"/>
  <unicode hex="0AED"/>
  <outline>
    <contour>
      <point x="345" y="-12" type="curve" smooth="yes"/>
      <point x="521" y="-12"/>
      <point x="603" y="94"/>
      <point x="603" y="306" type="curve" smooth="yes"/>
      <point x="603" y="509" type="line"/>
      <point x="567" y="509" type="line"/>
      <point x="567" y="306" type="line" smooth="yes"/>
      <point x="567" y="116"/>
      <point x="499" y="23"/>
      <point x="345" y="23" type="curve" smooth="yes"/>
      <point x="194" y="23"/>
      <point x="121" y="116"/>
      <point x="121" y="306" type="curve" smooth="yes"/>
      <point x="121" y="390"/>
      <point x="121" y="458"/>
      <point x="121" y="521" type="curve"/>
      <point x="87" y="521" type="line"/>
      <point x="86" y="459"/>
      <point x="84" y="419"/>
      <point x="84" y="306" type="curve" smooth="yes"/>
      <point x="84" y="94"/>
      <point x="169" y="-12"/>
    </contour>
    <contour>
      <point x="442" y="403" type="curve" smooth="yes"/>
      <point x="513" y="403"/>
      <point x="557" y="447"/>
      <point x="570" y="508" type="curve"/>
      <point x="573" y="508" type="line"/>
      <point x="568" y="575" type="line"/>
      <point x="552" y="477"/>
      <point x="503" y="438"/>
      <point x="442" y="438" type="curve" smooth="yes"/>
      <point x="358" y="438"/>
      <point x="315" y="497"/>
      <point x="315" y="621" type="curve" smooth="yes"/>
      <point x="315" y="971" type="line" smooth="yes"/>
      <point x="315" y="1109"/>
      <point x="354" y="1175"/>
      <point x="440" y="1175" type="curve" smooth="yes"/>
      <point x="527" y="1175"/>
      <point x="566" y="1109"/>
      <point x="566" y="971" type="curve" smooth="yes"/>
      <point x="566" y="499" type="line"/>
      <point x="603" y="499" type="line"/>
      <point x="603" y="971" type="line" smooth="yes"/>
      <point x="603" y="1133"/>
      <point x="550" y="1210"/>
      <point x="440" y="1210" type="curve" smooth="yes"/>
      <point x="331" y="1210"/>
      <point x="278" y="1133"/>
      <point x="278" y="971" type="curve" smooth="yes"/>
      <point x="278" y="621" type="line" smooth="yes"/>
      <point x="278" y="473"/>
      <point x="334" y="403"/>
    </contour>
  </outline>
</glyph>
<glyph name="Eight.gj" format="2">
  <advance width="581"/>
  <unicode hex="0AEE"/>
  <outline>
    <contour>
      <point x="322" y="-11" type="curve" smooth="yes"/>
      <point x="408" y="-11"/>
      <point x="469" y="26"/>
      <point x="502" y="63" type="curve"/>
      <point x="507" y="114" type="line"/>
      <point x="456" y="53"/>
      <point x="393" y="24"/>
      <point x="323" y="24" type="curve" smooth="yes"/>
      <point x="197" y="24"/>
      <point x="126" y="92"/>
      <point x="126" y="262" type="curve" smooth="yes"/>
      <point x="126" y="269" type="line" smooth="yes"/>
      <point x="126" y="416"/>
      <point x="177" y="561"/>
      <point x="304" y="865" type="curve" smooth="yes"/>
      <point x="442" y="1196" type="line"/>
      <point x="403" y="1196" type="line"/>
      <point x="268" y="880" type="line" smooth="yes"/>
      <point x="132" y="560"/>
      <point x="88" y="425"/>
      <point x="88" y="272" type="curve" smooth="yes"/>
      <point x="88" y="261" type="line" smooth="yes"/>
      <point x="88" y="75"/>
      <point x="166" y="-11"/>
    </contour>
  </outline>
</glyph>
<glyph name="Nine.gj" format="2">
  <advance width="651"/>
  <unicode hex="0AEF"/>
  <guideline x="1788" y="2326" angle="90"/>
  <guideline x="567" y="800" angle="270"/>
  <guideline x="651" y="790" angle="270"/>
  <outline>
    <contour>
      <point x="349" y="-11" type="curve" smooth="yes"/>
      <point x="449" y="-11"/>
      <point x="519" y="31"/>
      <point x="562" y="77" type="curve"/>
      <point x="567" y="128" type="line"/>
      <point x="504" y="58"/>
      <point x="432" y="24"/>
      <point x="349" y="24" type="curve" smooth="yes"/>
      <point x="203" y="24"/>
      <point x="126" y="116"/>
      <point x="126" y="293" type="curve" smooth="yes"/>
      <point x="126" y="296" type="line" smooth="yes"/>
      <point x="126" y="486"/>
      <point x="187" y="645"/>
      <point x="331" y="1034" type="curve" smooth="yes"/>
      <point x="391" y="1196" type="line"/>
      <point x="351" y="1196" type="line"/>
      <point x="297" y="1049" type="line" smooth="yes"/>
      <point x="162" y="681"/>
      <point x="88" y="491"/>
      <point x="88" y="296" type="curve" smooth="yes"/>
      <point x="88" y="291" type="line" smooth="yes"/>
      <point x="88" y="97"/>
      <point x="179" y="-11"/>
    </contour>
    <contour>
      <point x="313" y="379" type="line"/>
      <point x="315" y="379" type="line"/>
      <point x="561" y="663" type="line"/>
      <point x="561" y="716" type="line"/>
      <point x="313" y="431" type="line"/>
    </contour>
  </outline>
</glyph>
<glyph name="AbbreviationSign.gj" format="2">
  <advance width="490"/>
  <unicode hex="0AF0"/>
  <outline>
    <contour>
      <point x="245" y="547" type="curve" smooth="yes"/>
      <point x="132" y="547"/>
      <point x="72" y="460"/>
      <point x="72" y="327" type="curve" smooth="yes"/>
      <point x="72" y="244" type="line"/>
      <point x="108" y="244" type="line"/>
      <point x="108" y="327" type="line" smooth="yes"/>
      <point x="108" y="439"/>
      <point x="154" y="513"/>
      <point x="245" y="513" type="curve" smooth="yes"/>
      <point x="339" y="513"/>
      <point x="382" y="446"/>
      <point x="382" y="327" type="curve" smooth="yes"/>
      <point x="382" y="244" type="line"/>
      <point x="418" y="244" type="line"/>
      <point x="418" y="327" type="line" smooth="yes"/>
      <point x="418" y="469"/>
      <point x="363" y="547"/>
    </contour>
    <contour>
      <point x="245" y="-12" type="curve" smooth="yes"/>
      <point x="363" y="-12"/>
      <point x="418" y="66"/>
      <point x="418" y="208" type="curve" smooth="yes"/>
      <point x="418" y="292" type="line"/>
      <point x="382" y="292" type="line"/>
      <point x="382" y="208" type="line" smooth="yes"/>
      <point x="382" y="89"/>
      <point x="339" y="22"/>
      <point x="245" y="22" type="curve" smooth="yes"/>
      <point x="154" y="22"/>
      <point x="108" y="96"/>
      <point x="108" y="208" type="curve" smooth="yes"/>
      <point x="108" y="292" type="line"/>
      <point x="72" y="292" type="line"/>
      <point x="72" y="208" type="line" smooth="yes"/>
      <point x="72" y="75"/>
      <point x="132" y="-12"/>
    </contour>
  </outline>
</glyph>
<glyph name="Zha.gj" format="2">
  <advance width="771"/>
  <unicode hex="0AF9"/>
  <anchor x="486" y="-66" name="Bottom"/>
  <anchor x="704" y="1273" name="Top"/>
  <anchor x="724" y="1273" name="Top2"/>
  <outline>
    <contour>
      <point x="500" y="738" type="line"/>
      <point x="744" y="1192" type="line"/>
      <point x="744" y="1196" type="line"/>
      <point x="704" y="1196" type="line"/>
      <point x="480" y="776" type="line"/>
    </contour>
    <contour>
      <point x="144" y="464" type="line"/>
      <point x="144" y="1062" type="line" smooth="yes"/>
      <point x="144" y="1140"/>
      <point x="167" y="1175"/>
      <point x="215" y="1175" type="curve" smooth="yes"/>
      <point x="263" y="1175"/>
      <point x="285" y="1150"/>
      <point x="331" y="1053" type="curve" smooth="yes"/>
      <point x="486" y="723" type="line"/>
      <point x="515" y="747" type="line"/>
      <point x="366" y="1066" type="line" smooth="yes"/>
      <point x="318" y="1168"/>
      <point x="283" y="1210"/>
      <point x="215" y="1210" type="curve" smooth="yes"/>
      <point x="142" y="1210"/>
      <point x="107" y="1160"/>
      <point x="107" y="1062" type="curve" smooth="yes"/>
      <point x="107" y="482" type="line"/>
    </contour>
    <contour>
      <point x="486" y="-12" type="curve" smooth="yes"/>
      <point x="604" y="-12"/>
      <point x="663" y="62"/>
      <point x="663" y="216" type="curve" smooth="yes"/>
      <point x="663" y="304" type="line" smooth="yes"/>
      <point x="663" y="420"/>
      <point x="635" y="501"/>
      <point x="581" y="615" type="curve" smooth="yes"/>
      <point x="508" y="769" type="line"/>
      <point x="482" y="734" type="line"/>
      <point x="552" y="589" type="line" smooth="yes"/>
      <point x="603" y="484"/>
      <point x="626" y="421"/>
      <point x="626" y="304" type="curve" smooth="yes"/>
      <point x="626" y="216" type="line" smooth="yes"/>
      <point x="626" y="84"/>
      <point x="581" y="23"/>
      <point x="486" y="23" type="curve" smooth="yes"/>
      <point x="390" y="23"/>
      <point x="346" y="84"/>
      <point x="346" y="216" type="curve" smooth="yes"/>
      <point x="346" y="304" type="line" smooth="yes"/>
      <point x="346" y="418"/>
      <point x="367" y="480"/>
      <point x="419" y="581" type="curve" smooth="yes"/>
      <point x="499" y="736" type="line"/>
      <point x="478" y="775" type="line"/>
      <point x="392" y="607" type="line" smooth="yes"/>
      <point x="335" y="495"/>
      <point x="309" y="420"/>
      <point x="309" y="304" type="curve" smooth="yes"/>
      <point x="309" y="216" type="line" smooth="yes"/>
      <point x="309" y="62"/>
      <point x="368" y="-12"/>
    </contour>
    <contour>
      <point x="221" y="-135" type="curve" smooth="yes"/>
      <point x="244" y="-135"/>
      <point x="251" y="-119"/>
      <point x="251" y="-83" type="curve" smooth="yes"/>
      <point x="251" y="-58" type="line" smooth="yes"/>
      <point x="251" y="-20"/>
      <point x="244" y="-4"/>
      <point x="221" y="-4" type="curve" smooth="yes"/>
      <point x="198" y="-4"/>
      <point x="191" y="-20"/>
      <point x="191" y="-58" type="curve" smooth="yes"/>
      <point x="191" y="-83" type="line" smooth="yes"/>
      <point x="191" y="-119"/>
      <point x="198" y="-135"/>
    </contour>
    <contour>
      <point x="81" y="9" type="curve" smooth="yes"/>
      <point x="104" y="9"/>
      <point x="111" y="25"/>
      <point x="111" y="61" type="curve" smooth="yes"/>
      <point x="111" y="86" type="line" smooth="yes"/>
      <point x="111" y="124"/>
      <point x="104" y="140"/>
      <point x="81" y="140" type="curve" smooth="yes"/>
      <point x="58" y="140"/>
      <point x="51" y="124"/>
      <point x="51" y="86" type="curve" smooth="yes"/>
      <point x="51" y="61" type="line" smooth="yes"/>
      <point x="51" y="25"/>
      <point x="58" y="9"/>
    </contour>
    <contour>
      <point x="85" y="-288" type="curve" smooth="yes"/>
      <point x="108" y="-288"/>
      <point x="115" y="-272"/>
      <point x="115" y="-236" type="curve" smooth="yes"/>
      <point x="115" y="-211" type="line" smooth="yes"/>
      <point x="115" y="-173"/>
      <point x="108" y="-157"/>
      <point x="85" y="-157" type="curve" smooth="yes"/>
      <point x="62" y="-157"/>
      <point x="55" y="-173"/>
      <point x="55" y="-211" type="curve" smooth="yes"/>
      <point x="55" y="-236" type="line" smooth="yes"/>
      <point x="55" y="-272"/>
      <point x="62" y="-288"/>
    </contour>
  </outline>
</glyph>
<glyph name="sevensuperior" format="2">
  <advance width="288"/>
  <unicode hex="2077"/>
  <outline>
    <contour>
      <point x="80" y="700" type="line"/>
      <point x="116" y="700" type="line"/>
      <point x="267" y="1353" type="line"/>
      <point x="267" y="1383" type="line"/>
      <point x="22" y="1383" type="line"/>
      <point x="22" y="1352" type="line"/>
      <point x="233" y="1352" type="line"/>
    </contour>
  </outline>
</glyph>
<glyph name="BaBa.gj" format="2">
  <advance width="1548"/>
  <anchor x="1384" y="-66" name="Bottom"/>
  <anchor x="1373" y="1273" name="Top"/>
  <anchor x="1391" y="1273" name="Top2"/>
  <outline>
    <contour>
      <point x="479" y="640" type="line"/>
      <point x="774" y="640" type="line"/>
      <point x="767" y="673" type="line"/>
      <point x="479" y="673" type="line"/>
    </contour>
    <contour>
      <point x="307" y="180" type="curve" smooth="yes"/>
      <point x="436" y="180"/>
      <point x="495" y="258"/>
      <point x="495" y="421" type="curve" smooth="yes"/>
      <point x="495" y="992" type="line"/>
      <point x="458" y="992" type="line"/>
      <point x="458" y="421" type="line" smooth="yes"/>
      <point x="458" y="282"/>
      <point x="410" y="215"/>
      <point x="307" y="215" type="curve" smooth="yes"/>
      <point x="204" y="215"/>
      <point x="157" y="282"/>
      <point x="157" y="421" type="curve" smooth="yes"/>
      <point x="157" y="896" type="line" smooth="yes"/>
      <point x="157" y="1040"/>
      <point x="173" y="1115"/>
      <point x="256" y="1196" type="curve"/>
      <point x="210" y="1196" type="line"/>
      <point x="144" y="1132"/>
      <point x="120" y="1052"/>
      <point x="120" y="902" type="curve" smooth="yes"/>
      <point x="120" y="421" type="line" smooth="yes"/>
      <point x="120" y="258"/>
      <point x="179" y="180"/>
    </contour>
    <contour>
      <point x="1373" y="539" type="line"/>
      <point x="1410" y="539" type="line"/>
      <point x="1410" y="1196" type="line"/>
      <point x="1373" y="1196" type="line"/>
    </contour>
    <contour>
      <point x="1373" y="0" type="line"/>
      <point x="1410" y="0" type="line"/>
      <point x="1410" y="747" type="line"/>
      <point x="1373" y="747" type="line"/>
    </contour>
    <contour>
      <point x="1107" y="640" type="line"/>
      <point x="1399" y="640" type="line"/>
      <point x="1393" y="673" type="line"/>
      <point x="1107" y="673" type="line"/>
    </contour>
    <contour>
      <point x="935" y="180" type="curve" smooth="yes"/>
      <point x="1064" y="180"/>
      <point x="1123" y="258"/>
      <point x="1123" y="421" type="curve" smooth="yes"/>
      <point x="1123" y="992" type="line"/>
      <point x="1086" y="992" type="line"/>
      <point x="1086" y="421" type="line" smooth="yes"/>
      <point x="1086" y="282"/>
      <point x="1038" y="215"/>
      <point x="935" y="215" type="curve" smooth="yes"/>
      <point x="832" y="215"/>
      <point x="785" y="282"/>
      <point x="785" y="421" type="curve" smooth="yes"/>
      <point x="785" y="896" type="line" smooth="yes"/>
      <point x="785" y="1040"/>
      <point x="801" y="1115"/>
      <point x="884" y="1196" type="curve"/>
      <point x="838" y="1196" type="line"/>
      <point x="772" y="1132"/>
      <point x="748" y="1052"/>
      <point x="748" y="902" type="curve" smooth="yes"/>
      <point x="748" y="421" type="line" smooth="yes"/>
      <point x="748" y="258"/>
      <point x="807" y="180"/>
    </contour>
  </outline>
</glyph>
<glyph name="BaBha.gj" format="2">
  <advance width="1538"/>
  <anchor x="1374" y="-66" name="Bottom"/>
  <anchor x="1363" y="1273" name="Top"/>
  <anchor x="1381" y="1273" name="Top2"/>
  <outline>
    <contour>
      <point x="479" y="640" type="line"/>
      <point x="757" y="640" type="line"/>
      <point x="751" y="673" type="line"/>
      <point x="479" y="673" type="line"/>
    </contour>
    <contour>
      <point x="307" y="180" type="curve" smooth="yes"/>
      <point x="436" y="180"/>
      <point x="495" y="258"/>
      <point x="495" y="421" type="curve" smooth="yes"/>
      <point x="495" y="992" type="line"/>
      <point x="458" y="992" type="line"/>
      <point x="458" y="421" type="line" smooth="yes"/>
      <point x="458" y="282"/>
      <point x="410" y="215"/>
      <point x="307" y="215" type="curve" smooth="yes"/>
      <point x="204" y="215"/>
      <point x="157" y="282"/>
      <point x="157" y="421" type="curve" smooth="yes"/>
      <point x="157" y="896" type="line" smooth="yes"/>
      <point x="157" y="1040"/>
      <point x="173" y="1115"/>
      <point x="256" y="1196" type="curve"/>
      <point x="210" y="1196" type="line"/>
      <point x="144" y="1132"/>
      <point x="120" y="1052"/>
      <point x="120" y="902" type="curve" smooth="yes"/>
      <point x="120" y="421" type="line" smooth="yes"/>
      <point x="120" y="258"/>
      <point x="179" y="180"/>
    </contour>
    <contour>
      <point x="1363" y="539" type="line"/>
      <point x="1400" y="539" type="line"/>
      <point x="1400" y="1196" type="line"/>
      <point x="1363" y="1196" type="line"/>
    </contour>
    <contour>
      <point x="1363" y="0" type="line"/>
      <point x="1400" y="0" type="line"/>
      <point x="1400" y="747" type="line"/>
      <point x="1363" y="747" type="line"/>
    </contour>
    <contour>
      <point x="1077" y="583" type="line"/>
      <point x="1390" y="583" type="line"/>
      <point x="1383" y="616" type="line"/>
      <point x="1077" y="616" type="line"/>
    </contour>
    <contour>
      <point x="869" y="0" type="curve"/>
      <point x="915" y="0" type="line"/>
      <point x="808" y="132"/>
      <point x="767" y="294"/>
      <point x="767" y="535" type="curve" smooth="yes"/>
      <point x="767" y="939" type="line" smooth="yes"/>
      <point x="767" y="1099"/>
      <point x="823" y="1175"/>
      <point x="937" y="1175" type="curve" smooth="yes"/>
      <point x="998" y="1175"/>
      <point x="1033" y="1162"/>
      <point x="1072" y="1132" type="curve"/>
      <point x="1063" y="1153" type="line"/>
      <point x="1063" y="602" type="line"/>
      <point x="1100" y="602" type="line"/>
      <point x="1100" y="1156" type="line"/>
      <point x="1060" y="1193"/>
      <point x="998" y="1210"/>
      <point x="937" y="1210" type="curve" smooth="yes"/>
      <point x="796" y="1210"/>
      <point x="730" y="1123"/>
      <point x="730" y="941" type="curve" smooth="yes"/>
      <point x="730" y="535" type="line" smooth="yes"/>
      <point x="730" y="293"/>
      <point x="768" y="131"/>
    </contour>
    <contour>
      <point x="1064" y="166" type="curve"/>
      <point x="1098" y="166" type="line"/>
      <point x="1098" y="611" type="line"/>
      <point x="1063" y="611" type="line"/>
      <point x="1028" y="580" type="line"/>
      <point x="1042" y="418"/>
      <point x="1050" y="328"/>
    </contour>
  </outline>
</glyph>
<glyph name="BaDa.gj" format="2">
  <advance width="1113"/>
  <anchor x="909" y="-66" name="Bottom"/>
  <anchor x="960" y="1273" name="Top"/>
  <anchor x="907" y="1273" name="Top2"/>
  <outline>
    <contour>
      <point x="479" y="618" type="line"/>
      <point x="859" y="618" type="line"/>
      <point x="852" y="651" type="line"/>
      <point x="479" y="651" type="line"/>
    </contour>
    <contour>
      <point x="307" y="180" type="curve" smooth="yes"/>
      <point x="436" y="180"/>
      <point x="495" y="258"/>
      <point x="495" y="421" type="curve" smooth="yes"/>
      <point x="495" y="992" type="line"/>
      <point x="458" y="992" type="line"/>
      <point x="458" y="421" type="line" smooth="yes"/>
      <point x="458" y="282"/>
      <point x="410" y="215"/>
      <point x="307" y="215" type="curve" smooth="yes"/>
      <point x="204" y="215"/>
      <point x="157" y="282"/>
      <point x="157" y="421" type="curve" smooth="yes"/>
      <point x="157" y="896" type="line" smooth="yes"/>
      <point x="157" y="1040"/>
      <point x="173" y="1115"/>
      <point x="256" y="1196" type="curve"/>
      <point x="210" y="1196" type="line"/>
      <point x="144" y="1132"/>
      <point x="120" y="1052"/>
      <point x="120" y="902" type="curve" smooth="yes"/>
      <point x="120" y="421" type="line" smooth="yes"/>
      <point x="120" y="258"/>
      <point x="179" y="180"/>
    </contour>
    <contour>
      <point x="912" y="-12" type="curve" smooth="yes"/>
      <point x="986" y="-12"/>
      <point x="1039" y="22"/>
      <point x="1062" y="53" type="curve"/>
      <point x="1069" y="104" type="line"/>
      <point x="1036" y="59"/>
      <point x="986" y="23"/>
      <point x="912" y="23" type="curve" smooth="yes"/>
      <point x="805" y="23"/>
      <point x="746" y="91"/>
      <point x="746" y="260" type="curve" smooth="yes"/>
      <point x="746" y="380" type="line" smooth="yes"/>
      <point x="746" y="541"/>
      <point x="804" y="606"/>
      <point x="912" y="608" type="curve" smooth="yes"/>
      <point x="1010" y="610" type="line"/>
      <point x="1010" y="641" type="line"/>
      <point x="912" y="643" type="line" smooth="yes"/>
      <point x="817" y="645"/>
      <point x="759" y="701"/>
      <point x="759" y="845" type="curve" smooth="yes"/>
      <point x="759" y="968" type="line" smooth="yes"/>
      <point x="759" y="1113"/>
      <point x="810" y="1175"/>
      <point x="913" y="1175" type="curve" smooth="yes"/>
      <point x="968" y="1175"/>
      <point x="1016" y="1150"/>
      <point x="1049" y="1120" type="curve"/>
      <point x="1043" y="1161" type="line"/>
      <point x="1021" y="1182"/>
      <point x="974" y="1210"/>
      <point x="913" y="1210" type="curve" smooth="yes"/>
      <point x="785" y="1210"/>
      <point x="722" y="1136"/>
      <point x="722" y="972" type="curve" smooth="yes"/>
      <point x="722" y="845" type="line" smooth="yes"/>
      <point x="722" y="710"/>
      <point x="766" y="644"/>
      <point x="850" y="626" type="curve"/>
      <point x="850" y="624" type="line"/>
      <point x="765" y="608"/>
      <point x="709" y="531"/>
      <point x="709" y="380" type="curve" smooth="yes"/>
      <point x="709" y="258" type="line" smooth="yes"/>
      <point x="709" y="73"/>
      <point x="778" y="-12"/>
    </contour>
  </outline>
</glyph>
<glyph name="BaDda.gj" format="2">
  <advance width="1142"/>
  <anchor x="872" y="-66" name="Bottom"/>
  <anchor x="942" y="1273" name="Top"/>
  <anchor x="876" y="1273" name="Top2"/>
  <outline>
    <contour>
      <point x="479" y="640" type="line"/>
      <point x="851" y="640" type="line"/>
      <point x="844" y="673" type="line"/>
      <point x="479" y="673" type="line"/>
    </contour>
    <contour>
      <point x="307" y="180" type="curve" smooth="yes"/>
      <point x="436" y="180"/>
      <point x="495" y="258"/>
      <point x="495" y="421" type="curve" smooth="yes"/>
      <point x="495" y="992" type="line"/>
      <point x="458" y="992" type="line"/>
      <point x="458" y="421" type="line" smooth="yes"/>
      <point x="458" y="282"/>
      <point x="410" y="215"/>
      <point x="307" y="215" type="curve" smooth="yes"/>
      <point x="204" y="215"/>
      <point x="157" y="282"/>
      <point x="157" y="421" type="curve" smooth="yes"/>
      <point x="157" y="896" type="line" smooth="yes"/>
      <point x="157" y="1040"/>
      <point x="173" y="1115"/>
      <point x="256" y="1196" type="curve"/>
      <point x="210" y="1196" type="line"/>
      <point x="144" y="1132"/>
      <point x="120" y="1052"/>
      <point x="120" y="902" type="curve" smooth="yes"/>
      <point x="120" y="421" type="line" smooth="yes"/>
      <point x="120" y="258"/>
      <point x="179" y="180"/>
    </contour>
    <contour>
      <point x="848" y="-12" type="curve" smooth="yes"/>
      <point x="986" y="-12"/>
      <point x="1054" y="73"/>
      <point x="1054" y="258" type="curve" smooth="yes"/>
      <point x="1054" y="356" type="line" smooth="yes"/>
      <point x="1054" y="511"/>
      <point x="1019" y="568"/>
      <point x="898" y="646" type="curve" smooth="yes"/>
      <point x="870" y="664" type="line" smooth="yes"/>
      <point x="740" y="747"/>
      <point x="720" y="801"/>
      <point x="720" y="914" type="curve" smooth="yes"/>
      <point x="720" y="967" type="line" smooth="yes"/>
      <point x="720" y="1114"/>
      <point x="775" y="1175"/>
      <point x="882" y="1175" type="curve" smooth="yes"/>
      <point x="946" y="1175"/>
      <point x="993" y="1153"/>
      <point x="1037" y="1119" type="curve"/>
      <point x="1031" y="1160" type="line"/>
      <point x="998" y="1187"/>
      <point x="944" y="1210"/>
      <point x="882" y="1210" type="curve" smooth="yes"/>
      <point x="752" y="1210"/>
      <point x="683" y="1132"/>
      <point x="683" y="969" type="curve" smooth="yes"/>
      <point x="683" y="911" type="line" smooth="yes"/>
      <point x="683" y="790"/>
      <point x="713" y="720"/>
      <point x="849" y="634" type="curve" smooth="yes"/>
      <point x="876" y="617" type="line" smooth="yes"/>
      <point x="990" y="545"/>
      <point x="1017" y="493"/>
      <point x="1017" y="352" type="curve" smooth="yes"/>
      <point x="1017" y="260" type="line" smooth="yes"/>
      <point x="1017" y="91"/>
      <point x="958" y="23"/>
      <point x="846" y="23" type="curve" smooth="yes"/>
      <point x="778" y="23"/>
      <point x="713" y="51"/>
      <point x="660" y="109" type="curve"/>
      <point x="667" y="58" type="line"/>
      <point x="704" y="21"/>
      <point x="761" y="-12"/>
    </contour>
  </outline>
</glyph>
<glyph name="BaDha.gj" format="2">
  <advance width="1273"/>
  <anchor x="1109" y="-66" name="Bottom"/>
  <anchor x="1098" y="1273" name="Top"/>
  <anchor x="1116" y="1273" name="Top2"/>
  <outline>
    <contour>
      <point x="479" y="640" type="line"/>
      <point x="786" y="640" type="line"/>
      <point x="780" y="673" type="line"/>
      <point x="479" y="673" type="line"/>
    </contour>
    <contour>
      <point x="307" y="180" type="curve" smooth="yes"/>
      <point x="436" y="180"/>
      <point x="495" y="258"/>
      <point x="495" y="421" type="curve" smooth="yes"/>
      <point x="495" y="992" type="line"/>
      <point x="458" y="992" type="line"/>
      <point x="458" y="421" type="line" smooth="yes"/>
      <point x="458" y="282"/>
      <point x="410" y="215"/>
      <point x="307" y="215" type="curve" smooth="yes"/>
      <point x="204" y="215"/>
      <point x="157" y="282"/>
      <point x="157" y="421" type="curve" smooth="yes"/>
      <point x="157" y="896" type="line" smooth="yes"/>
      <point x="157" y="1040"/>
      <point x="173" y="1115"/>
      <point x="256" y="1196" type="curve"/>
      <point x="210" y="1196" type="line"/>
      <point x="144" y="1132"/>
      <point x="120" y="1052"/>
      <point x="120" y="902" type="curve" smooth="yes"/>
      <point x="120" y="421" type="line" smooth="yes"/>
      <point x="120" y="258"/>
      <point x="179" y="180"/>
    </contour>
    <contour>
      <point x="902" y="134" type="curve" smooth="yes"/>
      <point x="1013" y="134"/>
      <point x="1084" y="194"/>
      <point x="1104" y="281" type="curve"/>
      <point x="1107" y="281" type="line"/>
      <point x="1102" y="346" type="line"/>
      <point x="1079" y="219"/>
      <point x="1002" y="169"/>
      <point x="904" y="169" type="curve" smooth="yes"/>
      <point x="786" y="169"/>
      <point x="723" y="245"/>
      <point x="723" y="403" type="curve" smooth="yes"/>
      <point x="723" y="456" type="line" smooth="yes"/>
      <point x="723" y="611"/>
      <point x="782" y="670"/>
      <point x="902" y="675" type="curve" smooth="yes"/>
      <point x="953" y="677" type="line"/>
      <point x="953" y="708" type="line"/>
      <point x="902" y="710" type="line" smooth="yes"/>
      <point x="791" y="714"/>
      <point x="736" y="769"/>
      <point x="736" y="914" type="curve" smooth="yes"/>
      <point x="736" y="926" type="line" smooth="yes"/>
      <point x="736" y="1032"/>
      <point x="764" y="1167"/>
      <point x="791" y="1281" type="curve"/>
      <point x="791" y="1282" type="line"/>
      <point x="755" y="1282" type="line"/>
      <point x="727" y="1168"/>
      <point x="699" y="1034"/>
      <point x="699" y="926" type="curve" smooth="yes"/>
      <point x="699" y="914" type="line" smooth="yes"/>
      <point x="699" y="778"/>
      <point x="745" y="710"/>
      <point x="834" y="694" type="curve"/>
      <point x="834" y="692" type="line"/>
      <point x="736" y="675"/>
      <point x="686" y="602"/>
      <point x="686" y="456" type="curve" smooth="yes"/>
      <point x="686" y="403" type="line" smooth="yes"/>
      <point x="686" y="223"/>
      <point x="762" y="134"/>
    </contour>
    <contour>
      <point x="1098" y="539" type="line"/>
      <point x="1135" y="539" type="line"/>
      <point x="1135" y="1196" type="line"/>
      <point x="1098" y="1196" type="line"/>
    </contour>
    <contour>
      <point x="1098" y="0" type="line"/>
      <point x="1135" y="0" type="line"/>
      <point x="1135" y="747" type="line"/>
      <point x="1098" y="747" type="line"/>
    </contour>
  </outline>
</glyph>
<glyph name="BaDhaVa.gj" format="2">
  <advance width="1635"/>
  <anchor x="1471" y="-66" name="Bottom"/>
  <anchor x="1460" y="1273" name="Top"/>
  <anchor x="1478" y="1273" name="Top2"/>
  <outline>
    <contour>
      <point x="479" y="640" type="line"/>
      <point x="807" y="640" type="line"/>
      <point x="800" y="673" type="line"/>
      <point x="479" y="673" type="line"/>
    </contour>
    <contour>
      <point x="307" y="180" type="curve" smooth="yes"/>
      <point x="436" y="180"/>
      <point x="495" y="258"/>
      <point x="495" y="421" type="curve" smooth="yes"/>
      <point x="495" y="992" type="line"/>
      <point x="458" y="992" type="line"/>
      <point x="458" y="421" type="line" smooth="yes"/>
      <point x="458" y="282"/>
      <point x="410" y="215"/>
      <point x="307" y="215" type="curve" smooth="yes"/>
      <point x="204" y="215"/>
      <point x="157" y="282"/>
      <point x="157" y="421" type="curve" smooth="yes"/>
      <point x="157" y="896" type="line" smooth="yes"/>
      <point x="157" y="1040"/>
      <point x="173" y="1115"/>
      <point x="256" y="1196" type="curve"/>
      <point x="210" y="1196" type="line"/>
      <point x="144" y="1132"/>
      <point x="120" y="1052"/>
      <point x="120" y="902" type="curve" smooth="yes"/>
      <point x="120" y="421" type="line" smooth="yes"/>
      <point x="120" y="258"/>
      <point x="179" y="180"/>
    </contour>
    <contour>
      <point x="926" y="134" type="curve" smooth="yes"/>
      <point x="1038" y="134"/>
      <point x="1119" y="195"/>
      <point x="1143" y="301" type="curve"/>
      <point x="1129" y="346" type="line"/>
      <point x="1106" y="219"/>
      <point x="1027" y="169"/>
      <point x="928" y="169" type="curve" smooth="yes"/>
      <point x="810" y="169"/>
      <point x="747" y="245"/>
      <point x="747" y="403" type="curve" smooth="yes"/>
      <point x="747" y="456" type="line" smooth="yes"/>
      <point x="747" y="611"/>
      <point x="806" y="670"/>
      <point x="926" y="675" type="curve" smooth="yes"/>
      <point x="977" y="677" type="line"/>
      <point x="977" y="708" type="line"/>
      <point x="926" y="710" type="line" smooth="yes"/>
      <point x="815" y="714"/>
      <point x="760" y="769"/>
      <point x="760" y="914" type="curve" smooth="yes"/>
      <point x="760" y="926" type="line" smooth="yes"/>
      <point x="760" y="1032"/>
      <point x="788" y="1167"/>
      <point x="815" y="1281" type="curve"/>
      <point x="815" y="1282" type="line"/>
      <point x="779" y="1282" type="line"/>
      <point x="751" y="1168"/>
      <point x="723" y="1034"/>
      <point x="723" y="926" type="curve" smooth="yes"/>
      <point x="723" y="914" type="line" smooth="yes"/>
      <point x="723" y="778"/>
      <point x="769" y="710"/>
      <point x="858" y="694" type="curve"/>
      <point x="858" y="692" type="line"/>
      <point x="760" y="675"/>
      <point x="710" y="602"/>
      <point x="710" y="456" type="curve" smooth="yes"/>
      <point x="710" y="403" type="line" smooth="yes"/>
      <point x="710" y="223"/>
      <point x="786" y="134"/>
    </contour>
    <contour>
      <point x="1294" y="223" type="curve" smooth="yes"/>
      <point x="1388" y="223"/>
      <point x="1447" y="279"/>
      <point x="1464" y="358" type="curve"/>
      <point x="1467" y="358" type="line"/>
      <point x="1462" y="425" type="line"/>
      <point x="1440" y="305"/>
      <point x="1375" y="258"/>
      <point x="1294" y="258" type="curve" smooth="yes"/>
      <point x="1182" y="258"/>
      <point x="1125" y="331"/>
      <point x="1125" y="486" type="curve" smooth="yes"/>
      <point x="1125" y="937" type="line" smooth="yes"/>
      <point x="1125" y="1089"/>
      <point x="1175" y="1161"/>
      <point x="1285" y="1161" type="curve" smooth="yes"/>
      <point x="1303" y="1161"/>
      <point x="1320" y="1159"/>
      <point x="1337" y="1156" type="curve"/>
      <point x="1333" y="1189" type="line"/>
      <point x="1316" y="1194"/>
      <point x="1300" y="1196"/>
      <point x="1283" y="1196" type="curve" smooth="yes"/>
      <point x="1151" y="1196"/>
      <point x="1088" y="1113"/>
      <point x="1088" y="937" type="curve" smooth="yes"/>
      <point x="1088" y="486" type="line" smooth="yes"/>
      <point x="1088" y="309"/>
      <point x="1158" y="223"/>
    </contour>
    <contour>
      <point x="1460" y="539" type="line"/>
      <point x="1497" y="539" type="line"/>
      <point x="1497" y="1196" type="line"/>
      <point x="1460" y="1196" type="line"/>
    </contour>
    <contour>
      <point x="1460" y="0" type="line"/>
      <point x="1497" y="0" type="line"/>
      <point x="1497" y="747" type="line"/>
      <point x="1460" y="747" type="line"/>
    </contour>
  </outline>
</glyph>
<glyph name="BaHa.gj" format="2">
  <advance width="1208"/>
  <anchor x="954" y="-72" name="Bottom"/>
  <anchor x="979" y="1273" name="Top"/>
  <anchor x="919" y="1273" name="Top2"/>
  <outline>
    <contour>
      <point x="479" y="733" type="line"/>
      <point x="887" y="733" type="line"/>
      <point x="879" y="766" type="line"/>
      <point x="479" y="766" type="line"/>
    </contour>
    <contour>
      <point x="307" y="180" type="curve" smooth="yes"/>
      <point x="436" y="180"/>
      <point x="495" y="258"/>
      <point x="495" y="421" type="curve" smooth="yes"/>
      <point x="495" y="992" type="line"/>
      <point x="458" y="992" type="line"/>
      <point x="458" y="421" type="line" smooth="yes"/>
      <point x="458" y="282"/>
      <point x="410" y="215"/>
      <point x="307" y="215" type="curve" smooth="yes"/>
      <point x="204" y="215"/>
      <point x="157" y="282"/>
      <point x="157" y="421" type="curve" smooth="yes"/>
      <point x="157" y="896" type="line" smooth="yes"/>
      <point x="157" y="1040"/>
      <point x="173" y="1115"/>
      <point x="256" y="1196" type="curve"/>
      <point x="210" y="1196" type="line"/>
      <point x="144" y="1132"/>
      <point x="120" y="1052"/>
      <point x="120" y="902" type="curve" smooth="yes"/>
      <point x="120" y="421" type="line" smooth="yes"/>
      <point x="120" y="258"/>
      <point x="179" y="180"/>
    </contour>
    <contour>
      <point x="954" y="-4" type="curve" smooth="yes"/>
      <point x="1018" y="-4"/>
      <point x="1072" y="18"/>
      <point x="1107" y="46" type="curve"/>
      <point x="1112" y="88" type="line"/>
      <point x="1068" y="53"/>
      <point x="1018" y="31"/>
      <point x="954" y="31" type="curve" smooth="yes"/>
      <point x="807" y="31"/>
      <point x="742" y="127"/>
      <point x="742" y="342" type="curve" smooth="yes"/>
      <point x="742" y="427"/>
      <point x="742" y="491"/>
      <point x="742" y="596" type="curve"/>
      <point x="707" y="596" type="line"/>
      <point x="705" y="493"/>
      <point x="705" y="427"/>
      <point x="705" y="344" type="curve" smooth="yes"/>
      <point x="705" y="105"/>
      <point x="781" y="-4"/>
    </contour>
    <contour>
      <point x="1069" y="280" type="curve"/>
      <point x="1106" y="280" type="line"/>
      <point x="1114" y="358"/>
      <point x="1116" y="418"/>
      <point x="1116" y="477" type="curve" smooth="yes"/>
      <point x="1116" y="630"/>
      <point x="1074" y="700"/>
      <point x="941" y="748" type="curve" smooth="yes"/>
      <point x="902" y="762" type="line" smooth="yes"/>
      <point x="792" y="802"/>
      <point x="762" y="863"/>
      <point x="762" y="957" type="curve" smooth="yes"/>
      <point x="762" y="978" type="line" smooth="yes"/>
      <point x="762" y="1118"/>
      <point x="818" y="1175"/>
      <point x="919" y="1175" type="curve" smooth="yes"/>
      <point x="979" y="1175"/>
      <point x="1024" y="1153"/>
      <point x="1064" y="1119" type="curve"/>
      <point x="1059" y="1162" type="line"/>
      <point x="1027" y="1188"/>
      <point x="978" y="1210"/>
      <point x="919" y="1210" type="curve" smooth="yes"/>
      <point x="793" y="1210"/>
      <point x="725" y="1136"/>
      <point x="725" y="980" type="curve" smooth="yes"/>
      <point x="725" y="953" type="line" smooth="yes"/>
      <point x="725" y="844"/>
      <point x="767" y="773"/>
      <point x="889" y="729" type="curve" smooth="yes"/>
      <point x="928" y="715" type="line" smooth="yes"/>
      <point x="1047" y="672"/>
      <point x="1079" y="612"/>
      <point x="1079" y="474" type="curve" smooth="yes"/>
      <point x="1079" y="417"/>
      <point x="1076" y="356"/>
    </contour>
  </outline>
</glyph>
<glyph name="BaHalf.gj" format="2">
  <advance width="649"/>
  <outline>
    <contour>
      <point x="479" y="640" type="line"/>
      <point x="749" y="640" type="line"/>
      <point x="743" y="673" type="line"/>
      <point x="479" y="673" type="line"/>
    </contour>
    <contour>
      <point x="307" y="180" type="curve" smooth="yes"/>
      <point x="436" y="180"/>
      <point x="495" y="258"/>
      <point x="495" y="421" type="curve" smooth="yes"/>
      <point x="495" y="992" type="line"/>
      <point x="458" y="992" type="line"/>
      <point x="458" y="421" type="line" smooth="yes"/>
      <point x="458" y="282"/>
      <point x="410" y="215"/>
      <point x="307" y="215" type="curve" smooth="yes"/>
      <point x="204" y="215"/>
      <point x="157" y="282"/>
      <point x="157" y="421" type="curve" smooth="yes"/>
      <point x="157" y="896" type="line" smooth="yes"/>
      <point x="157" y="1040"/>
      <point x="173" y="1115"/>
      <point x="256" y="1196" type="curve"/>
      <point x="210" y="1196" type="line"/>
      <point x="144" y="1132"/>
      <point x="120" y="1052"/>
      <point x="120" y="902" type="curve" smooth="yes"/>
      <point x="120" y="421" type="line" smooth="yes"/>
      <point x="120" y="258"/>
      <point x="179" y="180"/>
    </contour>
  </outline>
</glyph>
<glyph name="BaJaYa.gj" format="2">
  <advance width="2129"/>
  <anchor x="1965" y="-66" name="Bottom"/>
  <anchor x="1954" y="1273" name="Top"/>
  <anchor x="1972" y="1273" name="Top2"/>
  <outline>
    <contour>
      <point x="479" y="640" type="line"/>
      <point x="777" y="640" type="line"/>
      <point x="770" y="673" type="line"/>
      <point x="479" y="673" type="line"/>
    </contour>
    <contour>
      <point x="307" y="180" type="curve" smooth="yes"/>
      <point x="436" y="180"/>
      <point x="495" y="258"/>
      <point x="495" y="421" type="curve" smooth="yes"/>
      <point x="495" y="992" type="line"/>
      <point x="458" y="992" type="line"/>
      <point x="458" y="421" type="line" smooth="yes"/>
      <point x="458" y="282"/>
      <point x="410" y="215"/>
      <point x="307" y="215" type="curve" smooth="yes"/>
      <point x="204" y="215"/>
      <point x="157" y="282"/>
      <point x="157" y="421" type="curve" smooth="yes"/>
      <point x="157" y="896" type="line" smooth="yes"/>
      <point x="157" y="1040"/>
      <point x="173" y="1115"/>
      <point x="256" y="1196" type="curve"/>
      <point x="210" y="1196" type="line"/>
      <point x="144" y="1132"/>
      <point x="120" y="1052"/>
      <point x="120" y="902" type="curve" smooth="yes"/>
      <point x="120" y="421" type="line" smooth="yes"/>
      <point x="120" y="258"/>
      <point x="179" y="180"/>
    </contour>
    <contour>
      <point x="787" y="464" type="line"/>
      <point x="787" y="1062" type="line" smooth="yes"/>
      <point x="787" y="1140"/>
      <point x="810" y="1175"/>
      <point x="858" y="1175" type="curve" smooth="yes"/>
      <point x="906" y="1175"/>
      <point x="928" y="1150"/>
      <point x="974" y="1053" type="curve" smooth="yes"/>
      <point x="1129" y="723" type="line"/>
      <point x="1158" y="747" type="line"/>
      <point x="1009" y="1066" type="line" smooth="yes"/>
      <point x="961" y="1168"/>
      <point x="926" y="1210"/>
      <point x="858" y="1210" type="curve" smooth="yes"/>
      <point x="785" y="1210"/>
      <point x="750" y="1160"/>
      <point x="750" y="1062" type="curve" smooth="yes"/>
      <point x="750" y="482" type="line"/>
    </contour>
    <contour>
      <point x="1129" y="-12" type="curve" smooth="yes"/>
      <point x="1247" y="-12"/>
      <point x="1306" y="62"/>
      <point x="1306" y="216" type="curve" smooth="yes"/>
      <point x="1306" y="304" type="line" smooth="yes"/>
      <point x="1306" y="420"/>
      <point x="1278" y="501"/>
      <point x="1224" y="615" type="curve" smooth="yes"/>
      <point x="1151" y="769" type="line"/>
      <point x="1125" y="734" type="line"/>
      <point x="1195" y="589" type="line" smooth="yes"/>
      <point x="1246" y="484"/>
      <point x="1269" y="421"/>
      <point x="1269" y="304" type="curve" smooth="yes"/>
      <point x="1269" y="216" type="line" smooth="yes"/>
      <point x="1269" y="84"/>
      <point x="1224" y="23"/>
      <point x="1129" y="23" type="curve" smooth="yes"/>
      <point x="1033" y="23"/>
      <point x="989" y="84"/>
      <point x="989" y="216" type="curve" smooth="yes"/>
      <point x="989" y="304" type="line" smooth="yes"/>
      <point x="989" y="418"/>
      <point x="1010" y="480"/>
      <point x="1062" y="581" type="curve" smooth="yes"/>
      <point x="1142" y="736" type="line"/>
      <point x="1121" y="775" type="line"/>
      <point x="1035" y="607" type="line" smooth="yes"/>
      <point x="978" y="495"/>
      <point x="952" y="420"/>
      <point x="952" y="304" type="curve" smooth="yes"/>
      <point x="952" y="216" type="line" smooth="yes"/>
      <point x="952" y="62"/>
      <point x="1011" y="-12"/>
    </contour>
    <contour>
      <point x="1256" y="739" type="line"/>
      <point x="1468" y="739" type="line"/>
      <point x="1462" y="772" type="line"/>
      <point x="1256" y="772" type="line"/>
      <point x="1114" y="768" type="line"/>
      <point x="1114" y="743" type="line"/>
    </contour>
    <contour>
      <point x="1743" y="182" type="curve" smooth="yes"/>
      <point x="1869" y="182"/>
      <point x="1938" y="248"/>
      <point x="1960" y="349" type="curve"/>
      <point x="1963" y="349" type="line"/>
      <point x="1958" y="416" type="line"/>
      <point x="1930" y="280"/>
      <point x="1862" y="217"/>
      <point x="1743" y="217" type="curve" smooth="yes"/>
      <point x="1603" y="217"/>
      <point x="1529" y="302"/>
      <point x="1529" y="482" type="curve" smooth="yes"/>
      <point x="1529" y="546"/>
      <point x="1529" y="594"/>
      <point x="1529" y="640" type="curve"/>
      <point x="1503" y="621" type="line"/>
      <point x="1553" y="621" type="line" smooth="yes"/>
      <point x="1682" y="621"/>
      <point x="1744" y="691"/>
      <point x="1744" y="835" type="curve" smooth="yes"/>
      <point x="1744" y="1024" type="line" smooth="yes"/>
      <point x="1744" y="1151"/>
      <point x="1697" y="1210"/>
      <point x="1605" y="1210" type="curve" smooth="yes"/>
      <point x="1560" y="1210"/>
      <point x="1525" y="1193"/>
      <point x="1501" y="1173" type="curve"/>
      <point x="1496" y="1132" type="line"/>
      <point x="1527" y="1156"/>
      <point x="1559" y="1175"/>
      <point x="1605" y="1175" type="curve" smooth="yes"/>
      <point x="1672" y="1175"/>
      <point x="1707" y="1129"/>
      <point x="1707" y="1022" type="curve" smooth="yes"/>
      <point x="1707" y="841" type="line" smooth="yes"/>
      <point x="1707" y="714"/>
      <point x="1657" y="655"/>
      <point x="1546" y="655" type="curve" smooth="yes"/>
      <point x="1492" y="655" type="line"/>
      <point x="1492" y="602"/>
      <point x="1492" y="546"/>
      <point x="1492" y="482" type="curve" smooth="yes"/>
      <point x="1492" y="282"/>
      <point x="1579" y="182"/>
    </contour>
    <contour>
      <point x="1954" y="539" type="line"/>
      <point x="1991" y="539" type="line"/>
      <point x="1991" y="1196" type="line"/>
      <point x="1954" y="1196" type="line"/>
    </contour>
    <contour>
      <point x="1954" y="0" type="line"/>
      <point x="1991" y="0" type="line"/>
      <point x="1991" y="747" type="line"/>
      <point x="1954" y="747" type="line"/>
    </contour>
  </outline>
</glyph>
<glyph name="BaJha.gj" format="2">
  <advance width="1353"/>
  <anchor x="1087" y="-66" name="Bottom"/>
  <anchor x="1219" y="1273" name="Top"/>
  <anchor x="1238" y="1273" name="Top2"/>
  <outline>
    <contour>
      <point x="479" y="640" type="line"/>
      <point x="727" y="640" type="line"/>
      <point x="721" y="673" type="line"/>
      <point x="479" y="673" type="line"/>
    </contour>
    <contour>
      <point x="307" y="180" type="curve" smooth="yes"/>
      <point x="436" y="180"/>
      <point x="495" y="258"/>
      <point x="495" y="421" type="curve" smooth="yes"/>
      <point x="495" y="992" type="line"/>
      <point x="458" y="992" type="line"/>
      <point x="458" y="421" type="line" smooth="yes"/>
      <point x="458" y="282"/>
      <point x="410" y="215"/>
      <point x="307" y="215" type="curve" smooth="yes"/>
      <point x="204" y="215"/>
      <point x="157" y="282"/>
      <point x="157" y="421" type="curve" smooth="yes"/>
      <point x="157" y="896" type="line" smooth="yes"/>
      <point x="157" y="1040"/>
      <point x="173" y="1115"/>
      <point x="256" y="1196" type="curve"/>
      <point x="210" y="1196" type="line"/>
      <point x="144" y="1132"/>
      <point x="120" y="1052"/>
      <point x="120" y="902" type="curve" smooth="yes"/>
      <point x="120" y="421" type="line" smooth="yes"/>
      <point x="120" y="258"/>
      <point x="179" y="180"/>
    </contour>
    <contour>
      <point x="767" y="173" type="curve" smooth="yes"/>
      <point x="885" y="173"/>
      <point x="951" y="247"/>
      <point x="951" y="407" type="curve" smooth="yes"/>
      <point x="951" y="987" type="line" smooth="yes"/>
      <point x="951" y="1138"/>
      <point x="892" y="1210"/>
      <point x="781" y="1210" type="curve" smooth="yes"/>
      <point x="719" y="1210"/>
      <point x="675" y="1191"/>
      <point x="642" y="1164" type="curve"/>
      <point x="636" y="1123" type="line"/>
      <point x="676" y="1154"/>
      <point x="719" y="1175"/>
      <point x="781" y="1175" type="curve" smooth="yes"/>
      <point x="868" y="1175"/>
      <point x="914" y="1119"/>
      <point x="914" y="985" type="curve" smooth="yes"/>
      <point x="914" y="408" type="line" smooth="yes"/>
      <point x="914" y="265"/>
      <point x="863" y="208"/>
      <point x="767" y="208" type="curve" smooth="yes"/>
      <point x="705" y="208"/>
      <point x="656" y="233"/>
      <point x="612" y="270" type="curve"/>
      <point x="618" y="225" type="line"/>
      <point x="653" y="195"/>
      <point x="705" y="173"/>
    </contour>
    <contour>
      <point x="1089" y="-12" type="curve" smooth="yes"/>
      <point x="1192" y="-12"/>
      <point x="1247" y="54"/>
      <point x="1247" y="194" type="curve" smooth="yes"/>
      <point x="1247" y="439" type="line" smooth="yes"/>
      <point x="1247" y="607"/>
      <point x="1177" y="684"/>
      <point x="1024" y="684" type="curve"/>
      <point x="1011" y="684" type="line"/>
      <point x="929" y="684" type="line"/>
      <point x="929" y="651" type="line"/>
      <point x="1022" y="651" type="line" smooth="yes"/>
      <point x="1151" y="651"/>
      <point x="1210" y="585"/>
      <point x="1210" y="432" type="curve" smooth="yes"/>
      <point x="1210" y="196" type="line" smooth="yes"/>
      <point x="1210" y="74"/>
      <point x="1168" y="23"/>
      <point x="1087" y="23" type="curve" smooth="yes"/>
      <point x="1044" y="23"/>
      <point x="1004" y="36"/>
      <point x="969" y="54" type="curve"/>
      <point x="975" y="18" type="line"/>
      <point x="998" y="5"/>
      <point x="1033" y="-12"/>
    </contour>
    <contour>
      <point x="1024" y="662" type="line"/>
      <point x="1053" y="719"/>
      <point x="1086" y="787"/>
      <point x="1111" y="846" type="curve" smooth="yes"/>
      <point x="1258" y="1192" type="line"/>
      <point x="1258" y="1196" type="line"/>
      <point x="1219" y="1196" type="line"/>
      <point x="996" y="668" type="line"/>
    </contour>
  </outline>
</glyph>
<glyph name="BaLa.gj" format="2">
  <advance width="1374"/>
  <anchor x="1210" y="-66" name="Bottom"/>
  <anchor x="1199" y="1273" name="Top"/>
  <anchor x="1217" y="1273" name="Top2"/>
  <outline>
    <contour>
      <point x="479" y="640" type="line"/>
      <point x="772" y="640" type="line"/>
      <point x="766" y="673" type="line"/>
      <point x="479" y="673" type="line"/>
    </contour>
    <contour>
      <point x="307" y="180" type="curve" smooth="yes"/>
      <point x="436" y="180"/>
      <point x="495" y="258"/>
      <point x="495" y="421" type="curve" smooth="yes"/>
      <point x="495" y="992" type="line"/>
      <point x="458" y="992" type="line"/>
      <point x="458" y="421" type="line" smooth="yes"/>
      <point x="458" y="282"/>
      <point x="410" y="215"/>
      <point x="307" y="215" type="curve" smooth="yes"/>
      <point x="204" y="215"/>
      <point x="157" y="282"/>
      <point x="157" y="421" type="curve" smooth="yes"/>
      <point x="157" y="896" type="line" smooth="yes"/>
      <point x="157" y="1040"/>
      <point x="173" y="1115"/>
      <point x="256" y="1196" type="curve"/>
      <point x="210" y="1196" type="line"/>
      <point x="144" y="1132"/>
      <point x="120" y="1052"/>
      <point x="120" y="902" type="curve" smooth="yes"/>
      <point x="120" y="421" type="line" smooth="yes"/>
      <point x="120" y="258"/>
      <point x="179" y="180"/>
    </contour>
    <contour>
      <point x="1199" y="539" type="line"/>
      <point x="1236" y="539" type="line"/>
      <point x="1236" y="1196" type="line"/>
      <point x="1199" y="1196" type="line"/>
    </contour>
    <contour>
      <point x="1199" y="0" type="line"/>
      <point x="1236" y="0" type="line"/>
      <point x="1236" y="747" type="line"/>
      <point x="1199" y="747" type="line"/>
    </contour>
    <contour>
      <point x="971" y="11" type="curve" smooth="yes"/>
      <point x="1014" y="11"/>
      <point x="1047" y="18"/>
      <point x="1068" y="28" type="curve"/>
      <point x="1073" y="64" type="line"/>
      <point x="1047" y="53"/>
      <point x="1014" y="46"/>
      <point x="973" y="46" type="curve" smooth="yes"/>
      <point x="843" y="46"/>
      <point x="782" y="134"/>
      <point x="782" y="326" type="curve" smooth="yes"/>
      <point x="782" y="907" type="line" smooth="yes"/>
      <point x="782" y="1086"/>
      <point x="843" y="1168"/>
      <point x="971" y="1168" type="curve" smooth="yes"/>
      <point x="1003" y="1168"/>
      <point x="1036" y="1163"/>
      <point x="1062" y="1156" type="curve"/>
      <point x="1059" y="1189" type="line"/>
      <point x="1030" y="1200"/>
      <point x="998" y="1203"/>
      <point x="969" y="1203" type="curve" smooth="yes"/>
      <point x="819" y="1203"/>
      <point x="745" y="1110"/>
      <point x="745" y="907" type="curve" smooth="yes"/>
      <point x="745" y="326" type="line" smooth="yes"/>
      <point x="745" y="110"/>
      <point x="819" y="11"/>
    </contour>
    <contour>
      <point x="924" y="523" type="line"/>
      <point x="1218" y="735" type="line"/>
      <point x="1218" y="777" type="line"/>
      <point x="924" y="567" type="line"/>
    </contour>
  </outline>
</glyph>
